SplineFontDB: 3.0
FontName: Khottabun
FullName: Khottabun
FamilyName: Khottabun
Weight: Medium
Copyright: Created by Theppitak Karoonboonyanan, with FontForge 2.0 (http://fontforge.sf.net).\n\nTham glyphs are based on UbwManut font by Sanit Pokhaphun, Ubon Ratchathani Rajabhat University, Thailand, 8 September 2004.\n\nThai Noi glyphs are based on TNManut font by Sanit Pokhaphun, Ubon Ratchathani Rajabhat University, Thailand, September 2004.
UComments: "2010-12-9: Created." 
Version: 001.000
ItalicAngle: 0
UnderlinePosition: -174
UnderlineWidth: 184
Ascent: 1556
Descent: 492
LayerCount: 2
Layer: 0 0 "Back"  1
Layer: 1 0 "Fore"  0
NeedsXUIDChange: 1
XUID: [1021 373 914837695 14756271]
FSType: 8
OS2Version: 0
OS2_WeightWidthSlopeOnly: 0
OS2_UseTypoMetrics: 1
CreationTime: 1291888288
ModificationTime: 1298001104
PfmFamily: 33
TTFWeight: 500
TTFWidth: 5
LineGap: 377
VLineGap: 0
OS2TypoAscent: 0
OS2TypoAOffset: 1
OS2TypoDescent: 0
OS2TypoDOffset: 1
OS2TypoLinegap: 377
OS2WinAscent: 0
OS2WinAOffset: 1
OS2WinDescent: 0
OS2WinDOffset: 1
HheadAscent: 0
HheadAOffset: 1
HheadDescent: 0
HheadDOffset: 1
OS2Vendor: 'PfEd'
Lookup: 4 0 1 "Subjoined consonants"  {"Subjoined consonants lookup"  } ['ccmp' ('DFLT' <'dflt' > ) ]
Lookup: 260 0 0 "'mark' BelowBase Mark Positioning"  {"'mark' BelowBase Mark Positioning-1"  } ['mark' ('DFLT' <'dflt' > ) ]
Lookup: 260 0 0 "'mark' AboveBase Mark Positioning"  {"'mark' AboveBase Mark Positioning-1"  } ['mark' ('DFLT' <'dflt' > ) ]
Lookup: 262 0 0 "'mkmk' BelowMark Mark to Mark"  {"'mkmk' BelowMark Mark to Mark-1"  } ['mkmk' ('DFLT' <'dflt' > ) ]
Lookup: 262 0 0 "'mkmk' AboveMark Mark to Mark"  {"'mkmk' AboveMark Mark to Mark-1"  } ['mkmk' ('DFLT' <'dflt' > ) ]
MarkAttachClasses: 6
"AboveBase" 0 
"BelowBase" 0 
"AboveMark" 0 
"BelowMark" 0 
"BelowRight" 0 
DEI: 91125

StartChar: uni1A20
Encoding: 6688 6688 0
Width: 1200
VWidth: 2260
Flags: W
HStem: -20 66<348.789 446.547 848 975.494> 156 66<347.529 446.547> 736 90<225.975 472.899 701.745 938.998>
VStem: -2 90<220.3 574.762> 276 66<91.3619 150.484> 452 66<51.453 150.547> 1051 90<255.608 596.964>
AnchorPoint: "BelowRight" 950 -42 basechar 0
AnchorPoint: "BelowBase" 587 -42 basechar 0
AnchorPoint: "AboveBase" 587 883 basechar 0
LayerCount: 2
Back
SplineSet
397 70 m 9xbf
 397 -20 l 1xbf
 143 -20 -2 174 -2 403 c 3
 -2 605 147 826 337 826 c 3
 432 826 519 786 587 707 c 1
 662 788 732 826 838 826 c 3
 1018 826 1141 618 1141 403 c 3
 1141 272 1062 136 905 47 c 1
 912 42 920 39 929 39 c 3
 958 39 1002 67 1063 123 c 1
 1017 28 954 -20 873 -20 c 3x7f
 823 -20 798 -1 798 47 c 3
 798 58 804 80 819 85 c 0
 940 129 1051 282 1051 403 c 3
 1051 576 952 736 838 736 c 3
 745 736 664 677 587 590 c 1
 503 687 421 736 337 736 c 3
 202 736 88 559 88 403 c 3
 88 210 205 70 397 70 c 9xbf
342 101 m 3
 342 71 367 46 397 46 c 3
 427 46 452 71 452 101 c 3
 452 131 427 156 397 156 c 3
 367 156 342 131 342 101 c 3
397 222 m 3
 462 222 518 166 518 101 c 3
 518 36 462 -20 397 -20 c 3
 333 -20 276 37 276 101 c 3
 276 166 332 222 397 222 c 3
EndSplineSet
Fore
SplineSet
397 222 m 3
 462 222 518 166 518 101 c 3
 518 36 462 -20 397 -20 c 3
 143 -20 -2 174 -2 403 c 3
 -2 605 147 826 337 826 c 3
 432 826 519 786 587 707 c 1
 662 788 732 826 838 826 c 3
 1018 826 1141 618 1141 403 c 3
 1141 272 1062 136 905 47 c 1
 912 42 920 39 929 39 c 3
 958 39 1002 67 1063 123 c 1
 1017 28 954 -20 873 -20 c 3
 823 -20 798 -1 798 47 c 3
 798 58 804 80 819 85 c 0
 940 129 1051 282 1051 403 c 3
 1051 576 952 736 838 736 c 3
 745 736 664 677 587 590 c 1
 503 687 421 736 337 736 c 3
 202 736 88 559 88 403 c 3
 88 255 157 137 276 91 c 1
 276 163 326 222 397 222 c 3
342 101 m 3
 342 71 367 46 397 46 c 3
 427 46 452 71 452 101 c 3
 452 131 427 156 397 156 c 3
 367 156 342 131 342 101 c 3
EndSplineSet
EndChar

StartChar: uni1A21
Encoding: 6689 6689 1
Width: 1002
VWidth: 2260
Flags: W
HStem: -20 90<198.501 635.727> 294 90<201.969 616.455> 388 66<76.6678 175.547> 736 90<224.622 621.052>
VStem: 5 66<459.668 556.91> 52 90<121.089 240.07> 181 66<459.453 558.004> 806 90<249.945 566.037>
AnchorPoint: "BelowRight" 752 -42 basechar 0
AnchorPoint: "BelowBase" 416 -42 basechar 0
AnchorPoint: "AboveBase" 416 883 basechar 0
LayerCount: 2
Back
SplineSet
862 72 m 3xf9c0
 862 38 855 8 840 -15 c 1
 740 170 648 294 416 294 c 3
 286 294 142 252 142 174 c 3xf9c0
 142 106 313 70 416 70 c 3
 622 70 806 158 806 397 c 3
 806 618 630 736 416 736 c 3
 251 736 95 647 95 509 c 9
 5 509 l 1xfcc0
 5 711 219 826 416 826 c 3
 682 826 896 662 896 397 c 3
 896 88 644 -20 416 -20 c 3
 252 -20 52 44 52 173 c 3
 52 312 222 384 416 384 c 3
 672 384 862 216 862 72 c 3xf9c0
71 509 m 3xfac0
 71 479 96 454 126 454 c 3
 156 454 181 479 181 509 c 3
 181 539 156 564 126 564 c 3
 96 564 71 539 71 509 c 3xfac0
126 630 m 3
 191 630 247 574 247 509 c 3
 247 444 191 388 126 388 c 3
 62 388 5 445 5 509 c 3xfcc0
 5 574 61 630 126 630 c 3
EndSplineSet
Fore
SplineSet
71 509 m 3xfb
 71 479 96 454 126 454 c 3
 156 454 181 479 181 509 c 3
 181 539 156 564 126 564 c 3
 96 564 71 539 71 509 c 3xfb
719 169 m 1
 648 247 558 294 416 294 c 3
 286 294 142 252 142 174 c 3xf7
 142 106 313 70 416 70 c 3
 534 70 646 99 719 169 c 1
775 248 m 1
 795 289 806 338 806 397 c 3
 806 618 630 736 416 736 c 3
 306 736 199 696 141 629 c 1
 199 621 247 569 247 509 c 3
 247 444 191 388 126 388 c 3
 62 388 5 445 5 509 c 3xfb
 5 711 219 826 416 826 c 3
 682 826 896 662 896 397 c 3
 896 304 873 229 835 170 c 1
 853 138 862 104 862 72 c 3
 862 38 855 8 840 -15 c 1
 818 26 796 64 773 98 c 1
 679 14 544 -20 416 -20 c 3
 252 -20 52 44 52 173 c 3
 52 312 222 384 416 384 c 3
 567 384 695 326 775 248 c 1
EndSplineSet
EndChar

StartChar: uni1A23
Encoding: 6691 6691 2
Width: 1086
VWidth: 2260
Flags: W
HStem: -20 66<324.261 422.547 743 870.578> 156 66<323.529 422.547> 736 90<310.001 710.642>
VStem: 12 90<183.603 541.305> 252 66<91.3619 150.484> 428 66<51.453 150.547> 918 90<231.372 540.038>
AnchorPoint: "BelowRight" 836 -42 basechar 0
AnchorPoint: "BelowBase" 520 -42 basechar 0
AnchorPoint: "AboveBase" 520 883 basechar 0
LayerCount: 2
Back
SplineSet
373 70 m 9
 373 -20 l 1
 110 -20 12 172 12 374 c 3
 12 653 236 826 520 826 c 3
 788 826 1008 629 1008 388 c 3
 1008 244 940 125 801 46 c 1
 806 41 819 39 825 39 c 3
 854 39 898 67 958 122 c 1
 911 27 848 -20 768 -20 c 3
 718 -20 694 -1 694 47 c 3
 694 59 705 81 715 85 c 0
 825 128 918 260 918 388 c 3
 918 587 726 736 520 736 c 3
 286 736 102 598 102 374 c 3
 102 203 176 70 373 70 c 9
318 101 m 3x3e54
 318 71 343 46 373 46 c 3
 403 46 428 71 428 101 c 3
 428 131 403 156 373 156 c 3
 343 156 318 131 318 101 c 3x3e54
373 222 m 3
 438 222 494 166 494 101 c 3
 494 36 438 -20 373 -20 c 3
 309 -20 252 37 252 101 c 3x3e4c
 252 166 308 222 373 222 c 3
EndSplineSet
Fore
SplineSet
373 222 m 3
 438 222 494 166 494 101 c 3
 494 36 438 -20 373 -20 c 3
 110 -20 12 172 12 374 c 3
 12 653 236 826 520 826 c 3
 788 826 1008 629 1008 388 c 3
 1008 244 940 125 801 46 c 1
 806 41 819 39 825 39 c 3
 854 39 898 67 958 122 c 1
 911 27 848 -20 768 -20 c 3
 718 -20 694 -1 694 47 c 3
 694 59 705 81 715 85 c 0
 825 129 918 260 918 388 c 3
 918 587 726 736 520 736 c 3
 286 736 102 598 102 374 c 3
 102 244 145 135 252 91 c 1
 252 163 302 222 373 222 c 3
318 101 m 3
 318 71 343 46 373 46 c 3
 403 46 428 71 428 101 c 3
 428 131 403 156 373 156 c 3
 343 156 318 131 318 101 c 3
EndSplineSet
EndChar

StartChar: uni1A25
Encoding: 6693 6693 3
Width: 1429
VWidth: 2260
Flags: W
HStem: -20 90<108.869 240.972 515.739 677.254 985.189 1168.61> 92 90<306.028 450.261> 467 66<52.6678 151.547> 643 66<102 151.011> 656 90<234.334 355.737> 736 90<102.327 211.44 378.783 535.664 773 877.011 1123 1226.75>
VStem: -19 66<538.668 635.741> 9 90<75.7751 272.904> 157 66<538.453 637.547> 555 90<537.015 719.031> 843 90<295.378 616.167> 1247 90<160.746 559.713>
DStem2: 152 390 242 331 0.936473 0.350739<-86.163 438.315>
AnchorPoint: "BelowRight" 1179 -42 basechar 0
AnchorPoint: "BelowBase" 702 -42 basechar 0
AnchorPoint: "AboveBase" 702 883 basechar 0
LayerCount: 2
Back
SplineSet
47 588 m 3
 47 558 72 533 102 533 c 3
 132 533 157 558 157 588 c 3
 157 618 132 643 102 643 c 3
 72 643 47 618 47 588 c 3
1246 682 m 0
 1207 726 1174 747 1167 747 c 3
 1154 747 1148 744 1148 736 c 3
 1148 729 1164 710 1197 680 c 0
 1277 604 1337 513 1337 375 c 3
 1337 207 1274 -20 1074 -20 c 3
 961 -20 903 43 844 176 c 1
 764 45 679 -20 588 -20 c 3
 497 -20 425 92 378 92 c 3
 331 92 260 -20 169 -20 c 3
 78 -20 9 62 9 164 c 3
 9 256 69 359 152 390 c 2
 419 490 l 2
 524 529 555 565 555 635 c 3
 555 678 517 736 464 736 c 3
 390 736 378 656 300 656 c 3
 224 656 181 736 141 736 c 3
 96 736 71 647 71 588 c 9
 -19 588 l 1
 -19 732 56 826 141 826 c 3
 227 826 262 746 300 746 c 3
 339 746 345 826 464 826 c 3
 565 826 645 732 645 635 c 3
 645 551 582 448 504 421 c 2
 242 331 l 2
 136 295 99 236 99 164 c 3
 99 117 121 70 169 70 c 3
 216 70 287 182 378 182 c 3
 469 182 541 70 588 70 c 3
 696 70 843 312 843 439 c 3
 843 534 816 668 693 709 c 1
 717 787 751 826 795 826 c 3
 829 826 866 800 907 748 c 0
 946 698 966 656 966 622 c 3
 966 619 966 616 962 616 c 3
 957 616 935 638 896 682 c 128
 857 726 831 747 817 747 c 3
 804 747 798 744 798 736 c 3
 798 729 814 710 847 680 c 0
 890 641 933 517 933 439 c 3
 933 420 914 328 914 308 c 3
 914 203 977 70 1074 70 c 3
 1196 70 1247 226 1247 375 c 3
 1247 524 1166 668 1043 709 c 1
 1067 787 1101 826 1145 826 c 3
 1179 826 1216 800 1257 748 c 0
 1296 698 1316 656 1316 622 c 3
 1316 619 1316 616 1312 616 c 3
 1307 616 1285 638 1246 682 c 0
102 709 m 131
 167 709 223 653 223 588 c 131
 223 523 167 467 102 467 c 131
 38 467 -19 524 -19 588 c 3
 -19 653 37 709 102 709 c 131
EndSplineSet
Fore
SplineSet
102 709 m 1xf5f0
 167 709 223 653 223 588 c 3
 223 523 167 467 102 467 c 3
 38 467 -19 524 -19 588 c 3
 -19 732 56 826 141 826 c 3xf6f0
 227 826 262 746 300 746 c 3xeaf0
 339 746 345 826 464 826 c 3
 565 826 645 732 645 635 c 3
 645 551 582 448 504 421 c 2
 242 331 l 2
 136 295 99 236 99 164 c 3
 99 117 121 70 169 70 c 3
 216 70 287 182 378 182 c 3
 469 182 541 70 588 70 c 3
 696 70 843 312 843 439 c 3
 843 534 816 668 693 709 c 1
 717 787 751 826 795 826 c 3
 829 826 866 800 907 748 c 0
 946 698 966 656 966 622 c 0
 966 619 966 616 962 616 c 0
 957 616 935 638 896 682 c 0
 857 726 831 747 817 747 c 3
 804 747 798 744 798 736 c 3
 798 729 814 710 847 680 c 0
 890 641 933 517 933 439 c 3
 933 420 914 328 914 308 c 3
 914 203 977 70 1074 70 c 3
 1196 70 1247 226 1247 375 c 3
 1247 524 1166 668 1043 709 c 1
 1067 787 1101 826 1145 826 c 3
 1179 826 1216 800 1257 748 c 0
 1296 698 1316 656 1316 622 c 0
 1316 619 1316 616 1312 616 c 0
 1307 616 1285 638 1246 682 c 0
 1207 726 1174 747 1167 747 c 3
 1154 747 1148 744 1148 736 c 3
 1148 729 1164 710 1197 680 c 0
 1277 604 1337 513 1337 375 c 3
 1337 207 1274 -20 1074 -20 c 3
 961 -20 903 43 844 176 c 1
 764 45 679 -20 588 -20 c 3
 497 -20 425 92 378 92 c 3
 331 92 260 -20 169 -20 c 3
 78 -20 9 62 9 164 c 3
 9 256 69 359 152 390 c 2
 419 490 l 2
 524 529 555 565 555 635 c 3
 555 678 517 736 464 736 c 3xf5f0
 390 736 378 656 300 656 c 3xe9f0
 224 656 181 736 141 736 c 3
 126 736 113 725 102 709 c 1xf5f0
47 588 m 3
 47 558 72 533 102 533 c 3
 132 533 157 558 157 588 c 3
 157 618 132 643 102 643 c 3
 72 643 47 618 47 588 c 3
EndSplineSet
EndChar

StartChar: uni1A26
Encoding: 6694 6694 4
Width: 899
VWidth: 2260
Flags: W
HStem: -20 90<96.8477 240.692> 79 90<283.651 645.535> 736 90<212.157 580.141>
VStem: 0 90<76.1875 218.021 434.905 632.659>
AnchorPoint: "BelowRight" 649 -42 basechar 0
AnchorPoint: "BelowBase" 398 -42 basechar 0
AnchorPoint: "AboveBase" 398 883 basechar 0
LayerCount: 2
Fore
SplineSet
0 523 m 3
 0 704 188 826 398 826 c 3
 618 826 808 680 808 471 c 3
 808 463 797 402 774 288 c 1
 740 548 659 736 398 736 c 3
 251 736 90 659 90 523 c 3
 90 407 249 402 249 321 c 1
 143 244 90 172 90 139 c 3
 90 97 114 70 161 70 c 1
 189 83 311 169 449 169 c 3
 562 169 744 112 744 13 c 3
 744 4 743 -6 740 -16 c 1
 689 47 592 79 449 79 c 3
 357 79 251 20 174 -20 c 1
 65 -20 0 33 0 155 c 1
 15 190 58 260 117 329 c 1
 42 380 0 453 0 523 c 3
EndSplineSet
EndChar

StartChar: uni1A27
Encoding: 6695 6695 5
Width: 982
VWidth: 2249
Flags: W
HStem: -20 90<274.263 629.836> 736 90<267.73 629.836>
VStem: 198 90<312.741 436.058> 811 90<245.986 560.014>
AnchorPoint: "BelowRight" 732 -42 basechar 0
AnchorPoint: "BelowBase" 454 -42 basechar 0
AnchorPoint: "AboveBase" 454 883 basechar 0
LayerCount: 2
Back
SplineSet
97 403 m 0
 97 219 257 70 454 70 c 0
 651 70 811 219 811 403 c 0
 811 587 651 736 454 736 c 0
 257 736 97 587 97 403 c 0
7 403 m 0
 7 636 207 826 454 826 c 0
 701 826 901 636 901 403 c 0
 901 170 701 -20 454 -20 c 0
 207 -20 7 170 7 403 c 0
EndSplineSet
Fore
SplineSet
901 403 m 3
 901 169 701 -20 454 -20 c 3
 248 -20 82 120 27 215 c 1
 135 293 198 338 198 391 c 3
 198 443 115 451 -3 453 c 1
 43 664 192 826 454 826 c 3
 701 826 901 637 901 403 c 3
157 198 m 1
 209 148 305 70 454 70 c 3
 651 70 811 219 811 403 c 3
 811 587 651 736 454 736 c 3
 305 736 186 671 119 535 c 1
 241 523 288 460 288 391 c 3
 288 316 246 270 157 198 c 1
EndSplineSet
EndChar

StartChar: uni1A28
Encoding: 6696 6696 6
Width: 998
VWidth: 2260
Flags: W
HStem: -20 90<370.127 663.543> -20 66<114.933 209.525> 146 66<114.933 228.028> 252 66<147.668 247.14> 428 66<147.453 245.287> 602 80<10.635 128.83> 736 90<282.417 635.8>
VStem: 1 95<616.812 720.199> 45 66<49.9329 142.067> 76 66<323.668 422.547> 251 90<194.696 426.792> 815 90<236.848 557.845>
AnchorPoint: "BelowRight" 748 -42 basechar 0
AnchorPoint: "BelowBase" 471 -42 basechar 0
AnchorPoint: "AboveBase" 471 883 basechar 0
LayerCount: 2
Back
SplineSet
142 373 m 3x3e70
 142 343 167 318 197 318 c 3
 227 318 252 343 252 373 c 3
 252 403 227 428 197 428 c 3
 167 428 142 403 142 373 c 3x3e70
197 494 m 3
 262 494 318 438 318 373 c 3
 318 308 262 252 197 252 c 3
 133 252 76 309 76 373 c 3
 76 438 132 494 197 494 c 3
161 146 m 3
 133 146 111 124 111 96 c 3x7e84
 111 68 133 46 161 46 c 3
 234 46 251 205 251 253 c 3x3e0c
 251 312 240 364 223 390 c 1
 298 438 l 17
 328 394 341 330 341 253 c 3x3e10
 341 154 282 -20 161 -20 c 3
 97 -20 45 32 45 96 c 3
 45 160 97 212 161 212 c 3
 307 212 339 70 532 70 c 3
 691 70 815 251 815 403 c 3
 815 580 658 736 471 736 c 3
 419 736 330 712 218 668 c 0
 106 624 39 602 19 602 c 3
 7 602 1 610 1 625 c 3
 1 682 38 729 112 764 c 0
 139 777 200 795 296 820 c 1
 185 756 l 2
 128 723 96 696 96 686 c 3
 96 682 101 682 108 682 c 3
 122 682 155 701 207 738 c 0
 307 811 334 826 471 826 c 3
 706 826 905 634 905 403 c 3
 905 186 729 -20 532 -20 c 3xbf
 286 -20 261 146 161 146 c 3
EndSplineSet
Fore
SplineSet
142 373 m 3x3e70
 142 343 167 318 197 318 c 3
 227 318 252 343 252 373 c 3
 252 403 227 428 197 428 c 3
 167 428 142 403 142 373 c 3x3e70
229 118 m 1
 208 135 187 146 161 146 c 3
 133 146 111 124 111 96 c 3
 111 68 133 46 161 46 c 3x7eb0
 194 46 215 78 229 118 c 1
197 494 m 3
 308 494 341 372 341 253 c 3
 341 222 335 183 323 145 c 1
 375 108 432 70 532 70 c 3
 691 70 815 251 815 403 c 3
 815 580 658 736 471 736 c 3
 419 736 330 712 218 668 c 0
 106 624 39 602 19 602 c 3
 7 602 1 610 1 625 c 3
 1 682 38 729 112 764 c 0
 139 777 200 795 296 820 c 1
 185 756 l 2
 128 723 96 696 96 686 c 3
 96 682 101 682 108 682 c 3
 122 682 155 701 207 738 c 0
 307 811 334 826 471 826 c 3
 706 826 905 634 905 403 c 3
 905 186 729 -20 532 -20 c 3xbf30
 406 -20 339 24 289 66 c 1
 259 17 216 -20 161 -20 c 3
 97 -20 45 32 45 96 c 3x7eb0
 45 160 97 212 161 212 c 3
 194 212 221 204 246 193 c 1
 249 218 251 240 251 253 c 3
 251 257 251 261 251 265 c 1
 235 257 216 252 197 252 c 3
 133 252 76 309 76 373 c 3x7e70
 76 438 132 494 197 494 c 3
EndSplineSet
EndChar

StartChar: uni1A29
Encoding: 6697 6697 7
Width: 949
VWidth: 2260
Flags: W
HStem: -20 90<153.176 320.738 535.262 699.481> 66 90<346.262 509.738> 268 66<707.668 805.281> 444 66<707.023 793.557> 736 90<249.676 645.359>
VStem: 59 90<75.4612 191.162> 186 90<267.439 333.561> 636 66<339.668 438.547> 811 143<285.5 434.022> 934 20<224.208 266.753>
AnchorPoint: "BelowRight" 699 -42 basechar 0
AnchorPoint: "BelowBase" 438 -42 basechar 0
AnchorPoint: "AboveBase" 438 883 basechar 0
LayerCount: 2
Back
SplineSet
811 405 m 3
 811 422 807 450 802 474 c 0
 768 647 643 736 438 736 c 3
 220 736 144 625 98 446 c 1
 222 409 276 372 276 303 c 3
 276 223 149 179 149 144 c 3
 149 91 169 70 239 70 c 3
 278 70 353 156 428 156 c 3
 503 156 578 70 617 70 c 3
 642 70 714 123 723 136 c 1
 736 121 743 97 743 80 c 3
 743 31 669 -20 617 -20 c 3
 542 -20 467 66 428 66 c 3
 389 66 314 -20 239 -20 c 3
 124 -20 59 35 59 144 c 3
 59 237 186 284 186 303 c 3
 186 322 111 350 0 383 c 1
 28 673 174 826 438 826 c 3
 679 826 888 674 888 465 c 3
 888 360 853 268 757 268 c 3
 693 268 636 325 636 389 c 3x3e4c
 636 454 690 510 757 510 c 3
 825 510 871 472 886 459 c 0
 924 425 954 387 954 304 c 3
 954 267 947 237 934 210 c 1
 929 251 921 282 912 301 c 0
 901 324 889 349 869 379 c 0
 843 419 805 444 757 444 c 3
 727 444 702 419 702 389 c 3x3e54
 702 359 727 334 757 334 c 3
 795 334 811 359 811 405 c 3
EndSplineSet
Fore
SplineSet
876 369 m 1xbf40
 859 310 821 268 757 268 c 3
 693 268 636 325 636 389 c 3
 636 454 690 510 757 510 c 3
 770 510 782 508 794 506 c 1
 752 658 630 736 438 736 c 3
 220 736 144 625 98 446 c 1
 222 409 276 372 276 303 c 3
 276 223 149 179 149 144 c 3
 149 91 169 70 239 70 c 3xbf40
 278 70 353 156 428 156 c 3x7f40
 503 156 578 70 617 70 c 3
 642 70 714 123 723 136 c 1
 736 121 743 97 743 80 c 3
 743 31 669 -20 617 -20 c 3xbf40
 542 -20 467 66 428 66 c 3x7f40
 389 66 314 -20 239 -20 c 3
 124 -20 59 35 59 144 c 3
 59 237 186 284 186 303 c 3
 186 322 111 350 0 383 c 1
 28 673 174 826 438 826 c 3
 684 826 888 672 888 457 c 1
 925 423 954 386 954 304 c 3xbf80
 954 267 947 237 934 210 c 1
 924 291 910 315 876 369 c 1xbf40
809 433 m 1
 793 440 776 444 757 444 c 3
 727 444 702 419 702 389 c 3
 702 359 727 334 757 334 c 3
 795 334 811 359 811 405 c 0x3f80
 811 413 810 422 809 433 c 1
EndSplineSet
EndChar

StartChar: uni1A2A
Encoding: 6698 6698 8
Width: 1105
VWidth: 2260
Flags: W
HStem: -20 90<153.176 320.738 535.262 699.481> 66 90<346.262 509.738> 268 66<707.668 805.281> 444 66<707.023 793.557> 736 90<248.535 645.359> 1361 90<289.566 923.037>
VStem: 17 90<687 1205.81> 59 90<75.4612 191.162> 186 90<267.439 333.561> 636 66<339.668 438.547> 811 143<285.5 434.022> 934 20<224.208 266.753>
LayerCount: 2
Back
SplineSet
811 405 m 3xbce0
 811 422 807 450 802 474 c 0
 768 647 643 736 438 736 c 3
 220 736 144 625 98 446 c 1
 222 409 276 372 276 303 c 3
 276 223 149 179 149 144 c 3
 149 91 169 70 239 70 c 3xbde0
 278 70 353 156 428 156 c 3x7de0
 503 156 578 70 617 70 c 3
 642 70 714 123 723 136 c 1
 736 121 743 97 743 80 c 3
 743 31 669 -20 617 -20 c 3xbde0
 542 -20 467 66 428 66 c 3x7de0
 389 66 314 -20 239 -20 c 3
 124 -20 59 35 59 144 c 3
 59 237 186 284 186 303 c 3
 186 322 111 350 0 383 c 1
 28 673 174 826 438 826 c 3
 679 826 888 674 888 465 c 3
 888 360 853 268 757 268 c 3
 693 268 636 325 636 389 c 3
 636 454 690 510 757 510 c 3
 825 510 871 472 886 459 c 0
 924 425 954 387 954 304 c 3xbde0
 954 267 947 237 934 210 c 1xbcd0
 929 251 921 282 912 301 c 0
 901 324 889 349 869 379 c 0
 843 419 805 444 757 444 c 3
 727 444 702 419 702 389 c 3
 702 359 727 334 757 334 c 3
 795 334 811 359 811 405 c 3xbce0
1190 1211 m 1
 973 1326 939 1361 593 1361 c 3
 271 1361 107 1282 107 1025 c 2
 107 603 l 2
 107 572 102 551 91 538 c 0
 54 494 17 472 17 472 c 1
 17 472 17 503 17 564 c 2
 17 1025 l 2x3ec0
 17 1346 240 1451 593 1451 c 3
 912 1451 1107 1362 1190 1211 c 1
EndSplineSet
Fore
SplineSet
1190 1211 m 1xbec0
 973 1326 939 1361 593 1361 c 3
 271 1361 107 1282 107 1025 c 2
 107 687 l 1
 181 779 291 826 438 826 c 3
 684 826 888 672 888 457 c 1
 925 423 954 386 954 304 c 3xbee0
 954 267 947 237 934 210 c 1
 924 291 910 315 876 369 c 1
 859 310 821 268 757 268 c 3
 693 268 636 325 636 389 c 3
 636 454 690 510 757 510 c 3
 770 510 782 508 794 506 c 1
 752 658 630 736 438 736 c 3
 220 736 144 625 98 446 c 1
 222 409 276 372 276 303 c 3
 276 223 149 179 149 144 c 3
 149 91 169 70 239 70 c 3xbdd0
 278 70 353 156 428 156 c 3x7dd0
 503 156 578 70 617 70 c 3
 642 70 714 123 723 136 c 1
 736 121 743 97 743 80 c 3
 743 31 669 -20 617 -20 c 3xbdd0
 542 -20 467 66 428 66 c 3x7dd0
 389 66 314 -20 239 -20 c 3
 124 -20 59 35 59 144 c 3xbdd0
 59 237 186 284 186 303 c 3
 186 322 111 350 0 383 c 1
 4 421 9 457 17 490 c 1
 17 1025 l 2
 17 1346 240 1451 593 1451 c 3
 912 1451 1107 1362 1190 1211 c 1xbec0
809 433 m 1
 793 440 776 444 757 444 c 3
 727 444 702 419 702 389 c 3
 702 359 727 334 757 334 c 3
 795 334 811 359 811 405 c 3
 811 413 810 422 809 433 c 1
EndSplineSet
EndChar

StartChar: uni1A2B
Encoding: 6699 6699 9
Width: 1220
VWidth: 2260
Flags: W
HStem: -251 90<675.163 791.408 887.768 1002.05> -20 90<153.176 320.738> 66 90<346.262 509.665> 268 66<707.668 805.281> 444 66<707.023 793.557> 736 90<249.676 645.359> 894 66<813.985 950.703>
VStem: 59 90<75.4612 191.162> 186 90<267.439 333.561> 584 90<-159.429 -13.7984> 636 66<339.668 438.547> 811 143<285.5 434.022> 934 20<224.208 266.753> 1010 90<-158.566 669.504>
AnchorPoint: "BelowRight" 970 -281 basechar 0
AnchorPoint: "BelowBase" 348 -42 basechar 0
AnchorPoint: "AboveBase" 438 883 basechar 0
LayerCount: 2
Back
SplineSet
811 405 m 3
 811 422 807 450 802 474 c 0
 768 647 643 736 438 736 c 3
 220 736 144 625 98 446 c 1
 222 409 276 372 276 303 c 3
 276 223 149 179 149 144 c 3
 149 91 169 70 239 70 c 3
 278 70 353 156 428 156 c 3
 503 156 578 70 617 70 c 3
 642 70 714 123 723 136 c 1
 736 121 743 97 743 80 c 3
 743 31 669 -20 617 -20 c 3
 542 -20 467 66 428 66 c 3
 389 66 314 -20 239 -20 c 3
 124 -20 59 35 59 144 c 3
 59 237 186 284 186 303 c 3
 186 322 111 350 0 383 c 1
 28 673 174 826 438 826 c 3
 679 826 888 674 888 465 c 3
 888 360 853 268 757 268 c 3
 693 268 636 325 636 389 c 3x3e4c
 636 454 690 510 757 510 c 3
 825 510 871 472 886 459 c 0
 924 425 954 387 954 304 c 3
 954 267 947 237 934 210 c 1
 929 251 921 282 912 301 c 0
 901 324 889 349 869 379 c 0
 843 419 805 444 757 444 c 3
 727 444 702 419 702 389 c 3x3e54
 702 359 727 334 757 334 c 3
 795 334 811 359 811 405 c 3
730 -251 m 3
 649 -251 584 -210 584 -125 c 3
 584 -59 646 91 704 91 c 0
 708 91 743 90 743 80 c 3
 743 15 674 -70 674 -125 c 3
 674 -150 690 -161 730 -161 c 3
 766 -161 794 -92 841 -92 c 3
 888 -92 907 -161 952 -161 c 3
 991 -161 1010 -120 1010 -62 c 2
 1010 541 l 2
 1010 601 987 653 940 698 c 0
 929 709 886 740 811 793 c 0
 764 825 741 855 741 884 c 0
 741 934 773 960 837 960 c 0
 947 960 1056 871 1164 696 c 1
 1090 762 1042 803 1019 820 c 0
 952 869 897 894 852 894 c 0
 836 894 823 890 813 882 c 1
 924 805 l 2
 995 756 1039 721 1060 681 c 0
 1080 642 1100 583 1100 504 c 2
 1100 -62 l 2
 1100 -181 1039 -251 952 -251 c 3
 906 -251 872 -222 841 -193 c 1
 811 -221 776 -251 730 -251 c 3
EndSplineSet
Fore
SplineSet
730 -251 m 3xdfd4
 649 -251 584 -210 584 -125 c 3
 584 -98 594 -59 610 -20 c 1xdfd4
 537 -15 466 66 428 66 c 3xbfd4
 389 66 314 -20 239 -20 c 3
 124 -20 59 35 59 144 c 3
 59 237 186 284 186 303 c 3
 186 322 111 350 0 383 c 1
 28 673 174 826 438 826 c 3
 684 826 888 672 888 457 c 1
 925 423 954 386 954 304 c 3xdfd4
 954 267 947 237 934 210 c 1
 924 291 910 315 876 369 c 1
 859 310 821 268 757 268 c 3
 693 268 636 325 636 389 c 3
 636 454 690 510 757 510 c 3
 770 510 782 508 794 506 c 1
 752 658 630 736 438 736 c 3
 220 736 144 625 98 446 c 1
 222 409 276 372 276 303 c 3
 276 223 149 179 149 144 c 3
 149 91 169 70 239 70 c 3xdfac
 278 70 353 156 428 156 c 3xbfac
 503 156 578 70 617 70 c 3
 642 70 714 123 723 136 c 1
 736 121 743 97 743 80 c 3
 743 15 674 -70 674 -125 c 3
 674 -150 690 -161 730 -161 c 3
 766 -161 794 -92 841 -92 c 3
 888 -92 907 -161 952 -161 c 3
 991 -161 1010 -120 1010 -62 c 2
 1010 541 l 2
 1010 601 987 653 940 698 c 0
 929 709 886 740 811 793 c 0
 764 825 741 855 741 884 c 3
 741 934 773 960 837 960 c 3
 947 960 1056 871 1164 696 c 1
 1090 762 1042 803 1019 820 c 0
 952 869 897 894 852 894 c 3
 836 894 823 890 813 882 c 1
 924 805 l 2
 995 756 1039 721 1060 681 c 0
 1080 642 1100 583 1100 504 c 2
 1100 -62 l 2
 1100 -181 1039 -251 952 -251 c 3
 906 -251 872 -222 841 -193 c 1
 811 -221 776 -251 730 -251 c 3xdfd4
809 433 m 1
 793 440 776 444 757 444 c 3
 727 444 702 419 702 389 c 3x9fb4
 702 359 727 334 757 334 c 3
 795 334 811 359 811 405 c 3
 811 413 810 422 809 433 c 1
EndSplineSet
EndChar

StartChar: uni1A2C
Encoding: 6700 6700 10
Width: 1305
VWidth: 2260
Flags: W
HStem: -778 90<307.559 875.649> -20 90<728.017 928.433> 421 66<86.6678 185.547> 736 90<197.877 552.848> 770 56<903.249 1003.08>
VStem: -2 90<-519.104 -219.608> 15 66<492.668 591.11> 191 66<492.453 591.499> 700 90<226.234 588.266> 1092 90<237.402 552.989>
AnchorPoint: "BelowRight" 1055 -42 basechar 0
AnchorPoint: "BelowBase" 745 -42 basechar 0
AnchorPoint: "AboveBase" 745 883 basechar 0
LayerCount: 2
Back
SplineSet
799 687 m 1
 817 745 874 826 939 826 c 3
 966 826 998 812 1027 779 c 2
 1097 698 l 1
 1097 687 l 1
 1075 712 951 770 929 770 c 3
 920 770 903 750 903 750 c 1
 1088 685 1182 529 1182 386 c 3
 1182 210 1050 -20 685 -20 c 3
 584 -20 471 -40 376 -73 c 0
 214 -130 88 -189 88 -382 c 3
 88 -597 340 -688 570 -688 c 3
 755 -688 1028 -625 1157 -568 c 1
 1016 -708 821 -778 570 -778 c 3
 279 -778 -2 -649 -2 -382 c 3
 -2 -169 114 -68 346 13 c 0
 540 81 700 174 700 412 c 3
 700 597 584 736 387 736 c 3
 244 736 105 676 105 542 c 1
 15 542 l 1
 15 720 171 826 387 826 c 3
 608 826 790 674 790 412 c 3
 790 375 781 258 757 183 c 2
 757 183 728 98 728 91 c 0
 728 77 751 70 796 70 c 3
 943 70 1092 226 1092 386 c 3
 1092 534 994 688 830 688 c 3
 820 688 810 688 799 687 c 1
81 542 m 3x3e54
 81 512 106 487 136 487 c 3
 166 487 191 512 191 542 c 3
 191 572 166 597 136 597 c 3
 106 597 81 572 81 542 c 3x3e54
136 663 m 3
 201 663 257 607 257 542 c 3
 257 477 201 421 136 421 c 3
 72 421 15 478 15 542 c 3x3e4c
 15 607 71 663 136 663 c 3
EndSplineSet
Fore
SplineSet
81 542 m 3xe3c0
 81 512 106 487 136 487 c 3
 166 487 191 512 191 542 c 3
 191 572 166 597 136 597 c 3
 106 597 81 572 81 542 c 3xe3c0
156 661 m 1
 212 651 257 600 257 542 c 3
 257 477 201 421 136 421 c 3
 72 421 15 478 15 542 c 3
 15 720 171 826 387 826 c 3xf3c0
 608 826 790 674 790 412 c 3
 790 375 781 258 757 183 c 2
 757 183 728 98 728 91 c 3
 728 77 751 70 796 70 c 3
 943 70 1092 226 1092 386 c 3
 1092 534 994 688 830 688 c 3
 820 688 810 688 799 687 c 1
 817 745 874 826 939 826 c 3
 966 826 998 812 1027 779 c 2
 1097 698 l 1
 1097 687 l 1
 1075 712 951 770 929 770 c 3xebc0
 920 770 903 750 903 750 c 1
 1088 685 1182 529 1182 386 c 3
 1182 210 1050 -20 685 -20 c 3
 584 -20 471 -40 376 -73 c 0
 214 -130 88 -189 88 -382 c 3
 88 -597 340 -688 570 -688 c 3
 755 -688 1028 -625 1157 -568 c 1
 1016 -708 821 -778 570 -778 c 3
 279 -778 -2 -649 -2 -382 c 3
 -2 -169 114 -68 346 13 c 0
 540 81 700 174 700 412 c 3
 700 597 584 736 387 736 c 3xf5c0
 297 736 209 712 156 661 c 1
EndSplineSet
EndChar

StartChar: uni1A2D
Encoding: 6701 6701 11
Width: 1065
VWidth: 2260
Flags: W
HStem: -20 90<130.227 271.11 553.127 742.495> 125 90<364.152 463.218> 584 66<197.988 297.547> 760 66<200.243 297.547 628.941 776.108>
VStem: 9 90<98.8256 298.018 544.009 688.197> 104 90<340.444 500.209> 303 66<655.453 754.547> 528 100<713.5 769.593> 870 90<199.286 524.69>
AnchorPoint: "BelowRight" 815 -42 basechar 0
AnchorPoint: "BelowBase" 484 -42 basechar 0
AnchorPoint: "AboveBase" 484 883 basechar 0
LayerCount: 2
Back
SplineSet
528 718 m 3xf7c0
 528 777 603 826 666 826 c 3xefc0
 700 826 754 806 829 769 c 0
 931 718 938 701 953 669 c 1
 950 669 913 686 837 720 c 0
 762 754 707 770 674 770 c 3
 643 770 628 762 628 745 c 3
 628 742 629 739 632 738 c 0
 849 681 960 561 960 355 c 3
 960 142 790 -20 611 -20 c 3
 494 -20 459 125 414 125 c 3
 368 125 334 -20 208 -20 c 3
 89 -20 9 92 9 209 c 3
 9 314 104 369 104 420 c 3
 104 485 9 519 9 615 c 3
 9 731 104 826 248 826 c 1
 248 736 l 1
 167 736 99 691 99 615 c 3
 99 564 194 529 194 420 c 3
 194 328 99 274 99 209 c 3
 99 135 148 70 208 70 c 3
 278 70 304 215 414 215 c 3
 523 215 550 70 611 70 c 3
 715 70 870 169 870 355 c 3
 870 538 761 652 540 701 c 0
 532 703 528 709 528 718 c 3xf7c0
193 705 m 3
 193 675 218 650 248 650 c 3
 278 650 303 675 303 705 c 3
 303 735 278 760 248 760 c 3
 218 760 193 735 193 705 c 3
248 826 m 3xf7c0
 313 826 369 770 369 705 c 3
 369 640 313 584 248 584 c 3
 184 584 127 641 127 705 c 3
 127 770 183 826 248 826 c 3xf7c0
EndSplineSet
Fore
SplineSet
193 705 m 3
 193 675 218 650 248 650 c 3
 278 650 303 675 303 705 c 3
 303 735 278 760 248 760 c 3
 218 760 193 735 193 705 c 3
248 826 m 3
 313 826 369 770 369 705 c 3
 369 640 313 584 248 584 c 3
 189 584 136 632 128 690 c 1
 110 670 99 645 99 615 c 3
 99 564 194 529 194 420 c 3
 194 328 99 274 99 209 c 3
 99 135 148 70 208 70 c 3
 278 70 304 215 414 215 c 3
 523 215 550 70 611 70 c 3
 715 70 870 169 870 355 c 3
 870 538 761 652 540 701 c 0
 532 703 528 709 528 718 c 3
 528 777 603 826 666 826 c 3
 700 826 754 806 829 769 c 0
 931 718 938 701 953 669 c 1
 950 669 913 686 837 720 c 0
 762 754 707 770 674 770 c 3
 643 770 628 762 628 745 c 3
 628 742 629 739 632 738 c 0
 849 681 960 561 960 355 c 3
 960 142 790 -20 611 -20 c 3
 494 -20 459 125 414 125 c 3
 368 125 334 -20 208 -20 c 3
 89 -20 9 92 9 209 c 3
 9 314 104 369 104 420 c 3
 104 485 9 519 9 615 c 3
 9 731 104 826 248 826 c 3
EndSplineSet
EndChar

StartChar: uni1A2E
Encoding: 6702 6702 12
Width: 1073
VWidth: 2260
Flags: W
HStem: -540 90<142.828 668.656> -153 90<151.044 580.687> -20 90<163.361 521.776> 456 90<552.593 704.009> 736 90<227.748 688.76>
VStem: -11 90<-392.96 -215.461 481.728 626.465> 13 90<126.766 269.597> 596 90<137.293 326.54> 746 90<-376.245 414.408> 895 59<330.7 502.183>
AnchorPoint: "BelowRight" 823 -540 basechar 0
AnchorPoint: "BelowBase" 405 -570 basechar 0
AnchorPoint: "AboveBase" 465 883 basechar 0
LayerCount: 2
Fore
SplineSet
393 -153 m 3xfdc0
 194 -153 79 -206 79 -299 c 3xfdc0
 79 -406 184 -450 405 -450 c 3
 653 -450 746 -403 746 -244 c 2
 746 223 l 2
 746 332 719 456 629 456 c 3
 605 456 579 447 551 428 c 1
 641 394 686 345 686 239 c 3
 686 82 551 -20 342 -20 c 3
 158 -20 13 72 13 208 c 3
 13 272 50 303 123 371 c 1
 55 408 -2 459 -2 551 c 3
 -2 721 225 826 465 826 c 3
 755 826 954 673 954 424 c 3
 954 345 934 303 895 258 c 1
 873 495 889 561 735 667 c 0
 663 716 564 736 465 736 c 3
 290 736 88 663 88 551 c 3
 88 457 226 450 226 371 c 3
 226 314 103 253 103 208 c 3xfbc0
 103 119 227 70 342 70 c 3
 483 70 596 127 596 239 c 3
 596 308 551 339 455 373 c 0
 437 380 428 384 428 386 c 3
 428 460 523 546 629 546 c 3
 749 546 836 442 836 223 c 2
 836 -244 l 2
 836 -465 695 -540 405 -540 c 3
 140 -540 -11 -473 -11 -299 c 3
 -11 -150 132 -63 393 -63 c 3
 565 -63 624 -127 711 -239 c 1
 545 -164 508 -153 393 -153 c 3xfdc0
EndSplineSet
EndChar

StartChar: uni1A2F
Encoding: 6703 6703 13
Width: 962
VWidth: 2260
Flags: W
HStem: -20 90<106.223 337.219> 70 90<368.328 656.254> 389 66<81.6678 180.547> 736 90<251.031 628.256>
VStem: 10 66<460.668 559.274> 16 90<71.2924 144.79> 186 66<460.453 559.486> 661 90<-266.674 61.1558> 741 90<413.401 640.8>
DStem2: 123 231 180 155 0.959149 0.282901<-52.2534 643.908> 255 95 280 3 0.972479 0.23299<-120.847 310.402>
AnchorPoint: "BelowRight" 270 -42 basechar 0
AnchorPoint: "BelowBase" 420 -42 basechar 0
AnchorPoint: "AboveBase" 420 883 basechar 0
LayerCount: 2
Back
SplineSet
280 3 m 2
 228 -11 175 -20 136 -20 c 3
 71 -20 16 36 16 103 c 3xf7
 16 151 48 209 123 231 c 2
 618 377 l 2
 695 400 741 423 741 532 c 3
 741 675 576 736 420 736 c 3
 266 736 100 618 100 510 c 1
 10 510 l 1
 10 686 233 826 420 826 c 3
 638 826 831 727 831 532 c 3xfa80
 831 376 769 329 597 278 c 2
 180 155 l 2
 123 138 106 122 106 103 c 3
 106 89 120 70 136 70 c 3
 151 70 190 79 255 95 c 2
 447 141 l 2
 506 155 550 160 582 160 c 3
 693 160 757 88 757 -46 c 3
 757 -81 751 -138 751 -156 c 3
 751 -219 785 -275 864 -322 c 1
 855 -325 846 -326 839 -326 c 3
 739 -326 661 -256 661 -156 c 3xf7
 661 -136 667 -66 667 -46 c 3
 667 45 636 70 582 70 c 3
 543 70 511 61 467 50 c 2
 280 3 l 2
76 510 m 3xfa
 76 480 101 455 131 455 c 3
 161 455 186 480 186 510 c 3
 186 540 161 565 131 565 c 3
 101 565 76 540 76 510 c 3xfa
131 631 m 3
 196 631 252 575 252 510 c 3
 252 445 196 389 131 389 c 3
 67 389 10 446 10 510 c 3
 10 575 66 631 131 631 c 3
EndSplineSet
Fore
SplineSet
76 510 m 3x3a
 76 480 101 455 131 455 c 3
 161 455 186 480 186 510 c 3
 186 540 161 565 131 565 c 3
 101 565 76 540 76 510 c 3x3a
159 627 m 1
 211 614 252 565 252 510 c 3
 252 445 196 389 131 389 c 3
 67 389 10 446 10 510 c 3xba80
 10 686 233 826 420 826 c 3
 638 826 831 727 831 532 c 3
 831 376 769 329 597 278 c 2
 180 155 l 2
 123 138 106 122 106 103 c 3
 106 89 120 70 136 70 c 3xb680
 151 70 190 79 255 95 c 2
 447 141 l 2
 506 155 550 160 582 160 c 3
 693 160 757 88 757 -46 c 3
 757 -81 751 -138 751 -156 c 3
 751 -219 785 -275 864 -322 c 1
 855 -325 846 -326 839 -326 c 3
 739 -326 661 -256 661 -156 c 3
 661 -136 667 -66 667 -46 c 3
 667 45 636 70 582 70 c 3x77
 543 70 511 61 467 50 c 2
 280 3 l 2
 228 -11 175 -20 136 -20 c 3
 71 -20 16 36 16 103 c 3
 16 151 48 209 123 231 c 2
 618 377 l 2
 695 400 741 423 741 532 c 3xb680
 741 675 576 736 420 736 c 3
 323 736 221 689 159 627 c 1
EndSplineSet
EndChar

StartChar: uni1A30
Encoding: 6704 6704 14
Width: 1299
VWidth: 2260
Flags: W
HStem: -20 90<112.597 341.929 843.304 1022.95> 128 90<513.375 746.664> 467 66<67.6678 166.547> 618 90<304.621 415.995> 643 66<121 165.859> 736 90<122.101 235.554 486.368 617.081 956.5 1069.12>
VStem: -4 66<538.668 637.199> 22 90<73.8192 204.68> 172 66<538.453 637.177> 658 90<472.639 696.969> 1157 90<216.154 543.66>
DStem2: 242 342 268 255 0.955908 0.293665<-168.197 428.445> 380 129 413 45 0.933217 0.359313<-195.506 259.095>
AnchorPoint: "BelowRight" 1049 -42 basechar 0
AnchorPoint: "BelowBase" 703 -42 basechar 0
AnchorPoint: "AboveBase" 703 883 basechar 0
LayerCount: 2
Back
SplineSet
62 588 m 3xeee0
 62 558 87 533 117 533 c 3
 147 533 172 558 172 588 c 3
 172 618 147 643 117 643 c 3
 87 643 62 618 62 588 c 3xeee0
117 709 m 3
 182 709 238 653 238 588 c 3
 238 523 182 467 117 467 c 3
 53 467 -4 524 -4 588 c 3
 -4 653 52 709 117 709 c 3
600 117 m 2
 413 45 l 2
 312 6 254 -20 191 -20 c 3
 78 -20 22 33 22 121 c 3xf5e0
 22 204 60 286 242 342 c 2
 560 439 l 2
 615 456 658 513 658 584 c 3
 658 652 601 736 556 736 c 3
 491 736 458 618 360 618 c 3
 254 618 233 736 175 736 c 3
 117 736 86 663 86 588 c 9xf6e0
 -4 588 l 1
 -4 702 53 826 175 826 c 3
 283 826 312 708 360 708 c 3
 405 708 440 826 556 826 c 3
 658 826 748 697 748 584 c 3
 748 489 694 386 587 353 c 2
 268 255 l 2
 137 215 112 171 112 121 c 3xf5e0
 112 86 128 70 191 70 c 3
 238 70 298 97 380 129 c 2
 567 201 l 2
 608 217 638 218 659 218 c 3
 795 218 851 70 906 70 c 3
 1040 70 1157 229 1157 381 c 3
 1157 437 1135 527 1093 570 c 0
 1074 590 1036 624 959 673 c 0
 933 690 921 695 921 718 c 3
 921 764 943 826 970 826 c 3
 1016 826 1054 792 1116 747 c 0
 1168 709 1198 680 1208 661 c 1
 1198 646 l 1
 1110 715 1053 747 1028 747 c 3
 1018 747 1013 731 1013 731 c 1
 1112 684 1247 541 1247 381 c 3
 1247 181 1092 -20 906 -20 c 3
 789 -20 757 128 659 128 c 3
 638 128 626 127 600 117 c 2
EndSplineSet
Fore
SplineSet
62 588 m 3xeee0
 62 558 87 533 117 533 c 3
 147 533 172 558 172 588 c 3
 172 618 147 643 117 643 c 3
 87 643 62 618 62 588 c 3xeee0
-4 588 m 3
 -4 702 53 826 175 826 c 3
 283 826 312 708 360 708 c 3
 405 708 440 826 556 826 c 3
 658 826 748 697 748 584 c 3
 748 489 694 386 587 353 c 2
 268 255 l 2
 137 215 112 171 112 121 c 3
 112 86 128 70 191 70 c 3
 238 70 298 97 380 129 c 2
 567 201 l 2
 608 217 638 218 659 218 c 3
 795 218 851 70 906 70 c 3
 1040 70 1157 229 1157 381 c 3
 1157 437 1135 527 1093 570 c 0
 1074 590 1036 624 959 673 c 0
 933 690 921 695 921 718 c 3
 921 764 943 826 970 826 c 3
 1016 826 1054 792 1116 747 c 0
 1168 709 1198 680 1208 661 c 1
 1198 646 l 1
 1110 715 1053 747 1028 747 c 3
 1018 747 1013 731 1013 731 c 1
 1112 684 1247 541 1247 381 c 3
 1247 181 1092 -20 906 -20 c 3
 789 -20 757 128 659 128 c 3
 638 128 626 127 600 117 c 2
 413 45 l 2
 312 6 254 -20 191 -20 c 3
 78 -20 22 33 22 121 c 3
 22 204 60 286 242 342 c 2
 560 439 l 2
 615 456 658 513 658 584 c 3
 658 652 601 736 556 736 c 3
 491 736 458 618 360 618 c 3xf5e0
 254 618 233 736 175 736 c 3
 153 736 135 726 121 709 c 1
 184 707 238 652 238 588 c 3
 238 523 182 467 117 467 c 3
 53 467 -4 524 -4 588 c 3
EndSplineSet
EndChar

StartChar: uni1A31
Encoding: 6705 6705 15
Width: 1574
VWidth: 2260
Flags: W
HStem: -20 90<676.123 901.877> -20 66<280.925 377.547> 156 66<278.692 377.547> 736 90<235.908 551.607 1019.32 1297.11>
VStem: 4 90<204.372 582.789> 383 66<51.453 150.547> 543 90<115.087 333.559> 658 90<404.58 637.795> 830 90<404.58 644.214> 945 90<115.087 333.559> 1436 90<280.015 587.105>
AnchorPoint: "BelowRight" 1324 -42 basechar 0
AnchorPoint: "BelowBase" 789 -42 basechar 0
AnchorPoint: "AboveBase" 789 883 basechar 0
LayerCount: 2
Back
SplineSet
328 222 m 3
 393 222 449 166 449 101 c 3
 449 36 393 -20 328 -20 c 3
 264 -20 207 37 207 101 c 3x3e4c
 207 166 263 222 328 222 c 3
273 101 m 3x3e54
 273 71 298 46 328 46 c 3
 358 46 383 71 383 101 c 3
 383 131 358 156 328 156 c 3
 298 156 273 131 273 101 c 3x3e54
396 826 m 3
 575 826 748 701 748 520 c 3
 748 399 633 305 633 222 c 3
 633 132 703 70 789 70 c 3
 875 70 945 132 945 222 c 3
 945 305 830 399 830 520 c 3
 830 701 993 826 1168 826 c 3
 1363 826 1526 635 1526 431 c 3
 1526 307 1445 194 1286 87 c 1
 1328 93 1381 125 1444 184 c 1
 1381 48 1310 -20 1231 -20 c 3
 1165 -20 1132 -5 1132 25 c 3
 1132 41 1148 61 1180 84 c 2
 1282 158 l 2
 1388 235 1436 328 1436 431 c 3
 1436 594 1304 736 1168 736 c 3
 1053 736 920 657 920 520 c 3
 920 439 1035 331 1035 222 c 3
 1035 72 915 -20 789 -20 c 3
 663 -20 543 72 543 222 c 3
 543 331 658 439 658 520 c 3
 658 634 543 736 396 736 c 3
 206 736 94 591 94 400 c 3
 94 235 182 70 328 70 c 1
 328 -20 l 1
 135 -20 4 176 4 400 c 3
 4 651 163 826 396 826 c 3
EndSplineSet
Fore
SplineSet
273 101 m 3x7fe0
 273 71 298 46 328 46 c 3
 358 46 383 71 383 101 c 3
 383 131 358 156 328 156 c 3
 298 156 273 131 273 101 c 3x7fe0
328 222 m 3
 393 222 449 166 449 101 c 3
 449 36 393 -20 328 -20 c 3x7fe0
 135 -20 4 176 4 400 c 3
 4 651 163 826 396 826 c 3
 575 826 748 701 748 520 c 3
 748 399 633 305 633 222 c 3
 633 132 703 70 789 70 c 3xbfe0
 875 70 945 132 945 222 c 3
 945 305 830 399 830 520 c 3
 830 701 993 826 1168 826 c 3
 1363 826 1526 635 1526 431 c 3
 1526 307 1445 194 1286 87 c 1
 1328 93 1381 125 1444 184 c 1
 1381 48 1310 -20 1231 -20 c 3x7fe0
 1165 -20 1132 -5 1132 25 c 3
 1132 41 1148 61 1180 84 c 2
 1282 158 l 2
 1388 235 1436 328 1436 431 c 3
 1436 594 1304 736 1168 736 c 3
 1053 736 920 657 920 520 c 3
 920 439 1035 331 1035 222 c 3
 1035 72 915 -20 789 -20 c 3xbfe0
 663 -20 543 72 543 222 c 3
 543 331 658 439 658 520 c 3
 658 634 543 736 396 736 c 3
 206 736 94 591 94 400 c 3
 94 287 135 174 208 114 c 1
 215 173 267 222 328 222 c 3
EndSplineSet
EndChar

StartChar: uni1A32
Encoding: 6706 6706 16
Width: 1421
VWidth: 2240
Flags: W
HStem: -20 90<232.47 507.53 1002.24 1141.36> 736 90<232.47 509.419 856.966 1111.13>
VStem: 0 90<226.331 579.669> 650 90<229.185 580.753> 974 100<70.0037 111.338> 1233 90<310.345 609.324>
AnchorPoint: "BelowRight" 1171 -42 basechar 0
AnchorPoint: "BelowBase" 690 -42 basechar 0
AnchorPoint: "AboveBase" 690 883 basechar 0
LayerCount: 2
Back
SplineSet
740 403 m 1
 650 403 l 17
 650 636 782 826 986 826 c 3
 1155 826 1323 667 1323 456 c 3
 1323 286 1158 130 1074 83 c 1
 1074 75 1077 70 1084 70 c 3
 1110 70 1170 101 1265 160 c 1
 1234 91 1119 -19 1030 -20 c 0
 992 -20 974 -2 974 33 c 3
 974 70 996 110 1041 152 c 0
 1127 233 1233 316 1233 456 c 3
 1233 612 1107 736 986 736 c 3
 835 736 740 583 740 403 c 1
90 403 m 3
 90 219 215 70 370 70 c 3
 525 70 650 219 650 403 c 3
 650 587 525 736 370 736 c 3
 215 736 90 587 90 403 c 3
0 403 m 3
 0 636 166 826 370 826 c 3
 574 826 740 636 740 403 c 3
 740 170 574 -20 370 -20 c 3
 166 -20 0 170 0 403 c 3
EndSplineSet
Fore
SplineSet
0 403 m 3
 0 636 166 826 370 826 c 3
 507 826 627 741 691 614 c 1
 745 741 849 826 986 826 c 3
 1155 826 1323 667 1323 456 c 3
 1323 286 1158 130 1074 83 c 1
 1074 75 1077 70 1084 70 c 3
 1110 70 1170 101 1265 160 c 1
 1234 91 1119 -19 1030 -20 c 3
 992 -20 974 -2 974 33 c 3
 974 70 996 110 1041 152 c 0
 1127 233 1233 316 1233 456 c 3
 1233 612 1107 736 986 736 c 3
 835 736 740 583 740 403 c 3
 740 170 574 -20 370 -20 c 3
 166 -20 0 170 0 403 c 3
90 403 m 3
 90 219 215 70 370 70 c 3
 525 70 650 219 650 403 c 3
 650 587 525 736 370 736 c 3
 215 736 90 587 90 403 c 3
EndSplineSet
EndChar

StartChar: uni1A33
Encoding: 6707 6707 17
Width: 1020
VWidth: 2260
Flags: W
HStem: -20 66<308.38 404.547> 156 66<305.453 404.547> 736 90<218.173 618.011>
VStem: 3 90<132.656 291.271 450.297 639.749> 234 66<86.1551 150.547> 410 66<51.453 150.547> 819 90<233.55 548.102>
AnchorPoint: "BelowRight" 770 -42 basechar 0
AnchorPoint: "BelowBase" 424 -42 basechar 0
AnchorPoint: "AboveBase" 424 883 basechar 0
LayerCount: 2
Back
SplineSet
300 101 m 3x3e54
 300 71 325 46 355 46 c 3
 385 46 410 71 410 101 c 3
 410 131 385 156 355 156 c 3
 325 156 300 131 300 101 c 3x3e54
355 222 m 3
 420 222 476 166 476 101 c 3
 476 36 420 -20 355 -20 c 3
 291 -20 234 37 234 101 c 3x3e4c
 234 166 290 222 355 222 c 3
355 -20 m 1
 169 -20 3 63 3 210 c 3
 3 263 29 307 93 373 c 1
 18 435 0 463 0 551 c 3
 0 721 225 826 424 826 c 3
 674 826 909 658 909 380 c 3
 909 260 834 164 685 53 c 1
 590 53 l 1
 712 152 819 224 819 380 c 3
 819 595 641 736 424 736 c 3
 267 736 90 655 90 551 c 3
 90 469 148 438 247 373 c 1
 149 330 93 244 93 210 c 3
 93 110 253 70 355 70 c 1
 355 -20 l 1
EndSplineSet
Fore
SplineSet
355 222 m 3
 420 222 476 166 476 101 c 3
 476 36 420 -20 355 -20 c 3
 169 -20 3 63 3 210 c 3
 3 263 29 307 93 373 c 1
 18 435 0 463 0 551 c 3
 0 721 225 826 424 826 c 3
 674 826 909 658 909 380 c 3
 909 260 834 164 685 53 c 1
 590 53 l 1
 712 152 819 224 819 380 c 3
 819 595 641 736 424 736 c 3
 267 736 90 655 90 551 c 3
 90 469 148 438 247 373 c 1
 149 330 93 244 93 210 c 3
 93 145 160 106 235 86 c 1
 234 91 234 96 234 101 c 3
 234 166 290 222 355 222 c 3
300 101 m 3
 300 71 325 46 355 46 c 3
 385 46 410 71 410 101 c 3
 410 131 385 156 355 156 c 3
 325 156 300 131 300 101 c 3
EndSplineSet
EndChar

StartChar: uni1A34
Encoding: 6708 6708 18
Width: 1025
VWidth: 2260
Flags: W
HStem: -20 90<219.317 453.846> 146 66<423.502 476.184> 322 66<422.453 521.547> 736 90<275.253 652.149>
VStem: -2 90<215.015 562.355> 351 66<217.023 316.547> 527 66<220.279 316.547> 841 90<228.52 553.128>
AnchorPoint: "BelowRight" 775 -42 basechar 0
AnchorPoint: "BelowBase" 473 -42 basechar 0
AnchorPoint: "AboveBase" 473 883 basechar 0
LayerCount: 2
Back
SplineSet
417 267 m 3x3e54
 417 237 442 212 472 212 c 3
 502 212 527 237 527 267 c 3
 527 297 502 322 472 322 c 3
 442 322 417 297 417 267 c 3x3e54
472 388 m 3
 537 388 593 332 593 267 c 3
 593 202 537 146 472 146 c 3
 408 146 351 203 351 267 c 3x3e4c
 351 332 407 388 472 388 c 3
473 736 m 3
 265 736 88 615 88 392 c 3
 88 230 189 70 357 70 c 3
 461 70 503 172 503 267 c 1
 593 267 l 1
 593 110 509 -20 357 -20 c 3
 142 -20 -2 174 -2 392 c 3
 -2 657 205 826 473 826 c 3
 724 826 931 640 931 392 c 3
 931 198 824 69 610 -20 c 1
 490 -10 l 1
 658 53 841 188 841 392 c 3
 841 589 671 736 473 736 c 3
EndSplineSet
Fore
SplineSet
417 267 m 3
 417 237 442 212 472 212 c 3
 502 212 527 237 527 267 c 3
 527 297 502 322 472 322 c 3
 442 322 417 297 417 267 c 3
477 146 m 1
 410 146 351 200 351 267 c 3
 351 332 407 388 472 388 c 3
 537 388 593 332 593 267 c 3
 593 110 509 -20 357 -20 c 3
 142 -20 -2 174 -2 392 c 3
 -2 657 205 826 473 826 c 3
 724 826 931 640 931 392 c 3
 931 198 824 69 610 -20 c 1
 490 -10 l 1
 658 53 841 188 841 392 c 3
 841 589 671 736 473 736 c 3
 265 736 88 615 88 392 c 3
 88 230 189 70 357 70 c 3
 415 70 454 102 477 146 c 1
EndSplineSet
EndChar

StartChar: uni1A35
Encoding: 6709 6709 19
Width: 1056
VWidth: 2260
Flags: W
HStem: -20 21G<171 337.5 611.5 726> 135 90<390.945 540.039> 736 90<287.591 679.89>
VStem: 4 90<247.366 536.997> 40 69<590.756 696.124> 854 90<281.56 582.551>
AnchorPoint: "BelowRight" 806 -42 basechar 0
AnchorPoint: "AboveBase" 467 883 basechar 0
AnchorPoint: "BelowBase" 467 -42 basechar 0
LayerCount: 2
Fore
SplineSet
94 428 m 3xf4
 94 267 165 189 287 104 c 1
 339 175 388 225 467 225 c 3
 529 225 595 171 645 107 c 1
 775 199 854 313 854 438 c 3
 854 609 688 736 498 736 c 3
 393 736 260 702 159 615 c 0
 128 588 97 575 64 575 c 3
 48 575 40 586 40 606 c 3
 40 749 272 836 428 836 c 1
 328 818 109 717 109 659 c 0xec
 109 656 110 653 113 651 c 1
 216 768 345 826 498 826 c 3
 741 826 944 657 944 438 c 3
 944 266 835 111 617 -20 c 1
 606 29 511 135 467 135 c 3
 429 135 377 87 298 -20 c 1
 44 158 4 263 4 428 c 3
 4 515 53 563 130 563 c 1
 131 562 133 560 134 557 c 1
 107 522 94 473 94 428 c 3xf4
EndSplineSet
EndChar

StartChar: uni1A36
Encoding: 6710 6710 20
Width: 1028
VWidth: 2260
Flags: W
HStem: 74 90<98.2684 718.307> 316 66<658.668 757.908> 492 66<658.453 757.004> 736 90<225.712 732.927>
VStem: 3 90<133 598.646> 587 66<387.668 486.547> 860 90<455.086 635.618> 1162 32<-539.127 -451.314>
AnchorPoint: "BelowRight" 392 -42 basechar 0
AnchorPoint: "BelowBase" 484 -42 basechar 0
AnchorPoint: "AboveBase" 484 883 basechar 0
LayerCount: 2
Back
SplineSet
484 736 m 3
 175 736 93 649 93 330 c 2
 93 133 l 1
 171 149 259 164 399 164 c 3
 834 164 1194 -48 1194 -407 c 3
 1194 -472 1183 -540 1162 -612 c 1
 1157 -155 903 74 399 74 c 3
 284 74 192 62 3 27 c 1
 3 330 l 2
 3 686 107 826 484 826 c 3
 713 826 950 743 950 539 c 3
 950 403 845 316 708 316 c 1
 708 406 l 1
 789 406 860 450 860 539 c 3
 860 668 684 736 484 736 c 3
653 437 m 3x3e54
 653 407 678 382 708 382 c 3
 738 382 763 407 763 437 c 3
 763 467 738 492 708 492 c 3
 678 492 653 467 653 437 c 3x3e54
708 558 m 3
 773 558 829 502 829 437 c 3
 829 372 773 316 708 316 c 3
 644 316 587 373 587 437 c 3x3e4c
 587 502 643 558 708 558 c 3
EndSplineSet
Fore
SplineSet
653 437 m 3
 653 407 678 382 708 382 c 3
 738 382 763 407 763 437 c 3
 763 467 738 492 708 492 c 3
 678 492 653 467 653 437 c 3
708 316 m 3
 644 316 587 373 587 437 c 3
 587 502 643 558 708 558 c 3
 768 558 820 510 828 452 c 1
 848 473 860 502 860 539 c 3
 860 668 684 736 484 736 c 3
 175 736 93 649 93 330 c 2
 93 133 l 1
 171 149 259 164 399 164 c 3
 834 164 1194 -48 1194 -407 c 3
 1194 -472 1183 -540 1162 -612 c 1
 1157 -155 903 74 399 74 c 3
 284 74 192 62 3 27 c 1
 3 330 l 2
 3 686 107 826 484 826 c 3
 713 826 950 743 950 539 c 3
 950 403 845 316 708 316 c 3
EndSplineSet
EndChar

StartChar: uni1A37
Encoding: 6711 6711 21
Width: 984
VWidth: 2260
Flags: W
HStem: -20 90<239.425 634.864> 760 66<61.453 160.547>
VStem: -10 66<655.814 754.547> -3 90<203.679 471.358> 166 66<655.745 754.547> 714 119<626.148 816.272> 779 90<211.212 724.742>
AnchorPoint: "BelowRight" 734 -42 basechar 0
AnchorPoint: "BelowBase" 433 -42 basechar 0
AnchorPoint: "AboveBase" 433 883 basechar 0
LayerCount: 2
Back
SplineSet
56 705 m 3x3e54
 56 675 81 650 111 650 c 3
 141 650 166 675 166 705 c 3
 166 735 141 760 111 760 c 3
 81 760 56 735 56 705 c 3x3e54
111 826 m 3
 176 826 232 770 232 705 c 3
 232 640 176 584 111 584 c 3
 47 584 -10 641 -10 705 c 3x3e4c
 -10 770 46 826 111 826 c 3
433 70 m 3
 669 70 779 191 779 402 c 3
 779 586 743 695 714 798 c 1
 714 817 732 826 769 826 c 0
 792 826 813 787 833 708 c 0
 854 626 869 505 869 402 c 3
 869 130 709 -20 433 -20 c 3
 200 -20 -3 122 -3 331 c 3
 -3 494 142 628 142 705 c 1
 232 705 l 1
 232 593 87 460 87 331 c 3
 87 179 245 70 433 70 c 3
EndSplineSet
Fore
SplineSet
56 705 m 3xe8
 56 675 81 650 111 650 c 3
 141 650 166 675 166 705 c 3
 166 735 141 760 111 760 c 3
 81 760 56 735 56 705 c 3xe8
90 586 m 1
 35 597 -10 648 -10 705 c 3xe8
 -10 770 46 826 111 826 c 3
 176 826 232 770 232 705 c 3
 232 593 87 460 87 331 c 3
 87 179 245 70 433 70 c 3
 669 70 779 191 779 402 c 3xda
 779 586 743 695 714 798 c 1
 714 817 732 826 769 826 c 3
 792 826 813 787 833 708 c 0xcc
 854 626 869 505 869 402 c 3
 869 130 709 -20 433 -20 c 3
 200 -20 -3 122 -3 331 c 3xda
 -3 428 48 515 90 586 c 1
EndSplineSet
EndChar

StartChar: uni1A38
Encoding: 6712 6712 22
Width: 984
VWidth: 2260
Flags: W
HStem: -20 90<239.425 634.864> 760 66<61.453 160.547 694.5 783.051>
VStem: -10 66<655.814 754.547> -3 90<203.679 471.358> 166 66<655.745 754.547> 779 90<211.427 595.696>
AnchorPoint: "BelowRight" 834 -42 basechar 0
AnchorPoint: "AboveBase" 433 883 basechar 0
AnchorPoint: "BelowBase" 433 -42 basechar 0
LayerCount: 2
Back
SplineSet
56 705 m 3x3e54
 56 675 81 650 111 650 c 3
 141 650 166 675 166 705 c 3
 166 735 141 760 111 760 c 3
 81 760 56 735 56 705 c 3x3e54
111 826 m 3
 176 826 232 770 232 705 c 3
 232 640 176 584 111 584 c 3
 47 584 -10 641 -10 705 c 3x3e4c
 -10 770 46 826 111 826 c 3
582 778 m 0
 582 794 685 826 704 826 c 3
 756 826 797 802 828 754 c 0
 845 728 863 681 884 612 c 1
 802 715 749 766 725 766 c 3
 724 766 720 765 714 763 c 1
 793 691 869 581 869 402 c 3
 869 131 709 -20 433 -20 c 3
 200 -20 -3 122 -3 331 c 3
 -3 494 142 628 142 705 c 1
 232 705 l 1
 232 593 87 460 87 331 c 3
 87 179 245 70 433 70 c 3
 669 70 779 191 779 402 c 3
 779 570 723 627 635 717 c 0
 601 752 582 773 582 778 c 0
EndSplineSet
Fore
SplineSet
56 705 m 3xec
 56 675 81 650 111 650 c 3
 141 650 166 675 166 705 c 3
 166 735 141 760 111 760 c 3
 81 760 56 735 56 705 c 3xec
90 586 m 1
 35 597 -10 648 -10 705 c 3xec
 -10 770 46 826 111 826 c 3
 176 826 232 770 232 705 c 3
 232 593 87 460 87 331 c 3
 87 179 245 70 433 70 c 3
 669 70 779 191 779 402 c 3
 779 570 723 627 635 717 c 0
 601 752 582 773 582 778 c 3
 582 794 685 826 704 826 c 3
 756 826 797 802 828 754 c 0
 845 728 863 681 884 612 c 1
 802 715 749 766 725 766 c 3
 724 766 720 765 714 763 c 1
 793 691 869 581 869 402 c 3
 869 131 709 -20 433 -20 c 3
 200 -20 -3 122 -3 331 c 3xdc
 -3 428 48 515 90 586 c 1
EndSplineSet
EndChar

StartChar: uni1A39
Encoding: 6713 6713 23
Width: 1065
VWidth: 2260
Flags: W
HStem: -20 90<134.349 280.44 542.655 746.059> 102 90<352.197 472.457> 563 90<585.955 756.637> 584 66<197.859 297.547> 736 90<585.155 752.864> 760 66<200.259 297.547> 789 20G<869.5 885>
VStem: 14 90<97.7718 296.149 517.165 678.998> 103 90<322.184 482.977> 303 66<655.453 754.547> 495 90<653.612 734.614> 853 90<186.637 611.302>
AnchorPoint: "BelowRight" 815 -42 basechar 0
AnchorPoint: "BelowBase" 484 -42 basechar 0
AnchorPoint: "AboveBase" 484 883 basechar 0
LayerCount: 2
Back
SplineSet
193 705 m 3x3e54
 193 675 218 650 248 650 c 3
 278 650 303 675 303 705 c 3
 303 735 278 760 248 760 c 3
 218 760 193 735 193 705 c 3x3e54
248 826 m 3
 313 826 369 770 369 705 c 3
 369 640 313 584 248 584 c 3
 184 584 127 641 127 705 c 3x3e4c
 127 770 183 826 248 826 c 3
853 393 m 3
 853 571 785 736 639 736 c 3
 606 736 585 719 585 695 c 3
 585 667 604 653 639 653 c 3
 748 653 789 708 847 788 c 0
 857 802 866 809 873 809 c 3
 897 809 909 790 909 751 c 3
 909 740 902 723 888 700 c 0
 847 631 772 563 639 563 c 3
 553 563 495 617 495 695 c 3
 495 767 549 826 639 826 c 3
 842 826 943 628 943 393 c 3
 943 164 834 -20 619 -20 c 3
 499 -20 459 102 414 102 c 3
 369 102 317 -20 208 -20 c 3
 89 -20 14 97 14 198 c 3
 14 282 103 373 103 417 c 3
 103 453 10 508 10 590 c 3
 10 722 104 826 248 826 c 1
 248 736 l 1
 150 736 100 666 100 590 c 3
 100 550 193 499 193 417 c 3
 193 338 104 246 104 198 c 3
 104 141 149 70 208 70 c 3
 274 70 313 192 414 192 c 3
 520 192 541 70 619 70 c 3
 786 70 853 226 853 393 c 3
EndSplineSet
Fore
SplineSet
193 705 m 3xd4f0
 193 675 218 650 248 650 c 3
 278 650 303 675 303 705 c 3
 303 735 278 760 248 760 c 3
 218 760 193 735 193 705 c 3xd4f0
909 751 m 3
 909 737 890 700 877 682 c 1
 921 605 943 503 943 393 c 3
 943 164 834 -20 619 -20 c 3
 499 -20 459 102 414 102 c 3
 369 102 317 -20 208 -20 c 3
 89 -20 14 97 14 198 c 3xc370
 14 282 103 373 103 417 c 3
 103 453 10 508 10 590 c 3
 10 722 104 826 248 826 c 3
 313 826 369 770 369 705 c 3
 369 640 313 584 248 584 c 3
 192 584 140 628 129 682 c 1
 109 656 100 624 100 590 c 3
 100 550 193 499 193 417 c 3xd4f0
 193 338 104 246 104 198 c 3
 104 141 149 70 208 70 c 3
 274 70 313 192 414 192 c 3
 520 192 541 70 619 70 c 3
 786 70 853 226 853 393 c 3
 853 474 839 553 810 614 c 1
 768 584 712 563 639 563 c 3
 553 563 495 617 495 695 c 3
 495 767 549 826 639 826 c 3xe970
 714 826 775 800 822 754 c 1
 847 788 l 2
 857 802 866 809 873 809 c 3xc370
 897 809 909 790 909 751 c 3
758 688 m 1
 726 718 687 736 639 736 c 3
 606 736 585 719 585 695 c 3
 585 667 604 653 639 653 c 3xe870
 691 653 728 666 758 688 c 1
EndSplineSet
EndChar

StartChar: uni1A3A
Encoding: 6714 6714 24
Width: 955
VWidth: 2260
Flags: W
HStem: -20 90<119.349 265.44 527.655 703.832> 102 90<337.197 457.457> 584 66<183.076 282.547> 760 66<185.259 282.547> 1152 70<143.463 499.558>
VStem: -1 90<97.7718 296.149 517.165 678.998> 88 90<322.184 482.977> 288 66<655.453 754.547> 799 90<183.683 738.686>
AnchorPoint: "BelowRight" 705 -42 basechar 0
AnchorPoint: "BelowBase" 399 -42 basechar 0
AnchorPoint: "AboveBase" 399 1248 basechar 0
LayerCount: 2
Back
SplineSet
178 705 m 3x3e54
 178 675 203 650 233 650 c 3
 263 650 288 675 288 705 c 3
 288 735 263 760 233 760 c 3
 203 760 178 735 178 705 c 3x3e54
233 826 m 3
 298 826 354 770 354 705 c 3
 354 640 298 584 233 584 c 3
 169 584 112 641 112 705 c 3x3e4c
 112 770 168 826 233 826 c 3
799 393 m 3
 799 585 782 686 745 761 c 0
 705 841 625 902 550 935 c 0
 423 991 268 1017 19 1066 c 0
 10 1068 5 1072 4 1078 c 1
 4 1173 93 1222 275 1222 c 3
 378 1222 491 1200 608 1157 c 0
 759 1101 834 1028 834 939 c 1
 794 999 709 1051 578 1094 c 0
 463 1132 362 1152 275 1152 c 3
 218 1152 174 1143 142 1126 c 1
 228 1116 442 1086 592 1015 c 0
 704 962 780 887 826 801 c 0
 868 722 889 603 889 393 c 3
 889 164 780 -20 604 -20 c 3
 484 -20 444 102 399 102 c 3
 354 102 302 -20 193 -20 c 3
 74 -20 -1 97 -1 198 c 3
 -1 282 88 373 88 417 c 3
 88 453 -5 508 -5 590 c 3
 -5 722 89 826 233 826 c 1
 233 736 l 1
 135 736 85 666 85 590 c 3
 85 550 178 499 178 417 c 3
 178 338 89 246 89 198 c 3
 89 141 134 70 193 70 c 3
 259 70 298 192 399 192 c 3
 505 192 526 70 604 70 c 3
 730 70 799 226 799 393 c 3
EndSplineSet
Fore
SplineSet
178 705 m 3xfb80
 178 675 203 650 233 650 c 3
 263 650 288 675 288 705 c 3
 288 735 263 760 233 760 c 3
 203 760 178 735 178 705 c 3xfb80
115 682 m 1
 95 656 85 624 85 590 c 3
 85 550 178 499 178 417 c 3xfb80
 178 338 89 246 89 198 c 3
 89 141 134 70 193 70 c 3
 259 70 298 192 399 192 c 3
 505 192 526 70 604 70 c 3
 730 70 799 226 799 393 c 3
 799 585 782 686 745 761 c 0
 705 841 625 902 550 935 c 0
 423 991 268 1017 19 1066 c 0
 10 1068 5 1072 4 1078 c 1
 4 1173 93 1222 275 1222 c 3
 378 1222 491 1200 608 1157 c 0
 759 1101 834 1028 834 939 c 1
 794 999 709 1051 578 1094 c 0
 463 1132 362 1152 275 1152 c 3
 218 1152 174 1143 142 1126 c 1
 228 1116 442 1086 592 1015 c 0
 704 962 780 887 826 801 c 0
 868 722 889 603 889 393 c 3
 889 164 780 -20 604 -20 c 3
 484 -20 444 102 399 102 c 3
 354 102 302 -20 193 -20 c 3
 74 -20 -1 97 -1 198 c 3xfd80
 -1 282 88 373 88 417 c 3
 88 453 -5 508 -5 590 c 3
 -5 722 89 826 233 826 c 3
 298 826 354 770 354 705 c 3
 354 640 298 584 233 584 c 3
 177 584 127 628 115 682 c 1
EndSplineSet
EndChar

StartChar: uni1A3B
Encoding: 6715 6715 25
Width: 1200
VWidth: 2260
Flags: W
HStem: -20 90<210.012 452.202> -20 59<844.5 971.795> 218 66<456.668 535.505> 394 66<456.453 554.632> 736 90<225.975 471.053 709.46 935.298>
VStem: -2 90<206.451 572.817> 385 66<289.668 388.547> 561 74<235.968 389.893> 1051 90<223.409 596.347>
AnchorPoint: "BelowRight" 953 -42 basechar 0
AnchorPoint: "BelowBase" 587 -42 basechar 0
AnchorPoint: "AboveBase" 587 883 basechar 0
LayerCount: 2
Back
SplineSet
451 339 m 3x3e54
 451 309 476 284 506 284 c 3
 536 284 561 309 561 339 c 3
 561 369 536 394 506 394 c 3
 476 394 451 369 451 339 c 3x3e54
506 460 m 3
 571 460 627 404 627 339 c 3
 627 274 571 218 506 218 c 3
 442 218 385 275 385 339 c 3x3e4c
 385 404 441 460 506 460 c 3
535 349 m 9
 620 377 l 1
 627 358 635 306 635 272 c 3
 635 133 494 -20 327 -20 c 3xbf80
 143 -20 -2 166 -2 391 c 3
 -2 611 147 826 337 826 c 3
 432 826 516 785 587 703 c 1
 662 784 746 826 837 826 c 3
 1002 826 1141 633 1141 402 c 3
 1141 208 1062 136 905 47 c 1
 913 42 921 39 929 39 c 3
 957 39 1002 67 1063 123 c 1
 1017 28 954 -20 873 -20 c 3x7f80
 816 -20 798 2 798 47 c 0
 798 60 810 82 819 85 c 0
 971 136 1051 233 1051 402 c 3
 1051 595 941 736 837 736 c 3
 750 736 666 671 587 586 c 1
 500 687 417 736 337 736 c 3
 202 736 88 561 88 391 c 3
 88 206 204 70 327 70 c 3xbf80
 438 70 545 176 545 272 c 3
 545 293 543 325 535 349 c 9
EndSplineSet
Fore
SplineSet
451 339 m 3x3f80
 451 309 476 284 506 284 c 3
 536 284 561 309 561 339 c 3
 561 369 536 394 506 394 c 3
 476 394 451 369 451 339 c 3x3f80
536 222 m 1
 526 219 516 218 506 218 c 3
 442 218 385 275 385 339 c 3
 385 404 441 460 506 460 c 3
 601 460 635 370 635 272 c 3
 635 133 494 -20 327 -20 c 3xbf80
 143 -20 -2 166 -2 391 c 3
 -2 611 147 826 337 826 c 3
 432 826 516 785 587 703 c 1
 662 784 746 826 837 826 c 3
 1002 826 1141 633 1141 402 c 3
 1141 208 1062 136 905 47 c 1
 913 42 921 39 929 39 c 3
 957 39 1002 67 1063 123 c 1
 1017 28 954 -20 873 -20 c 3x7f80
 816 -20 798 2 798 47 c 3
 798 60 810 82 819 85 c 0
 971 136 1051 233 1051 402 c 3
 1051 595 941 736 837 736 c 3
 750 736 666 671 587 586 c 1
 500 687 417 736 337 736 c 3
 202 736 88 561 88 391 c 3
 88 206 204 70 327 70 c 3xbf80
 419 70 508 142 536 222 c 1
EndSplineSet
EndChar

StartChar: uni1A3C
Encoding: 6716 6716 26
Width: 1214
VWidth: 2260
Flags: W
HStem: -20 90<204.687 461.812> -20 59<848 971.795> 197 66<457.668 534.394> 373 66<457.453 555.586> 670 90<276.946 399.023 705.363 941.46> 907 66<421.475 640.269>
VStem: -2 90<197.616 520.611> 208 66<766.78 859.481> 386 66<268.668 367.547 761.94 866.081> 562 73<216.222 369.604> 1051 90<226.692 546.382>
AnchorPoint: "BelowRight" 964 -42 basechar 0
AnchorPoint: "BelowBase" 587 -42 basechar 0
AnchorPoint: "AboveBase" 587 1000 basechar 0
LayerCount: 2
Back
SplineSet
208 814 m 3
 208 880 266 934 337 934 c 3
 408 934 466 880 466 814 c 3
 466 748 408 694 337 694 c 3
 266 694 208 748 208 814 c 3
537 324 m 9
 625 343 l 1
 628 328 635 286 635 252 c 3
 635 110 494 -20 327 -20 c 3xbb90
 143 -20 -2 161 -2 360 c 3
 -2 550 147 760 337 760 c 3
 432 760 516 721 587 639 c 1
 662 720 746 760 837 760 c 3
 1002 760 1141 573 1141 385 c 27
 1141 224 1062 136 905 47 c 1
 913 42 921 39 929 39 c 3
 957 39 1002 67 1063 123 c 1
 1017 28 954 -20 873 -20 c 3x7b98
 823 -20 798 2 798 47 c 3
 798 56 806 80 819 85 c 0
 969 140 1051 246 1051 385 c 3
 1051 532 943 670 837 670 c 3
 749 670 666 607 587 522 c 1
 503 620 417 670 337 670 c 3
 206 670 88 505 88 360 c 3
 88 207 197 70 327 70 c 3xbb90
 438 70 545 156 545 252 c 3
 545 276 542 300 537 324 c 9
452 318 m 3x3e54
 452 288 477 263 507 263 c 3
 537 263 562 288 562 318 c 3
 562 348 537 373 507 373 c 3
 477 373 452 348 452 318 c 3x3e54
507 439 m 3
 572 439 628 383 628 318 c 3
 628 253 572 197 507 197 c 3
 443 197 386 254 386 318 c 3x3e4c
 386 383 442 439 507 439 c 3
274 814 m 3
 274 784 302 760 337 760 c 3x3bf0
 372 760 400 784 400 814 c 3
 400 844 372 868 337 868 c 3
 302 868 274 844 274 814 c 3
1009 726 m 1
 884 791 694 907 463 907 c 3
 409 907 274 892 274 814 c 9
 208 814 l 1
 208 926 335 973 463 973 c 3
 648 973 914 831 1009 726 c 1
EndSplineSet
Fore
SplineSet
1009 726 m 1xbfe0
 884 791 694 907 463 907 c 3
 452 907 437 907 421 905 c 1
 448 883 466 850 466 814 c 3
 466 787 457 763 441 743 c 1
 494 724 543 690 587 639 c 1
 662 720 746 760 837 760 c 3
 1002 760 1141 573 1141 385 c 3
 1141 224 1062 136 905 47 c 1
 913 42 921 39 929 39 c 3
 957 39 1002 67 1063 123 c 1
 1017 28 954 -20 873 -20 c 3x7fe0
 823 -20 798 2 798 47 c 3
 798 56 806 80 819 85 c 0
 969 140 1051 246 1051 385 c 3
 1051 532 943 670 837 670 c 3
 749 670 666 607 587 522 c 1
 503 620 417 670 337 670 c 3
 206 670 88 505 88 360 c 3
 88 207 197 70 327 70 c 3
 418 70 506 127 535 200 c 1
 526 198 516 197 507 197 c 3
 443 197 386 254 386 318 c 3
 386 383 442 439 507 439 c 3
 602 439 635 352 635 252 c 3
 635 110 494 -20 327 -20 c 3
 143 -20 -2 161 -2 360 c 3
 -2 515 97 683 236 740 c 1
 219 760 208 786 208 814 c 3
 208 926 335 973 463 973 c 3
 648 973 914 831 1009 726 c 1xbfe0
452 318 m 3
 452 288 477 263 507 263 c 3
 537 263 562 288 562 318 c 3
 562 348 537 373 507 373 c 3
 477 373 452 348 452 318 c 3
274 814 m 3
 274 784 302 760 337 760 c 3
 372 760 400 784 400 814 c 3
 400 844 372 868 337 868 c 3
 302 868 274 844 274 814 c 3
EndSplineSet
EndChar

StartChar: uni1A3D
Encoding: 6717 6717 27
Width: 1053
VWidth: 2260
Flags: W
HStem: -20 75<786 872.948> 736 90<351.209 732.211> 760 66<68.453 167.406>
VStem: -3 66<655.836 754.547> 6 90<188.757 383.684> 902 90<242.723 580.901>
AnchorPoint: "BelowRight" 803 -42 basechar 0
AnchorPoint: "BelowBase" 549 -42 basechar 0
AnchorPoint: "AboveBase" 549 883 basechar 0
LayerCount: 2
Back
SplineSet
63 705 m 3x3e54
 63 675 88 650 118 650 c 3
 148 650 173 675 173 705 c 3
 173 735 148 760 118 760 c 3
 88 760 63 735 63 705 c 3x3e54
118 826 m 3
 183 826 239 770 239 705 c 3
 239 640 183 584 118 584 c 3
 54 584 -3 641 -3 705 c 3x3e4c
 -3 770 53 826 118 826 c 3
786 56 m 1
 791 56 795 55 799 55 c 3
 880 55 877 73 960 132 c 1
 910 31 848 -20 773 -20 c 3
 716 -20 651 10 580 70 c 1
 802 106 902 240 902 435 c 3
 902 604 747 736 549 736 c 259
 364 736 185 632 185 435 c 3
 185 295 236 157 463 68 c 1
 413 9 368 -20 327 -20 c 3
 149 -20 6 138 6 361 c 3
 6 539 149 627 149 705 c 1
 239 705 l 17
 239 589 96 501 96 361 c 3
 96 229 162 114 280 69 c 1
 172 129 95 259 95 435 c 3
 95 678 305 826 549 826 c 3
 793 826 992 660 992 435 c 3
 992 256 926 127 786 56 c 1
EndSplineSet
Fore
SplineSet
63 705 m 3xb4
 63 675 88 650 118 650 c 3
 148 650 173 675 173 705 c 3
 173 735 148 760 118 760 c 3
 88 760 63 735 63 705 c 3xb4
97 384 m 1
 96 377 96 369 96 361 c 3x8c
 96 229 162 114 280 69 c 1
 183 123 110 234 97 384 c 1
89 588 m 1
 38 602 -3 651 -3 705 c 3
 -3 770 53 826 118 826 c 3xb4
 176 826 226 782 237 727 c 1
 319 791 430 826 549 826 c 3
 793 826 992 660 992 435 c 3
 992 256 926 127 786 56 c 1
 791 56 795 55 799 55 c 3
 880 55 877 73 960 132 c 1
 910 31 848 -20 773 -20 c 3
 716 -20 651 10 580 70 c 1
 802 106 902 240 902 435 c 3
 902 604 747 736 549 736 c 3xd4
 364 736 185 632 185 435 c 3
 185 295 236 157 463 68 c 1
 413 9 368 -20 327 -20 c 3
 149 -20 6 138 6 361 c 3
 6 460 50 531 89 588 c 1
EndSplineSet
EndChar

StartChar: uni1A3E
Encoding: 6718 6718 28
Width: 999
VWidth: 2260
Flags: W
HStem: -20 90<239.425 635.439> 216 66<389.668 488.547> 392 66<389.453 488.439> 760 66<61.453 160.547 694.5 783.051>
VStem: -10 66<655.814 754.547> -3 90<203.679 471.358> 166 66<655.745 754.547> 318 66<287.668 386.547> 494 66<287.453 356.216> 779 90<378.218 594.033> 913 85<-69.6746 174.819>
AnchorPoint: "BelowRight" 749 -42 basechar 0
AnchorPoint: "BelowBase" 433 -42 basechar 0
AnchorPoint: "AboveBase" 433 883 basechar 0
LayerCount: 2
Back
SplineSet
56 705 m 3x3e54
 56 675 81 650 111 650 c 3
 141 650 166 675 166 705 c 3
 166 735 141 760 111 760 c 3
 81 760 56 735 56 705 c 3x3e54
111 826 m 3
 176 826 232 770 232 705 c 3
 232 640 176 584 111 584 c 3
 47 584 -10 641 -10 705 c 3x3e4c
 -10 770 46 826 111 826 c 3
582 778 m 0
 582 794 685 826 704 826 c 3
 756 826 797 802 828 754 c 0
 845 728 863 681 884 612 c 1
 802 715 749 766 725 766 c 3
 724 766 720 765 714 763 c 1
 793 691 869 581 869 402 c 3
 869 131 709 -20 433 -20 c 3
 200 -20 -3 122 -3 331 c 3
 -3 494 142 628 142 705 c 1
 232 705 l 1
 232 593 87 460 87 331 c 3
 87 179 245 70 433 70 c 3
 669 70 779 191 779 402 c 3
 779 570 723 627 635 717 c 0
 601 752 582 773 582 778 c 0
799 259 m 0
 702 333 558 368 439 368 c 1
 439 458 l 1
 552 458 711 426 822 353 c 0
 945 272 998 205 998 77 c 27
 998 -25 963 -81 876 -154 c 1
 901 -97 913 -42 913 10 c 3
 913 109 874 202 799 259 c 0
384 337 m 3x3e54
 384 307 409 282 439 282 c 3
 469 282 494 307 494 337 c 3
 494 367 469 392 439 392 c 3
 409 392 384 367 384 337 c 3x3e54
439 458 m 3
 504 458 560 402 560 337 c 3
 560 272 504 216 439 216 c 3
 375 216 318 273 318 337 c 3x3e4c
 318 402 374 458 439 458 c 3
EndSplineSet
Fore
SplineSet
384 337 m 3xf3e0
 384 307 409 282 439 282 c 3
 469 282 494 307 494 337 c 3
 494 367 469 392 439 392 c 3
 409 392 384 367 384 337 c 3xf3e0
56 705 m 3xfbe0
 56 675 81 650 111 650 c 3
 141 650 166 675 166 705 c 3
 166 735 141 760 111 760 c 3
 81 760 56 735 56 705 c 3xfbe0
558 357 m 1
 559 350 560 344 560 337 c 3
 560 272 504 216 439 216 c 3
 375 216 318 273 318 337 c 3
 318 402 374 458 439 458 c 3
 538 458 673 433 779 378 c 1
 779 386 779 394 779 402 c 3
 779 570 723 627 635 717 c 0
 601 752 582 773 582 778 c 3
 582 794 685 826 704 826 c 3
 756 826 797 802 828 754 c 0
 845 728 863 681 884 612 c 1
 802 715 749 766 725 766 c 3
 724 766 720 765 714 763 c 1
 793 691 869 581 869 402 c 3
 869 375 867 349 864 324 c 1
 957 255 998 189 998 77 c 3
 998 -25 963 -81 876 -154 c 1
 901 -97 913 -42 913 10 c 3
 913 89 888 165 839 221 c 1
 781 65 640 -20 433 -20 c 3
 200 -20 -3 122 -3 331 c 3xf7e0
 -3 428 48 515 90 586 c 1
 35 597 -10 648 -10 705 c 3xfbe0
 -10 770 46 826 111 826 c 3
 176 826 232 770 232 705 c 3
 232 593 87 460 87 331 c 3xf7e0
 87 179 245 70 433 70 c 3
 620 70 728 146 765 282 c 1
 704 319 631 344 558 357 c 1
EndSplineSet
EndChar

StartChar: uni1A3F
Encoding: 6719 6719 29
Width: 1375
VWidth: 2260
Flags: W
HStem: -20 90<217.324 487.023 794.161 1061.24> 760 66<61.453 160.547 563.5 652.051 1060.5 1149.05>
VStem: -10 66<655.814 754.547> -3 90<196.825 471.358> 166 66<655.745 754.547> 608 90<228.171 642.943> 1185 90<203.809 564.782>
AnchorPoint: "BelowRight" 1125 -42 basechar 0
AnchorPoint: "AboveBase" 634 883 basechar 0
AnchorPoint: "BelowBase" 634 -42 basechar 0
LayerCount: 2
Back
SplineSet
675 262 m 17
 711 147 838 70 925 70 c 3
 1074 70 1185 193 1185 402 c 3
 1185 570 1089 627 1001 717 c 0
 967 752 948 773 948 778 c 0
 948 794 1051 826 1070 826 c 3
 1122 826 1163 802 1194 754 c 0
 1211 728 1229 681 1250 612 c 1
 1168 715 1115 766 1091 766 c 3
 1090 766 1086 765 1080 763 c 1
 1159 691 1275 581 1275 402 c 3
 1275 131 1116 -20 925 -20 c 3
 801 -20 638 79 589 235 c 1
 675 262 l 17
56 705 m 3x3e54
 56 675 81 650 111 650 c 3
 141 650 166 675 166 705 c 3
 166 735 141 760 111 760 c 3
 81 760 56 735 56 705 c 3x3e54
111 826 m 3
 176 826 232 770 232 705 c 3
 232 640 176 584 111 584 c 3
 47 584 -10 641 -10 705 c 3x3e4c
 -10 770 46 826 111 826 c 3
451 778 m 0
 451 794 554 826 573 826 c 3
 625 826 666 802 697 754 c 0
 714 728 732 681 753 612 c 1
 671 715 618 766 594 766 c 3
 593 766 589 765 583 763 c 1
 662 691 698 581 698 402 c 3
 698 131 539 -20 348 -20 c 3
 200 -20 -3 122 -3 331 c 3
 -3 494 142 628 142 705 c 1
 232 705 l 1
 232 593 87 460 87 331 c 3
 87 179 242 70 348 70 c 3
 500 70 608 191 608 402 c 3
 608 570 592 627 504 717 c 0
 470 752 451 773 451 778 c 0
EndSplineSet
Fore
SplineSet
56 705 m 3xee
 56 675 81 650 111 650 c 3
 141 650 166 675 166 705 c 3
 166 735 141 760 111 760 c 3
 81 760 56 735 56 705 c 3xee
90 586 m 1
 35 597 -10 648 -10 705 c 3xee
 -10 770 46 826 111 826 c 3
 176 826 232 770 232 705 c 3
 232 593 87 460 87 331 c 3
 87 179 242 70 348 70 c 3
 500 70 608 191 608 402 c 3
 608 570 592 627 504 717 c 0
 470 752 451 773 451 778 c 3
 451 794 554 826 573 826 c 3
 625 826 666 802 697 754 c 0
 714 728 732 681 753 612 c 1
 671 715 618 766 594 766 c 3
 593 766 589 765 583 763 c 1
 662 691 698 581 698 402 c 3
 698 346 691 295 679 250 c 1
 720 141 841 70 925 70 c 3
 1074 70 1185 193 1185 402 c 3
 1185 570 1089 627 1001 717 c 0
 967 752 948 773 948 778 c 3
 948 794 1051 826 1070 826 c 3
 1122 826 1163 802 1194 754 c 0
 1211 728 1229 681 1250 612 c 1
 1168 715 1115 766 1091 766 c 3
 1090 766 1086 765 1080 763 c 1
 1159 691 1275 581 1275 402 c 3
 1275 131 1116 -20 925 -20 c 3
 827 -20 705 42 634 144 c 1
 570 37 465 -20 348 -20 c 3
 200 -20 -3 122 -3 331 c 3xde
 -3 428 48 515 90 586 c 1
EndSplineSet
EndChar

StartChar: uni1A40
Encoding: 6720 6720 30
Width: 987
VWidth: 2260
Flags: W
HStem: -20 90<191.832 656.217> 584 66<113.927 213.547> 760 66<114.372 213.547> 1209 70<181.011 536.908>
VStem: 2 90<153.647 348.428> 6 103<592.557 757.751> 219 66<655.453 754.547> 801 90<223.574 790.922>
AnchorPoint: "BelowRight" 737 -42 basechar 0
AnchorPoint: "AboveBase" 419 1300 basechar 0
AnchorPoint: "BelowBase" 419 -42 basechar 0
LayerCount: 2
Back
SplineSet
891 510 m 3
 891 146 787 -20 419 -20 c 3
 207 -20 2 61 2 251 c 3
 2 334 41 403 129 452 c 1
 40 491 6 542 6 643 c 3
 6 729 60 826 164 826 c 1
 164 736 l 1
 119 736 96 701 96 643 c 3
 96 594 107 554 160 539 c 0
 173 536 226 518 318 518 c 3
 339 518 353 496 353 488 c 3
 353 473 341 466 309 449 c 2
 165 369 l 2
 124 346 92 307 92 251 c 3
 92 122 259 70 419 70 c 3
 711 70 801 170 801 510 c 3
 801 950 606 1042 263 1060 c 2
 29 1072 l 1
 84 1210 189 1279 345 1279 c 3
 549 1279 785 1147 860 1024 c 1
 666 1142 498 1209 355 1209 c 3
 264 1209 187 1197 128 1132 c 1
 145 1132 l 2
 638 1132 891 1018 891 510 c 3
109 705 m 3x3e54
 109 675 134 650 164 650 c 3
 194 650 219 675 219 705 c 3
 219 735 194 760 164 760 c 3
 134 760 109 735 109 705 c 3x3e54
164 826 m 3
 229 826 285 770 285 705 c 3
 285 640 229 584 164 584 c 3
 100 584 43 641 43 705 c 3x3e4c
 43 770 99 826 164 826 c 3
EndSplineSet
Fore
SplineSet
109 705 m 3xf7
 109 675 134 650 164 650 c 3
 194 650 219 675 219 705 c 3
 219 735 194 760 164 760 c 3
 134 760 109 735 109 705 c 3xf7
164 826 m 3
 229 826 285 770 285 705 c 3
 285 640 229 584 164 584 c 3
 141 584 118 591 99 604 c 1
 105 573 122 550 160 539 c 0
 173 536 226 518 318 518 c 3
 339 518 353 496 353 488 c 3
 353 473 341 466 309 449 c 2
 165 369 l 2
 124 346 92 307 92 251 c 3
 92 122 259 70 419 70 c 3
 711 70 801 170 801 510 c 3
 801 950 606 1042 263 1060 c 2
 29 1072 l 1
 84 1210 189 1279 345 1279 c 3
 549 1279 785 1147 860 1024 c 1
 666 1142 498 1209 355 1209 c 3
 264 1209 187 1197 128 1132 c 1
 145 1132 l 2
 638 1132 891 1018 891 510 c 3
 891 146 787 -20 419 -20 c 3
 207 -20 2 61 2 251 c 3xfb
 2 334 41 403 129 452 c 1
 40 491 6 542 6 643 c 3
 6 729 60 826 164 826 c 3
EndSplineSet
EndChar

StartChar: uni1A41
Encoding: 6721 6721 31
Width: 832
VWidth: 2260
Flags: W
HStem: -20 90<183.536 546.187> 277 66<89.453 188.547> 622 50<676.457 779.181> 736 90<107.139 477.411>
VStem: 1 90<603.653 715.168> 18 66<173.987 271.547> 194 66<172.035 271.547> 638 90<149.852 348.295>
AnchorPoint: "BelowRight" 582 -42 basechar 0
AnchorPoint: "AboveBase" 363 883 basechar 0
AnchorPoint: "BelowBase" 363 -42 basechar 0
LayerCount: 2
Back
SplineSet
84 222 m 3xf7
 84 192 109 167 139 167 c 3
 169 167 194 192 194 222 c 3
 194 252 169 277 139 277 c 3
 109 277 84 252 84 222 c 3xf7
139 343 m 3
 204 343 260 287 260 222 c 3
 260 157 204 101 139 101 c 3
 75 101 18 158 18 222 c 3
 18 287 74 343 139 343 c 3
794 662 m 3
 794 648 733 622 711 622 c 3
 634 622 580 647 514 676 c 0
 417 720 323 736 237 736 c 3
 135 736 91 699 91 642 c 3
 91 604 177 583 328 557 c 0
 522 524 728 440 728 251 c 3
 728 71 544 -20 363 -20 c 3
 190 -20 18 49 18 222 c 1
 108 222 l 1
 108 111 233 70 363 70 c 3
 493 70 638 129 638 251 c 3
 638 351 527 431 313 468 c 0
 218 484 1 503 1 642 c 3
 1 755 82 826 237 826 c 3
 345 826 451 801 556 750 c 0
 663 698 732 672 763 672 c 3
 784 672 794 669 794 662 c 3
EndSplineSet
Fore
SplineSet
139 343 m 3xf7
 204 343 260 287 260 222 c 3
 260 171 226 125 180 108 c 1
 228 81 294 70 363 70 c 3
 493 70 638 129 638 251 c 3
 638 351 527 431 313 468 c 0
 218 484 1 503 1 642 c 3
 1 755 82 826 237 826 c 3
 345 826 451 801 556 750 c 0
 663 698 732 672 763 672 c 3
 784 672 794 669 794 662 c 3
 794 648 733 622 711 622 c 3
 634 622 580 647 514 676 c 0
 417 720 323 736 237 736 c 3
 135 736 91 699 91 642 c 3xfb
 91 604 177 583 328 557 c 0
 522 524 728 440 728 251 c 3
 728 71 544 -20 363 -20 c 3
 190 -20 18 49 18 222 c 3
 18 287 74 343 139 343 c 3xf7
84 222 m 3xf7
 84 192 109 167 139 167 c 3
 169 167 194 192 194 222 c 3
 194 252 169 277 139 277 c 3
 109 277 84 252 84 222 c 3xf7
EndSplineSet
EndChar

StartChar: uni1A43
Encoding: 6723 6723 32
Width: 1255
VWidth: 2260
Flags: W
HStem: -20 90<668.549 980.196> -20 66<195.255 293.547> 156 66<194.271 293.547> 736 90<236.39 492.351 975.046 1071.24>
VStem: 16 90<196.624 599.266> 299 66<51.453 150.547> 499 90<142.59 313.4> 568 90<340.783 654.626> 1092 90<187.275 511.607>
AnchorPoint: "BelowRight" 1005 -42 basechar 0
AnchorPoint: "AboveBase" 578 883 basechar 0
AnchorPoint: "BelowBase" 578 -42 basechar 0
LayerCount: 2
Back
SplineSet
189 101 m 3x7e40
 189 71 214 46 244 46 c 3
 274 46 299 71 299 101 c 3
 299 131 274 156 244 156 c 3
 214 156 189 131 189 101 c 3x7e40
244 222 m 3
 309 222 365 166 365 101 c 3
 365 36 309 -20 244 -20 c 3xbe40
 180 -20 123 37 123 101 c 3
 123 166 179 222 244 222 c 3
838 70 m 3
 988 70 1092 192 1092 355 c 3
 1092 472 1025 581 884 667 c 1
 907 773 950 826 1011 826 c 3
 1041 826 1075 788 1112 713 c 0
 1125 686 1148 633 1180 554 c 1
 1102 654 l 2
 1066 700 1040 736 1011 736 c 3
 1000 736 974 731 974 714 c 3
 974 697 1020 669 1031 658 c 0
 1106 583 1182 467 1182 355 c 3
 1182 154 1050 -20 838 -20 c 3
 654 -20 499 78 499 242 c 3xbf
 499 307 511 330 536 355 c 0
 565 384 568 432 568 502 c 3
 568 632 495 736 371 736 c 3
 215 736 106 589 106 445 c 3
 106 260 184 70 244 70 c 1
 244 -20 l 1
 91 -20 16 260 16 445 c 3
 16 647 168 826 371 826 c 3
 554 826 658 675 658 502 c 3xbec0
 658 378 643 333 598 290 c 0
 590 282 589 261 589 242 c 3xbf
 589 136 701 70 838 70 c 3
EndSplineSet
Fore
SplineSet
244 222 m 3xbd80
 309 222 365 166 365 101 c 3
 365 36 309 -20 244 -20 c 3
 91 -20 16 260 16 445 c 3
 16 647 168 826 371 826 c 3
 554 826 658 675 658 502 c 3x7d80
 658 378 643 333 598 290 c 0
 590 282 589 261 589 242 c 3
 589 136 701 70 838 70 c 3
 988 70 1092 192 1092 355 c 3
 1092 472 1025 581 884 667 c 1
 907 773 950 826 1011 826 c 3
 1041 826 1075 788 1112 713 c 0
 1125 686 1148 633 1180 554 c 1
 1102 654 l 2
 1066 700 1040 736 1011 736 c 3
 1000 736 974 731 974 714 c 3
 974 697 1020 669 1031 658 c 0
 1106 583 1182 467 1182 355 c 3
 1182 154 1050 -20 838 -20 c 3
 654 -20 499 78 499 242 c 3xbe80
 499 307 511 330 536 355 c 0
 565 384 568 432 568 502 c 3
 568 632 495 736 371 736 c 3
 215 736 106 589 106 445 c 3
 106 350 127 253 155 182 c 1
 177 207 209 222 244 222 c 3xbd80
189 101 m 3
 189 71 214 46 244 46 c 3
 274 46 299 71 299 101 c 3
 299 131 274 156 244 156 c 3
 214 156 189 131 189 101 c 3
EndSplineSet
EndChar

StartChar: uni1A45
Encoding: 6725 6725 33
Width: 985
VWidth: 2260
Flags: W
HStem: -20 90<294.014 627.986> 736 90<294.014 627.986>
VStem: 34 90<237.908 568.092> 798 90<237.908 568.092>
AnchorPoint: "BelowRight" 735 -42 basechar 0
AnchorPoint: "AboveBase" 461 883 basechar 0
AnchorPoint: "BelowBase" 461 -42 basechar 0
LayerCount: 2
Fore
SplineSet
124 403 m 3
 124 219 275 70 461 70 c 3
 647 70 798 219 798 403 c 3
 798 587 647 736 461 736 c 3
 275 736 124 587 124 403 c 3
34 403 m 3
 34 636 225 826 461 826 c 3
 697 826 888 636 888 403 c 3
 888 170 697 -20 461 -20 c 3
 225 -20 34 170 34 403 c 3
EndSplineSet
EndChar

StartChar: uni1A48
Encoding: 6728 6728 34
Width: 977
VWidth: 2260
Flags: W
HStem: -20 90<350.318 677.098> -20 66<51.6678 141.398> 156 66<51.453 146.32> 584 66<66.6678 146.559> 760 66<66.453 165.547 645.5 741.458>
VStem: -20 66<51.6678 150.547> -5 66<655.668 754.547> 147 90<217 588> 171 66<654.917 754.011> 797 90<192.794 541.182>
AnchorPoint: "BelowRight" 727 -42 basechar 0
AnchorPoint: "AboveBase" 524 883 basechar 0
AnchorPoint: "BelowBase" 524 -42 basechar 0
LayerCount: 2
Back
SplineSet
61 705 m 3x3e54
 61 675 86 650 116 650 c 3
 146 650 171 675 171 705 c 3
 171 735 146 760 116 760 c 3
 86 760 61 735 61 705 c 3x3e54
116 826 m 3
 181 826 237 770 237 705 c 3
 237 640 181 584 116 584 c 3
 52 584 -5 641 -5 705 c 3x3e4c
 -5 770 51 826 116 826 c 3
101 -20 m 3
 37 -20 -20 37 -20 101 c 3x3e4c
 -20 166 36 222 101 222 c 3
 149 222 184 208 215 191 c 0
 309 138 404 70 524 70 c 3
 673 70 797 176 797 349 c 3
 797 521 711 653 544 770 c 1
 587 807 627 826 664 826 c 3
 683 826 727 804 796 762 c 128
 865 720 905 690 915 673 c 1
 898 673 863 687 808 714 c 128
 753 741 715 754 693 754 c 3
 692 754 689 753 684 752 c 1
 819 653 887 527 887 349 c 3
 887 141 736 -20 524 -20 c 3
 369 -20 278 53 177 125 c 0
 153 142 127 156 101 156 c 3
 71 156 46 131 46 101 c 3x3e54
 46 71 71 46 101 46 c 3
 131 46 147 72 147 112 c 2
 147 705 l 1
 237 705 l 1
 237 142 l 2
 237 33 165 -20 101 -20 c 3
EndSplineSet
Fore
SplineSet
61 705 m 3x3ac0
 61 675 86 650 116 650 c 3
 146 650 171 675 171 705 c 3
 171 735 146 760 116 760 c 3
 86 760 61 735 61 705 c 3x3ac0
147 143 m 1x7d40
 132 151 116 156 101 156 c 3
 71 156 46 131 46 101 c 3
 46 71 71 46 101 46 c 3
 131 46 147 72 147 112 c 2
 147 143 l 1x7d40
147 217 m 1
 147 588 l 1x7d40
 137 585 127 584 116 584 c 3
 52 584 -5 641 -5 705 c 3
 -5 770 51 826 116 826 c 3
 181 826 237 770 237 705 c 2
 237 178 l 1
 324 127 413 70 524 70 c 3
 673 70 797 176 797 349 c 3
 797 521 711 653 544 770 c 1
 587 807 627 826 664 826 c 3
 683 826 727 804 796 762 c 0
 865 720 905 690 915 673 c 1
 898 673 863 687 808 714 c 0
 753 741 715 754 693 754 c 3
 692 754 689 753 684 752 c 1
 819 653 887 527 887 349 c 3
 887 141 736 -20 524 -20 c 3xbac0
 396 -20 312 29 230 87 c 1
 211 15 153 -20 101 -20 c 3
 37 -20 -20 37 -20 101 c 3
 -20 166 36 222 101 222 c 3
 118 222 133 220 147 217 c 1
EndSplineSet
EndChar

StartChar: uni1A49
Encoding: 6729 6729 35
Width: 1237
VWidth: 2260
Flags: W
HStem: -20 90<156.705 475.095 931.348 1024.87> 584 66<96.2444 150.93> 736 90<654.356 957.058> 760 66<94.453 193.547>
VStem: 6 90<127.518 363.907> 23 66<656.162 754.547> 199 66<655.537 754.547> 478 90<300.746 651.854> 536 90<126.355 408.135> 1058 90<297.19 635.51>
AnchorPoint: "BelowRight" 987 -42 basechar 0
AnchorPoint: "AboveBase" 552 883 basechar 0
AnchorPoint: "BelowBase" 552 -42 basechar 0
LayerCount: 2
Back
SplineSet
89 705 m 3x3e54
 89 675 114 650 144 650 c 3
 174 650 199 675 199 705 c 3
 199 735 174 760 144 760 c 3
 114 760 89 735 89 705 c 3x3e54
144 826 m 3
 209 826 265 770 265 705 c 3
 265 640 209 584 144 584 c 3
 80 584 23 641 23 705 c 3x3e4c
 23 770 79 826 144 826 c 3
316 -20 m 3
 150 -20 6 69 6 218 c 3
 6 405 175 520 175 705 c 1
 265 705 l 1
 265 489 96 374 96 218 c 3
 96 128 192 70 316 70 c 3
 434 70 536 129 536 218 c 3
 536 267 478 411 478 508 c 3
 478 711 614 826 813 826 c 3
 1017 826 1148 664 1148 508 c 3
 1148 299 1075 177 930 82 c 1
 935 72 944 66 957 66 c 3
 987 66 1043 105 1124 182 c 1
 1055 47 1000 -20 958 -20 c 3
 877 -20 824 38 824 119 c 1
 990 215 1058 316 1058 508 c 3
 1058 609 971 736 813 736 c 3
 671 736 568 664 568 508 c 3
 568 425 626 290 626 218 c 3
 626 76 486 -20 316 -20 c 3
EndSplineSet
Fore
SplineSet
89 705 m 3xd640
 89 675 114 650 144 650 c 3
 174 650 199 675 199 705 c 3
 199 735 174 760 144 760 c 3
 114 760 89 735 89 705 c 3xd640
151 584 m 1
 82 584 23 637 23 705 c 3xe640
 23 770 79 826 144 826 c 3
 209 826 265 770 265 705 c 3
 265 489 96 374 96 218 c 3
 96 128 192 70 316 70 c 3
 434 70 536 129 536 218 c 3xdac0
 536 267 478 411 478 508 c 3
 478 711 614 826 813 826 c 3
 1017 826 1148 664 1148 508 c 3
 1148 299 1075 177 930 82 c 1
 935 72 944 66 957 66 c 3
 987 66 1043 105 1124 182 c 1
 1055 47 1000 -20 958 -20 c 3
 877 -20 824 38 824 119 c 1
 990 215 1058 316 1058 508 c 3
 1058 609 971 736 813 736 c 3
 671 736 568 664 568 508 c 3xe340
 568 425 626 290 626 218 c 3
 626 76 486 -20 316 -20 c 3
 150 -20 6 69 6 218 c 3xeac0
 6 361 105 462 151 584 c 1
EndSplineSet
EndChar

StartChar: uni1A4A
Encoding: 6730 6730 36
Width: 965
VWidth: 2260
Flags: W
HStem: -20 90<202.381 666.52> 231 66<707.453 806.547> 400 90<170.116 722.214> 608 70<647.718 860.069> 736 90<146.785 453.442>
VStem: 0 90<154.065 329.708> 47 93<640.508 716.946> 636 66<125.9 225.547> 812 66<128.671 225.547>
AnchorPoint: "BelowRight" 715 -42 basechar 0
AnchorPoint: "AboveBase" 434 883 basechar 0
AnchorPoint: "BelowBase" 434 -42 basechar 0
LayerCount: 2
Back
SplineSet
702 176 m 3x3e54
 702 146 727 121 757 121 c 3
 787 121 812 146 812 176 c 3
 812 206 787 231 757 231 c 3
 727 231 702 206 702 176 c 3x3e54
757 297 m 3
 822 297 878 241 878 176 c 3
 878 111 822 55 757 55 c 3
 693 55 636 112 636 176 c 3x3e4c
 636 241 692 297 757 297 c 3
47 668 m 3
 47 770 168 826 274 826 c 3
 414 826 648 678 826 678 c 3
 847 678 868 680 889 683 c 1
 883 630 857 608 812 608 c 3
 650 608 390 736 274 736 c 3
 227 736 140 713 140 673 c 3
 140 642 230 617 410 604 c 0
 678 585 844 577 844 409 c 3
 844 381 840 358 832 344 c 1
 700 376 544 400 398 400 c 3
 248 400 90 360 90 237 c 3
 90 121 296 70 434 70 c 3
 555 70 788 87 788 176 c 1
 878 176 l 1
 878 4 600 -20 434 -20 c 3
 236 -20 0 59 0 237 c 3
 0 392 144 490 398 490 c 3
 491 490 601 480 728 459 c 1
 703 497 511 506 402 514 c 0
 228 526 47 552 47 668 c 3
EndSplineSet
Fore
SplineSet
702 176 m 3xf980
 702 146 727 121 757 121 c 3
 787 121 812 146 812 176 c 3
 812 206 787 231 757 231 c 3
 727 231 702 206 702 176 c 3xf980
671 93 m 1
 650 115 636 145 636 176 c 3
 636 241 692 297 757 297 c 3
 822 297 878 241 878 176 c 3
 878 4 600 -20 434 -20 c 3
 236 -20 0 59 0 237 c 3xfd80
 0 392 144 490 398 490 c 3
 491 490 601 480 728 459 c 1
 703 497 511 506 402 514 c 0
 228 526 47 552 47 668 c 3
 47 770 168 826 274 826 c 3
 414 826 648 678 826 678 c 3
 847 678 868 680 889 683 c 1
 883 630 857 608 812 608 c 3
 650 608 390 736 274 736 c 3
 227 736 140 713 140 673 c 3xfb80
 140 642 230 617 410 604 c 0
 678 585 844 577 844 409 c 3
 844 381 840 358 832 344 c 1
 700 376 544 400 398 400 c 3
 248 400 90 360 90 237 c 3xfd80
 90 121 296 70 434 70 c 3
 499 70 595 75 671 93 c 1
EndSplineSet
EndChar

StartChar: uni1A4B
Encoding: 6731 6731 37
Width: 1053
VWidth: 2260
Flags: W
HStem: -20 66<670.668 787.368> 156 66<670.453 776.512> 736 90<351.209 732.433> 760 66<68.453 167.406>
VStem: -3 66<655.836 754.547> 6 90<188.757 383.684> 599 66<51.6678 150.547> 804 56<-42.2551 -1> 902 90<186.947 561.778>
AnchorPoint: "BelowRight" 803 -42 basechar 0
AnchorPoint: "AboveBase" 549 883 basechar 0
AnchorPoint: "BelowBase" 549 -42 basechar 0
LayerCount: 2
Back
SplineSet
720 46 m 3
 814 46 902 240 902 385 c 3
 902 605 748 736 549 736 c 259
 364 736 185 632 185 435 c 3
 185 295 236 157 463 68 c 1
 413 9 368 -20 327 -20 c 3
 149 -20 6 138 6 361 c 3
 6 539 149 627 149 705 c 1
 239 705 l 17
 239 589 96 501 96 361 c 3
 96 229 162 114 280 69 c 1
 172 129 95 259 95 435 c 3
 95 678 305 826 549 826 c 3
 793 826 992 660 992 385 c 3
 992 256 912 -20 720 -20 c 3
 656 -20 599 37 599 101 c 3x3e4c
 599 166 655 222 720 222 c 3
 856 222 860 55 860 38 c 0
 860 -14 830 -104 802 -124 c 1
 804 -102 804 -63 804 -36 c 0
 804 39 800 156 720 156 c 3
 690 156 665 131 665 101 c 3x3e54
 665 71 690 46 720 46 c 3
63 705 m 3x3e54
 63 675 88 650 118 650 c 3
 148 650 173 675 173 705 c 3
 173 735 148 760 118 760 c 3
 88 760 63 735 63 705 c 3x3e54
118 826 m 3
 183 826 239 770 239 705 c 3
 239 640 183 584 118 584 c 3
 54 584 -3 641 -3 705 c 3x3e4c
 -3 770 53 826 118 826 c 3
EndSplineSet
Fore
SplineSet
63 705 m 3xdb80
 63 675 88 650 118 650 c 3
 148 650 173 675 173 705 c 3
 173 735 148 760 118 760 c 3
 88 760 63 735 63 705 c 3xdb80
89 588 m 1
 38 602 -3 651 -3 705 c 3
 -3 770 53 826 118 826 c 3xdb80
 176 826 226 782 237 727 c 1
 319 791 430 826 549 826 c 3
 793 826 992 660 992 385 c 3
 992 294 952 129 860 40 c 1
 860 -13 831 -104 802 -124 c 1
 804 -102 804 -63 804 -36 c 2
 804 -1 l 1
 779 -13 751 -20 720 -20 c 3
 656 -20 599 37 599 101 c 3
 599 166 655 222 720 222 c 3
 784 222 818 186 837 145 c 1
 876 214 902 306 902 385 c 3
 902 605 748 736 549 736 c 3
 364 736 185 632 185 435 c 3
 185 295 236 157 463 68 c 1
 413 9 368 -20 327 -20 c 3
 149 -20 6 138 6 361 c 3xe780
 6 460 50 531 89 588 c 1
793 84 m 1
 782 125 762 156 720 156 c 3
 690 156 665 131 665 101 c 3
 665 71 690 46 720 46 c 3
 745 46 770 60 793 84 c 1
97 384 m 1
 96 377 96 369 96 361 c 3xc780
 96 229 162 114 280 69 c 1
 183 123 110 234 97 384 c 1
EndSplineSet
EndChar

StartChar: uni1A4C
Encoding: 6732 6732 38
Width: 934
VWidth: 2260
Flags: W
HStem: -20 90<299.888 605.527> 283 66<204.453 303.547> 497 90<95.0705 531.894> 611 90<526.646 759.782> 736 90<124.226 412.74>
VStem: 5 90<526 705.271> 133 66<178.662 277.547> 309 66<178.51 277.547> 673 90<136.345 386.969> 930 7<904 1043.64>
AnchorPoint: "BelowRight" 684 -42 basechar 0
AnchorPoint: "AboveBase" 447 883 basechar 0
AnchorPoint: "BelowBase" 447 -42 basechar 0
LayerCount: 2
Back
SplineSet
199 228 m 3x3e54
 199 198 224 173 254 173 c 3
 284 173 309 198 309 228 c 3
 309 258 284 283 254 283 c 3
 224 283 199 258 199 228 c 3x3e54
254 349 m 3
 319 349 375 293 375 228 c 3
 375 163 319 107 254 107 c 3
 190 107 133 164 133 228 c 3x3e4c
 133 293 189 349 254 349 c 3
645 701 m 3
 790 701 902 904 930 1045 c 1
 935 1016 937 982 937 945 c 0
 937 792 797 611 645 611 c 3
 558 611 370 736 242 736 c 3
 152 736 95 688 95 609 c 3
 95 588 192 587 234 587 c 3
 507 587 763 527 763 270 c 3
 763 78 637 -20 447 -20 c 3
 311 -20 133 73 133 228 c 1
 223 228 l 1
 223 143 340 70 447 70 c 3
 591 70 673 134 673 270 c 3
 673 453 461 497 234 497 c 3
 197 497 85 494 53 494 c 3
 21 494 5 510 5 542 c 3
 5 733 78 826 242 826 c 3
 398 826 588 701 645 701 c 3
EndSplineSet
Fore
SplineSet
254 349 m 3
 319 349 375 293 375 228 c 3
 375 178 342 133 297 115 c 1
 339 87 395 70 447 70 c 3
 591 70 673 134 673 270 c 3
 673 453 461 497 234 497 c 3
 197 497 85 494 53 494 c 3
 21 494 5 510 5 542 c 3
 5 733 78 826 242 826 c 3
 398 826 588 701 645 701 c 3
 790 701 902 904 930 1045 c 1
 935 1016 937 982 937 945 c 0
 937 792 797 611 645 611 c 3
 558 611 370 736 242 736 c 3
 152 736 95 688 95 609 c 3
 95 588 192 587 234 587 c 3
 507 587 763 527 763 270 c 3
 763 78 637 -20 447 -20 c 3
 311 -20 133 73 133 228 c 3
 133 293 189 349 254 349 c 3
199 228 m 3
 199 198 224 173 254 173 c 3
 284 173 309 198 309 228 c 3
 309 258 284 283 254 283 c 3
 224 283 199 258 199 228 c 3
EndSplineSet
EndChar

StartChar: uni1A61
Encoding: 6753 6753 39
Width: 445
VWidth: 2260
Flags: W
HStem: 23 90<115.197 273.547> 255 90<116.453 274.803> 414 90<115.197 273.547> 646 90<116.453 274.803>
VStem: 18 90<123.015 245.768 514.015 636.768> 282 90<122.232 244.985 513.232 635.985>
LayerCount: 2
Back
SplineSet
63 184 m 3
 63 248 122 300 195 300 c 3
 268 300 327 248 327 184 c 3
 327 120 268 68 195 68 c 3
 122 68 63 120 63 184 c 3
63 575 m 3
 63 639 122 691 195 691 c 3
 268 691 327 639 327 575 c 3
 327 511 268 459 195 459 c 3
 122 459 63 511 63 575 c 3
EndSplineSet
Fore
SplineSet
108 184 m 3
 108 151 141 113 195 113 c 3
 247 113 282 149 282 184 c 3
 282 217 249 255 195 255 c 3
 143 255 108 219 108 184 c 3
18 184 m 3
 18 280 105 345 195 345 c 3
 290 345 372 275 372 184 c 3
 372 88 285 23 195 23 c 3
 100 23 18 93 18 184 c 3
108 575 m 3
 108 542 141 504 195 504 c 3
 247 504 282 540 282 575 c 3
 282 608 249 646 195 646 c 3
 143 646 108 610 108 575 c 3
18 575 m 3
 18 671 105 736 195 736 c 3
 290 736 372 666 372 575 c 3
 372 479 285 414 195 414 c 3
 100 414 18 484 18 575 c 3
EndSplineSet
EndChar

StartChar: uni1A62
Encoding: 6754 6754 40
Width: 0
VWidth: 2260
Flags: W
HStem: 969 367
AnchorPoint: "AboveMark" -613 1228 basemark 0
AnchorPoint: "AboveBase" -613 883 mark 0
LayerCount: 2
Back
SplineSet
-9 1251 m 1
 -795 969 l 1
 -809 1023 l 1
 -39 1336 l 1
 -24 1286 l 2
 -20 1274 -15 1262.33 -9 1251 c 1
EndSplineSet
Fore
SplineSet
-9 1251 m 1
 -795 969 l 1
 -809 1023 l 1
 -39 1336 l 1
 -9 1251 l 1
EndSplineSet
EndChar

StartChar: uni1A63
Encoding: 6755 6755 41
Width: 683
VWidth: 2260
Flags: W
HStem: -20 85<134.738 290.377> 439 66<76.6678 175.547> 736 90<162.127 432.237>
VStem: 5 66<510.668 607.426> 181 66<510.453 609.499> 523 90<354.989 645.047>
AnchorPoint: "BelowRight" 433 -42 basechar 0
AnchorPoint: "BelowBase" 292 -42 basechar 0
AnchorPoint: "AboveBase" 292 883 basechar 0
LayerCount: 2
Back
SplineSet
71 560 m 3x3e54
 71 530 96 505 126 505 c 3
 156 505 181 530 181 560 c 3
 181 590 156 615 126 615 c 3
 96 615 71 590 71 560 c 3x3e54
126 681 m 3
 191 681 247 625 247 560 c 3
 247 495 191 439 126 439 c 3
 62 439 5 496 5 560 c 3x3e4c
 5 625 61 681 126 681 c 3
292 826 m 3
 452 826 613 710 613 511 c 3
 613 287 399 120 228 69 c 1
 230 66 233 65 238 65 c 3
 272 65 340 82 459 135 c 1
 405 82 249 -20 155 -20 c 3
 141 -20 114 -4 114 9 c 3
 114 88 158 118 241 157 c 0
 426 244 523 373 523 511 c 3
 523 646 418 736 292 736 c 3
 174 736 95 649 95 560 c 1
 5 560 l 1
 5 698 124 826 292 826 c 3
EndSplineSet
Fore
SplineSet
71 560 m 3
 71 530 96 505 126 505 c 3
 156 505 181 530 181 560 c 3
 181 590 156 615 126 615 c 3
 96 615 71 590 71 560 c 3
5 560 m 3
 5 698 124 826 292 826 c 3
 452 826 613 710 613 511 c 3
 613 287 399 120 228 69 c 1
 230 66 233 65 238 65 c 3
 272 65 340 82 459 135 c 1
 405 82 249 -20 155 -20 c 3
 141 -20 114 -4 114 9 c 3
 114 88 158 118 241 157 c 0
 426 244 523 373 523 511 c 3
 523 646 418 736 292 736 c 3
 232 736 182 713 147 679 c 1
 203 669 247 618 247 560 c 3
 247 495 191 439 126 439 c 3
 62 439 5 496 5 560 c 3
EndSplineSet
EndChar

StartChar: uni1A65
Encoding: 6757 6757 42
Width: 0
VWidth: 2260
Flags: W
HStem: 940 80<-796.662 -602 -558.918 -421.315> 1282 80<-770.068 -456.112>
VStem: -915 80<1058.5 1221.13> -398 80<1039.5 1226.11>
AnchorPoint: "AboveMark" -613 1419 basemark 0
AnchorPoint: "AboveBase" -613 883 mark 0
LayerCount: 2
Fore
SplineSet
-613 1362 m 3
 -457 1362 -318 1287 -318 1138 c 3
 -318 1031 -389 940 -483 940 c 3
 -517 940 -562 958 -562 996 c 3
 -562 1019 -549 1030 -524 1030 c 3
 -511 1030 -496 1020 -480 1020 c 3
 -435 1020 -398 1079 -398 1138 c 3
 -398 1237 -498 1282 -613 1282 c 3
 -716 1282 -835 1236 -835 1138 c 3
 -835 1053 -742 1020 -665 1020 c 3
 -640 1020 -621 1022 -601 1026 c 1
 -602 945 l 1
 -623 942 -644 940 -665 940 c 3
 -797 940 -915 1011 -915 1138 c 3
 -915 1284 -766 1362 -613 1362 c 3
EndSplineSet
EndChar

StartChar: uni1A66
Encoding: 6758 6758 43
Width: 0
VWidth: 2260
Flags: W
HStem: 940 80<-797.633 -725 -528.977 -420.186> 1084 80<-529.992 -411> 1282 80<-770.068 -456.025>
VStem: -915 80<1054.04 1221.13> -610 80<1021.51 1083.45>
AnchorPoint: "AboveMark" -613 1419 basemark 0
AnchorPoint: "AboveBase" -613 883 mark 0
LayerCount: 2
Back
SplineSet
-610 1056 m 3
 -610 1116 -552 1164 -485 1164 c 3
 -353 1164 -252 1088 -186 1034 c 1
 -199 982 l 1
 -278 1029 -389 1084 -485 1084 c 3
 -515 1084 -530 1065 -530 1056 c 3
 -530 1035 -515 1020 -485 1020 c 3
 -437 1020 -398 1072 -398 1138 c 3
 -398 1237 -498 1282 -613 1282 c 3
 -716 1282 -835 1236 -835 1138 c 3
 -835 1078 -774 1020 -725 1020 c 1
 -725 940 l 1x70
 -817 940 -915 1032 -915 1138 c 3
 -915 1284 -766 1362 -613 1362 c 3
 -457 1362 -318 1287 -318 1138 c 3
 -318 1026 -392 940 -485 940 c 3
 -554 940 -610 988 -610 1056 c 3
EndSplineSet
Fore
SplineSet
-610 1056 m 3
 -610 1116 -552 1164 -485 1164 c 3
 -455 1164 -426 1160 -399 1153 c 1
 -409 1241 -504 1282 -613 1282 c 3
 -716 1282 -835 1236 -835 1138 c 3
 -835 1078 -774 1020 -725 1020 c 1
 -725 940 l 1
 -817 940 -915 1032 -915 1138 c 3
 -915 1284 -766 1362 -613 1362 c 3
 -457 1362 -318 1287 -318 1138 c 3
 -318 1133 -318 1128 -318 1123 c 1
 -265 1097 -221 1062 -186 1034 c 1
 -199 982 l 1
 -238 1005 -286 1030 -335 1050 c 1
 -362 984 -418 940 -485 940 c 3
 -554 940 -610 988 -610 1056 c 3
-411 1075 m 1
 -436 1081 -461 1084 -485 1084 c 3
 -515 1084 -530 1065 -530 1056 c 3
 -530 1035 -515 1020 -485 1020 c 3
 -454 1020 -426 1042 -411 1075 c 1
EndSplineSet
EndChar

StartChar: uni1A67
Encoding: 6759 6759 44
Width: 0
VWidth: 2260
Flags: W
HStem: 940 80<-558.918 -421.315> 940 60<-743.994 -685.515> 1060 60<-744.308 -685.515> 1282 80<-770.068 -456.112>
VStem: -915 80<1058.51 1221.13> -685 60<1000.51 1059.48> -398 80<1039.5 1226.11>
AnchorPoint: "AboveMark" -613 1419 basemark 0
AnchorPoint: "AboveBase" -611 883 mark 0
LayerCount: 2
Back
SplineSet
-745 1030 m 3
 -745 1013 -732 1000 -715 1000 c 3
 -698 1000 -685 1013 -685 1030 c 3
 -685 1047 -698 1060 -715 1060 c 3
 -732 1060 -745 1047 -745 1030 c 3
-805 1030 m 3
 -805 1080 -765 1120 -715 1120 c 3
 -665 1120 -625 1080 -625 1030 c 3
 -625 980 -665 940 -715 940 c 3
 -765 940 -805 980 -805 1030 c 3
-613 1362 m 3
 -457 1362 -318 1287 -318 1138 c 3
 -318 1031 -389 940 -483 940 c 3
 -517 940 -562 958 -562 996 c 3
 -562 1019 -549 1030 -524 1030 c 3
 -511 1030 -496 1020 -480 1020 c 3
 -435 1020 -398 1079 -398 1138 c 3
 -398 1237 -498 1282 -613 1282 c 3
 -716 1282 -835 1236 -835 1138 c 3
 -835 1057.99 -756 1020 -715 1020 c 1
 -715 940 l 1
 -797 940 -915 1011 -915 1138 c 3
 -915 1284 -766 1362 -613 1362 c 3
EndSplineSet
Fore
SplineSet
-745 1030 m 3x7e
 -745 1013 -732 1000 -715 1000 c 3
 -698 1000 -685 1013 -685 1030 c 3
 -685 1047 -698 1060 -715 1060 c 3
 -732 1060 -745 1047 -745 1030 c 3x7e
-715 940 m 3
 -797 940 -915 1011 -915 1138 c 3
 -915 1284 -766 1362 -613 1362 c 3
 -457 1362 -318 1287 -318 1138 c 3
 -318 1031 -389 940 -483 940 c 3
 -517 940 -562 958 -562 996 c 3
 -562 1019 -549 1030 -524 1030 c 3
 -511 1030 -496 1020 -480 1020 c 3xbe
 -435 1020 -398 1079 -398 1138 c 3
 -398 1237 -498 1282 -613 1282 c 3
 -716 1282 -835 1236 -835 1138 c 3
 -835 1104 -821 1077 -801 1058 c 1
 -789 1094 -755 1120 -715 1120 c 3
 -665 1120 -625 1080 -625 1030 c 3
 -625 980 -665 940 -715 940 c 3
EndSplineSet
EndChar

StartChar: uni1A68
Encoding: 6760 6760 45
Width: 0
VWidth: 2260
Flags: W
HStem: 940 80<-528.977 -420.186> 940 60<-743.994 -685.515> 1060 60<-744.23 -685.515> 1084 80<-529.992 -411> 1282 80<-770.068 -456.025>
VStem: -915 80<1061.37 1221.13> -685 60<1000.51 1059.48> -610 80<1021.51 1083.45>
AnchorPoint: "AboveMark" -613 1419 basemark 0
AnchorPoint: "AboveBase" -613 883 mark 0
LayerCount: 2
Back
SplineSet
-613 1282 m 3
 -716 1282 -835 1236 -835 1138 c 3
 -835 1057.99 -756 1020 -715 1020 c 1
 -715 940 l 1
 -797 940 -915 1011 -915 1138 c 3
 -915 1284 -766 1362 -613 1362 c 3
 -457 1362 -318 1287 -318 1138 c 3
 -318 1026 -392 940 -485 940 c 3
 -554 940 -610 988 -610 1056 c 3
 -610 1116 -552 1164 -485 1164 c 3
 -353 1164 -252 1088 -186 1034 c 1
 -199 982 l 1
 -278 1029 -389 1084 -485 1084 c 3
 -515 1084 -530 1065 -530 1056 c 3
 -530 1035 -515 1020 -485 1020 c 3
 -437 1020 -398 1072 -398 1138 c 3
 -398 1237 -498 1282 -613 1282 c 3
-745 1030 m 3
 -745 1013 -732 1000 -715 1000 c 3
 -698 1000 -685 1013 -685 1030 c 3
 -685 1047 -698 1060 -715 1060 c 3
 -732 1060 -745 1047 -745 1030 c 3
-805 1030 m 3
 -805 1080 -765 1120 -715 1120 c 3
 -665 1120 -625 1080 -625 1030 c 3
 -625 980 -665 940 -715 940 c 3
 -765 940 -805 980 -805 1030 c 3
EndSplineSet
Fore
SplineSet
-745 1030 m 3x6f
 -745 1013 -732 1000 -715 1000 c 3
 -698 1000 -685 1013 -685 1030 c 3
 -685 1047 -698 1060 -715 1060 c 3
 -732 1060 -745 1047 -745 1030 c 3x6f
-800 1059 m 1
 -788 1095 -755 1120 -715 1120 c 3
 -665 1120 -625 1080 -625 1030 c 3
 -625 980 -665 940 -715 940 c 3x6f
 -797 940 -915 1011 -915 1138 c 0
 -915 1284 -766 1362 -613 1362 c 3
 -457 1362 -318 1287 -318 1138 c 3
 -318 1133 -318 1128 -318 1123 c 1
 -265 1097 -221 1062 -186 1034 c 1
 -199 982 l 1
 -238 1005 -286 1030 -335 1050 c 1
 -362 984 -418 940 -485 940 c 3
 -554 940 -610 988 -610 1056 c 3
 -610 1116 -552 1164 -485 1164 c 3x9f
 -455 1164 -426 1160 -399 1153 c 1
 -409 1241 -504 1282 -613 1282 c 3
 -716 1282 -835 1236 -835 1138 c 3
 -835 1104 -820 1078 -800 1059 c 1
-411 1075 m 1
 -436 1081 -461 1084 -485 1084 c 3
 -515 1084 -530 1065 -530 1056 c 3
 -530 1035 -515 1020 -485 1020 c 3x9f
 -454 1020 -426 1042 -411 1075 c 1
EndSplineSet
EndChar

StartChar: uni1A69
Encoding: 6761 6761 46
Width: 0
VWidth: 2260
Flags: W
HStem: -492 60<-518.775 -82.4007>
VStem: -658 90<-399.938 -168.596>
AnchorPoint: "BelowMark" -658 -125 mark 0
AnchorPoint: "BelowBase" -613 -42 mark 0
LayerCount: 2
Fore
SplineSet
206 -364 m 1
 93 -432 -153 -492 -339 -492 c 3
 -460 -492 -566 -469 -658 -423 c 1
 -658 -178 l 1
 -625 -155 -596 -137 -568 -125 c 1
 -568 -377 l 1
 -518 -411 -434 -432 -339 -432 c 3
 -159 -432 94 -386 206 -364 c 1
EndSplineSet
EndChar

StartChar: uni1A6A
Encoding: 6762 6762 47
Width: 0
VWidth: 2260
Flags: W
HStem: -492 60<-518.775 -82.4007>
VStem: -658 90<-399.938 -168.596> -497 80<-340.1 -142.812>
AnchorPoint: "BelowMark" -658 -125 mark 0
AnchorPoint: "BelowBase" -613 -42 mark 0
LayerCount: 2
Fore
SplineSet
-417 -335 m 1
 -434 -342 -463 -350 -497 -360 c 1
 -497 -148 l 1
 -445 -128 -417 -125 -417 -125 c 1
 -417 -335 l 1
206 -364 m 1
 93 -432 -153 -492 -339 -492 c 3
 -460 -492 -566 -469 -658 -423 c 1
 -658 -178 l 1
 -625 -155 -596 -137 -568 -125 c 1
 -568 -377 l 1
 -518 -411 -434 -432 -339 -432 c 3
 -159 -432 94 -386 206 -364 c 1
EndSplineSet
EndChar

StartChar: uni1A6E
Encoding: 6766 6766 48
Width: 822
VWidth: 2260
Flags: W
HStem: -20 66<413.637 507.547> 156 66<408.453 507.547> 736 90<237.757 507.483>
VStem: 8 90<237.649 589.009> 337 66<86.1551 150.547> 513 66<51.453 150.547>
LayerCount: 2
Back
SplineSet
403 101 m 3x3e54
 403 71 428 46 458 46 c 3
 488 46 513 71 513 101 c 3
 513 131 488 156 458 156 c 3
 428 156 403 131 403 101 c 3x3e54
458 222 m 3
 523 222 579 166 579 101 c 3
 579 36 523 -20 458 -20 c 3
 394 -20 337 37 337 101 c 3x3e4c
 337 166 393 222 458 222 c 3
8 417 m 3
 8 642 161 826 385 826 c 3
 521 826 640 690 741 445 c 1
 614 612 496 736 385 736 c 3
 211 736 98 588 98 417 c 3
 98 225 230 70 458 70 c 1
 458 -20 l 1
 178 -20 8 176 8 417 c 3
EndSplineSet
Fore
SplineSet
458 222 m 3
 523 222 579 166 579 101 c 3
 579 36 523 -20 458 -20 c 3
 178 -20 8 176 8 417 c 3
 8 642 161 826 385 826 c 3
 521 826 640 690 741 445 c 1
 614 612 496 736 385 736 c 3
 211 736 98 588 98 417 c 3
 98 262 184 130 338 86 c 1
 337 91 337 96 337 101 c 3
 337 166 393 222 458 222 c 3
403 101 m 3
 403 71 428 46 458 46 c 3
 488 46 513 71 513 101 c 3
 513 131 488 156 458 156 c 3
 428 156 403 131 403 101 c 3
EndSplineSet
EndChar

StartChar: uni1A70
Encoding: 6768 6768 50
Width: 519
VWidth: 2260
Flags: W
HStem: -20 66<300.103 397.547> 156 66<299.162 397.547> 1570 90<152.008 565.689>
VStem: -170 90<979.62 1348.83> 50 90<124.355 353.116> 227 66<96.8163 149.934> 235 90<535.888 670.541> 403 66<51.453 150.547>
LayerCount: 2
Back
SplineSet
293 101 m 3x3e54
 293 71 318 46 348 46 c 3
 378 46 403 71 403 101 c 3
 403 131 378 156 348 156 c 3
 318 156 293 131 293 101 c 3x3e54
348 222 m 3
 413 222 469 166 469 101 c 3
 469 36 413 -20 348 -20 c 3
 284 -20 227 37 227 101 c 3x3e4c
 227 166 283 222 348 222 c 3
-170 1155 m 3
 -170 1451 53 1660 350 1660 c 3
 603 1660 777 1515 842 1318 c 1
 802 1247 l 1
 719 1464 571 1570 350 1570 c 3
 100 1570 -80 1399 -80 1155 c 3
 -80 797 325 817 325 607 c 3
 325 522 140 361 140 213 c 3
 140 135 227 70 348 70 c 1
 348 -20 l 1
 182 -20 50 79 50 213 c 3
 50 393 235 571 235 607 c 3
 235 726 -170 759 -170 1155 c 3
EndSplineSet
Fore
SplineSet
348 222 m 3xfd
 413 222 469 166 469 101 c 3
 469 36 413 -20 348 -20 c 3
 182 -20 50 79 50 213 c 3
 50 393 235 571 235 607 c 3
 235 726 -170 759 -170 1155 c 3
 -170 1451 53 1660 350 1660 c 3
 603 1660 777 1515 842 1318 c 1
 802 1247 l 1
 719 1464 571 1570 350 1570 c 3
 100 1570 -80 1399 -80 1155 c 3
 -80 797 325 817 325 607 c 3xfb
 325 522 140 361 140 213 c 3
 140 165 173 122 227 96 c 1
 227 164 280 222 348 222 c 3xfd
293 101 m 3xfd
 293 71 318 46 348 46 c 3
 378 46 403 71 403 101 c 3
 403 131 378 156 348 156 c 3
 318 156 293 131 293 101 c 3xfd
EndSplineSet
EndChar

StartChar: uni1A71
Encoding: 6769 6769 51
Width: 458
VWidth: 2260
Flags: W
HStem: -20 66<149.668 248.209> 156 66<149.453 248.965> 1658 90<106.526 394.278>
VStem: 38 90<537.512 722.342> 78 66<51.6678 150.547> 330 90<141.469 314.4> 473 90<1215.7 1578.13>
AnchorPoint: "BelowRight" 199 -42 basechar 0
LayerCount: 2
Back
SplineSet
144 101 m 3x3e54
 144 71 169 46 199 46 c 3
 229 46 254 71 254 101 c 3
 254 131 229 156 199 156 c 3
 169 156 144 131 144 101 c 3x3e54
199 222 m 3
 264 222 320 166 320 101 c 3
 320 36 264 -20 199 -20 c 3
 135 -20 78 37 78 101 c 3x3e4c
 78 166 134 222 199 222 c 3
247 1748 m 3
 444 1748 563 1622 563 1423 c 3
 563 1307 526 1190 452 1073 c 0
 418 1020 349 934 245 815 c 0
 170 730 128 659 128 616 c 3
 128 495 420 444 420 194 c 3
 420 92 316 -20 199 -20 c 1
 199 70 l 1
 264 70 330 139 330 194 c 3
 330 401 38 421 38 616 c 3
 38 677 74 753 150 842 c 0
 285 999 355 1083 362 1093 c 0
 438 1202 473 1332 473 1423 c 3
 473 1563 401 1658 247 1658 c 3
 57 1658 -66 1471 -105 1098 c 0
 -113 1025 -117 986 -142 939 c 1
 -166 993 -178 1054 -178 1122 c 3
 -178 1408 -17 1748 247 1748 c 3
EndSplineSet
Fore
SplineSet
144 101 m 3xee
 144 71 169 46 199 46 c 3
 229 46 254 71 254 101 c 3
 254 131 229 156 199 156 c 3
 169 156 144 131 144 101 c 3xee
199 -20 m 3
 135 -20 78 37 78 101 c 3xee
 78 166 134 222 199 222 c 3
 250 222 296 187 313 141 c 1
 324 158 330 177 330 194 c 3
 330 401 38 421 38 616 c 3
 38 677 74 753 150 842 c 0
 284 999 355 1083 362 1093 c 0
 438 1202 473 1332 473 1423 c 3
 473 1563 401 1658 247 1658 c 3
 57 1658 -64 1471 -105 1098 c 0
 -113 1025 -117 986 -142 939 c 1
 -166 993 -178 1054 -178 1122 c 3
 -178 1408 -17 1748 247 1748 c 3
 444 1748 563 1622 563 1423 c 3
 563 1307 526 1190 452 1073 c 0
 418 1020 349 934 245 815 c 0
 170 730 128 659 128 616 c 3xf6
 128 495 420 444 420 194 c 3
 420 92 316 -20 199 -20 c 3
EndSplineSet
EndChar

StartChar: uni1A72
Encoding: 6770 6770 52
Width: 407
VWidth: 2260
Flags: W
HStem: -20 66<179.861 279.547> 156 66<179.924 279.547>
VStem: -207 44<1603.05 1776.92> 68 90<131.884 537.418> 204 90<717.777 1050.3> 285 66<51.453 150.547>
AnchorPoint: "BelowRight" 230 -42 basechar 0
LayerCount: 2
Back
SplineSet
175 101 m 3x3e54
 175 71 200 46 230 46 c 3
 260 46 285 71 285 101 c 3
 285 131 260 156 230 156 c 3
 200 156 175 131 175 101 c 3x3e54
230 222 m 3
 295 222 351 166 351 101 c 3
 351 36 295 -20 230 -20 c 3
 166 -20 109 37 109 101 c 3x3e4c
 109 166 165 222 230 222 c 3
221 604 m 0
 177 461 158 347 158 282 c 3
 158 192 184 70 230 70 c 1
 230 -20 l 1
 124 -20 68 110 68 282 c 3
 68 365 89 477 131 618 c 128
 173 759 204 875 204 956 c 3
 204 1015 161 1060 96 1099 c 0
 2 1156 -60 1204 -91 1244 c 0
 -163 1339 -207 1494 -207 1689 c 0
 -207 1748 -199 1777 -184 1777 c 0
 -177 1777 -166 1755 -163 1732 c 0
 -153 1665 -126 1498 -104 1427 c 0
 -83 1360 -29 1284 76 1219 c 0
 151 1173 202 1139 226 1113 c 0
 265 1069 294 1024 294 956 c 3
 294 866 267 756 221 604 c 0
EndSplineSet
Fore
SplineSet
230 222 m 3xf8
 295 222 351 166 351 101 c 3xf4
 351 36 295 -20 230 -20 c 3
 124 -20 68 110 68 282 c 3
 68 365 89 477 131 618 c 0
 173 759 204 875 204 956 c 3
 204 1015 161 1060 96 1099 c 0
 2 1156 -60 1204 -91 1244 c 0
 -163 1339 -207 1494 -207 1689 c 3
 -207 1748 -199 1777 -184 1777 c 3
 -177 1777 -166 1755 -163 1732 c 0
 -153 1665 -126 1498 -104 1427 c 0
 -83 1360 -29 1284 76 1219 c 0
 151 1173 202 1139 226 1113 c 0
 265 1069 294 1024 294 956 c 3
 294 866 267 756 221 604 c 0
 178 461 158 347 158 282 c 3
 158 257 160 228 164 201 c 1
 183 214 206 222 230 222 c 3xf8
175 101 m 3
 175 71 200 46 230 46 c 3
 260 46 285 71 285 101 c 3
 285 131 260 156 230 156 c 3
 200 156 175 131 175 101 c 3
EndSplineSet
EndChar

StartChar: uni1A6D
Encoding: 6765 6765 53
Width: 369
VWidth: 2260
Flags: W
HStem: -438 90<-421.657 -0.402023> -190 66<-563.547 -464.453> 1245 85<-115.028 239.491> 1426 90<-609.491 -388.857>
VStem: -635 66<-294.286 -195.453> -459 66<-295.179 -195.453> 137 90<-192.351 949.395>
LayerCount: 2
Back
SplineSet
-569 -245 m 3x3e54
 -569 -275 -544 -300 -514 -300 c 3
 -484 -300 -459 -275 -459 -245 c 3
 -459 -215 -484 -190 -514 -190 c 3
 -544 -190 -569 -215 -569 -245 c 3x3e54
-514 -124 m 3
 -449 -124 -393 -180 -393 -245 c 3
 -393 -310 -449 -366 -514 -366 c 3
 -578 -366 -635 -309 -635 -245 c 3x3e4c
 -635 -180 -579 -124 -514 -124 c 3
137 136 m 2
 137 824 l 2
 137 912 80 985 -15 1052 c 0
 -194 1177 -566 1287 -854 1324 c 1
 -799 1379 -637 1516 -504 1516 c 3
 -471 1516 -385 1485 -244 1423 c 128
 -103 1361 9 1330 92 1330 c 3
 198 1330 267 1375 345 1440 c 1
 301 1287 193 1245 83 1245 c 3
 -2 1245 -121 1275 -271 1336 c 128
 -421 1397 -512 1426 -543 1426 c 3
 -565 1426 -611 1398 -612 1390 c 1
 -343 1303 -89 1213 53 1112 c 0
 162 1035 227 939 227 824 c 2
 227 136 l 2
 227 -258 147 -438 -233 -438 c 3
 -411 -438 -635 -385 -635 -245 c 1
 -545 -245 l 1
 -545 -300 -390 -348 -233 -348 c 3
 64 -348 137 -242 137 136 c 2
EndSplineSet
Fore
SplineSet
-514 -124 m 3
 -449 -124 -393 -180 -393 -245 c 3
 -393 -275 -405 -303 -424 -324 c 1
 -369 -339 -301 -348 -233 -348 c 3
 64 -348 137 -242 137 136 c 2
 137 824 l 2
 137 912 80 985 -15 1052 c 0
 -194 1177 -566 1287 -854 1324 c 1
 -799 1379 -637 1516 -504 1516 c 3
 -471 1516 -385 1485 -244 1423 c 0
 -103 1361 9 1330 92 1330 c 3
 198 1330 267 1375 345 1440 c 1
 301 1287 193 1245 83 1245 c 3
 -2 1245 -121 1275 -271 1336 c 0
 -421 1397 -512 1426 -543 1426 c 3
 -565 1426 -611 1398 -612 1390 c 1
 -343 1303 -89 1213 53 1112 c 0
 162 1035 227 939 227 824 c 2
 227 136 l 2
 227 -258 147 -438 -233 -438 c 3
 -411 -438 -635 -385 -635 -245 c 3
 -635 -180 -579 -124 -514 -124 c 3
-569 -245 m 3
 -569 -275 -544 -300 -514 -300 c 3
 -484 -300 -459 -275 -459 -245 c 3
 -459 -215 -484 -190 -514 -190 c 3
 -544 -190 -569 -215 -569 -245 c 3
EndSplineSet
EndChar

StartChar: uni1A54
Encoding: 6740 6740 54
Width: 1474
VWidth: 2260
Flags: W
HStem: -20 90<350.318 676.699 894.556 1161.24> -20 66<51.6678 141.398> 156 66<51.453 146.32> 584 66<66.6678 146.559> 760 66<66.453 165.547 645.5 741.458 1160.5 1249.05>
VStem: -20 66<51.6678 150.547> -5 66<655.668 754.547> 147 90<217 588> 171 66<654.917 754.011> 797 90<189.237 541.182> 1285 90<203.809 564.782>
AnchorPoint: "BelowRight" 1224 -42 basechar 0
AnchorPoint: "AboveBase" 1025 883 basechar 0
AnchorPoint: "BelowBase" 1025 -42 basechar 0
LayerCount: 2
Back
SplineSet
818 182 m 17
 873 113 960 70 1025 70 c 0
 1174 70 1285 193 1285 402 c 3
 1285 570 1189 627 1101 717 c 0
 1067 752 1048 773 1048 778 c 0
 1048 794 1151 826 1170 826 c 3
 1222 826 1263 802 1294 754 c 0
 1311 728 1329 681 1350 612 c 1
 1268 715 1215 766 1191 766 c 3
 1190 766 1186 765 1180 763 c 1
 1259 691 1375 581 1375 402 c 3
 1375 131 1216 -20 1025 -20 c 3
 931 -20 815 36 743 131 c 1
 818 182 l 17
61 705 m 3x3e54
 61 675 86 650 116 650 c 3
 146 650 171 675 171 705 c 3
 171 735 146 760 116 760 c 3
 86 760 61 735 61 705 c 3x3e54
116 826 m 3
 181 826 237 770 237 705 c 3
 237 640 181 584 116 584 c 3
 52 584 -5 641 -5 705 c 3x3e4c
 -5 770 51 826 116 826 c 3
101 -20 m 3
 37 -20 -20 37 -20 101 c 3x3e4c
 -20 166 36 222 101 222 c 3
 149 222 184 208 215 191 c 0
 309 138 404 70 524 70 c 3
 673 70 797 176 797 349 c 3
 797 521 711 653 544 770 c 1
 587 807 627 826 664 826 c 3
 683 826 727 804 796 762 c 128
 865 720 905 690 915 673 c 1
 898 673 863 687 808 714 c 128
 753 741 715 754 693 754 c 3
 692 754 689 753 684 752 c 1
 819 653 887 527 887 349 c 3
 887 141 736 -20 524 -20 c 3
 369 -20 278 53 177 125 c 0
 153 142 127 156 101 156 c 3
 71 156 46 131 46 101 c 3x3e54
 46 71 71 46 101 46 c 3
 131 46 147 72 147 112 c 2
 147 705 l 1
 237 705 l 1
 237 142 l 2
 237 33 165 -20 101 -20 c 3
EndSplineSet
Fore
SplineSet
61 705 m 3x3ae0
 61 675 86 650 116 650 c 3
 146 650 171 675 171 705 c 3
 171 735 146 760 116 760 c 3
 86 760 61 735 61 705 c 3x3ae0
147 143 m 1x7d60
 132 151 116 156 101 156 c 3
 71 156 46 131 46 101 c 3
 46 71 71 46 101 46 c 3
 131 46 147 72 147 112 c 2
 147 143 l 1x7d60
147 217 m 1
 147 588 l 1x7d60
 137 585 127 584 116 584 c 3
 52 584 -5 641 -5 705 c 3
 -5 770 51 826 116 826 c 3
 181 826 237 770 237 705 c 2
 237 178 l 1
 324 127 413 70 524 70 c 3
 673 70 797 176 797 349 c 3
 797 521 711 653 544 770 c 1
 587 807 627 826 664 826 c 3
 683 826 727 804 796 762 c 0
 865 720 905 690 915 673 c 1
 898 673 863 687 808 714 c 0
 753 741 715 754 693 754 c 3
 692 754 689 753 684 752 c 1
 819 653 887 527 887 349 c 3
 887 279 870 214 839 159 c 1
 894 104 968 70 1025 70 c 3
 1174 70 1285 193 1285 402 c 3
 1285 570 1189 627 1101 717 c 0
 1067 752 1048 773 1048 778 c 0
 1048 794 1151 826 1170 826 c 3
 1222 826 1263 802 1294 754 c 0
 1311 728 1329 681 1350 612 c 1
 1268 715 1215 766 1191 766 c 3
 1190 766 1186 765 1180 763 c 1
 1259 691 1375 581 1375 402 c 3
 1375 131 1216 -20 1025 -20 c 3
 947 -20 855 18 784 85 c 1
 720 19 629 -20 524 -20 c 3xbae0
 396 -20 312 29 230 87 c 1
 211 15 153 -20 101 -20 c 3
 37 -20 -20 37 -20 101 c 3
 -20 166 36 222 101 222 c 3
 118 222 133 220 147 217 c 1
EndSplineSet
EndChar

StartChar: uni1A55
Encoding: 6741 6741 55
Width: 294
VWidth: 2260
Flags: W
HStem: -343 90<217.205 421.373> -114 66<398.453 497.547> 1407 90<589.374 1208.05>
VStem: 60 90<-179.251 1098.8> 327 66<-218.804 -119.453> 503 66<-217.725 -119.453>
LayerCount: 2
Back
SplineSet
393 -169 m 3x3e54
 393 -199 418 -224 448 -224 c 3
 478 -224 503 -199 503 -169 c 3
 503 -139 478 -114 448 -114 c 3
 418 -114 393 -139 393 -169 c 3x3e54
448 -48 m 3
 513 -48 569 -104 569 -169 c 3
 569 -234 513 -290 448 -290 c 3
 384 -290 327 -233 327 -169 c 3x3e4c
 327 -104 383 -48 448 -48 c 3
329 -343 m 3
 178 -343 60 -233 60 9 c 2
 60 921 l 2
 60 1296 483 1497 883 1497 c 3
 1221 1497 1445 1366 1705 1230 c 1
 1493 1284 1181 1407 937 1407 c 3
 535 1407 150 1247 150 921 c 2
 150 9 l 2
 150 -177 227 -253 329 -253 c 3
 420 -253 479 -214 479 -169 c 1
 569 -169 l 1
 569 -291 441 -343 329 -343 c 3
EndSplineSet
Fore
SplineSet
393 -169 m 3
 393 -199 418 -224 448 -224 c 3
 478 -224 503 -199 503 -169 c 3
 503 -139 478 -114 448 -114 c 3
 418 -114 393 -139 393 -169 c 3
361 -251 m 1
 340 -229 327 -200 327 -169 c 3
 327 -104 383 -48 448 -48 c 3
 513 -48 569 -104 569 -169 c 3
 569 -291 441 -343 329 -343 c 3
 178 -343 60 -233 60 9 c 2
 60 921 l 2
 60 1296 483 1497 883 1497 c 3
 1221 1497 1445 1366 1705 1230 c 1
 1493 1284 1181 1407 937 1407 c 3
 535 1407 150 1247 150 921 c 2
 150 9 l 2
 150 -177 227 -253 329 -253 c 3
 340 -253 351 -252 361 -251 c 1
EndSplineSet
EndChar

StartChar: uni1A56
Encoding: 6742 6742 56
Width: 0
VWidth: 2260
Flags: W
HStem: -459 80<-499.579 -321.5> -459 60<-902.704 -844.515> -339 60<-903.884 -844.515> -163 80<-919.704 -715.606>
VStem: -1030 80<-312.856 -195.766> -844 60<-398.485 -339.515> -288 80<-343.203 -203.704>
AnchorPoint: "BelowMark" -288 -459 basemark 0
AnchorPoint: "BelowBase" -613 -44 mark 0
LayerCount: 2
Back
SplineSet
-904 -369 m 3
 -904 -386 -891 -399 -874 -399 c 3
 -857 -399 -844 -386 -844 -369 c 3
 -844 -352 -857 -339 -874 -339 c 3
 -891 -339 -904 -352 -904 -369 c 3
-964 -369 m 3
 -964 -319 -924 -279 -874 -279 c 3
 -824 -279 -784 -319 -784 -369 c 3
 -784 -419 -824 -459 -874 -459 c 3
 -924 -459 -964 -419 -964 -369 c 3
-425 -379 m 3
 -358 -379 -288 -332 -288 -272 c 3
 -288 -245 -311 -206 -363 -182 c 1
 -347 -117 -317 -83 -274 -83 c 3
 -231 -83 -184 -143 -132 -264 c 1
 -162 -239 -209 -205 -272 -160 c 1
 -246 -187 -208 -221 -208 -272 c 3
 -208 -379 -314 -459 -425 -459 c 3
 -607 -459 -650 -163 -802 -163 c 3
 -887 -163 -950 -204 -950 -272 c 3
 -950 -346 -913 -379 -874 -379 c 1
 -874 -459 l 1
 -976 -459 -1030 -369 -1030 -272 c 3
 -1030 -166 -938 -83 -802 -83 c 3
 -595 -83 -550 -379 -425 -379 c 3
EndSplineSet
Fore
SplineSet
-904 -369 m 3x7e
 -904 -386 -891 -399 -874 -399 c 3
 -857 -399 -844 -386 -844 -369 c 3
 -844 -352 -857 -339 -874 -339 c 3
 -891 -339 -904 -352 -904 -369 c 3x7e
-874 -459 m 3
 -976 -459 -1030 -369 -1030 -272 c 3
 -1030 -166 -938 -83 -802 -83 c 3
 -595 -83 -550 -379 -425 -379 c 3
 -358 -379 -288 -332 -288 -272 c 3
 -288 -245 -311 -206 -363 -182 c 1
 -347 -117 -317 -83 -274 -83 c 3
 -231 -83 -184 -143 -132 -264 c 1
 -162 -239 -209 -205 -272 -160 c 1
 -246 -187 -208 -221 -208 -272 c 3
 -208 -379 -314 -459 -425 -459 c 3xbe
 -607 -459 -650 -163 -802 -163 c 3
 -887 -163 -950 -204 -950 -272 c 3
 -950 -288 -948 -302 -945 -314 c 1
 -929 -293 -903 -279 -874 -279 c 3
 -824 -279 -784 -319 -784 -369 c 3
 -784 -419 -824 -459 -874 -459 c 3
EndSplineSet
EndChar

StartChar: uni1A53
Encoding: 6739 6739 57
Width: 1255
VWidth: 4760
Flags: W
HStem: -20 90<668.549 980.196> -20 66<195.255 293.547> 156 66<194.271 293.547> 736 90<236.39 492.351 724.642 1003.62> 827 21G<1214 1236.5> 1355 90<637.579 971.24>
VStem: 16 90<196.624 599.266> 299 66<51.453 150.547> 446 90<983.694 1262.6> 499 90<142.59 313.4> 568 90<340.783 654.626> 1006 90<669.504 733.495> 1092 90<187.275 510.977> 1233 11<828.92 1089>
AnchorPoint: "BelowRight" 1005 -42 basechar 0
AnchorPoint: "BelowBase" 578 -42 basechar 0
LayerCount: 2
Back
SplineSet
189 101 m 3x7e40
 189 71 214 46 244 46 c 3
 274 46 299 71 299 101 c 3
 299 131 274 156 244 156 c 3
 214 156 189 131 189 101 c 3x7e40
244 222 m 3
 309 222 365 166 365 101 c 3
 365 36 309 -20 244 -20 c 3xbe40
 180 -20 123 37 123 101 c 3
 123 166 179 222 244 222 c 3
16 445 m 3
 16 647 168 826 371 826 c 3
 554 826 658 675 658 502 c 3x7d80
 658 378 643 333 598 290 c 0
 590 282 589 261 589 242 c 3
 589 136 701 70 838 70 c 3
 988 70 1092 192 1092 355 c 3
 1092 472 1025 581 884 667 c 1
 956 662 l 1
 1013 673 l 1
 1021 667 1028 661 1031 658 c 0
 1106 583 1182 467 1182 355 c 3
 1182 154 1050 -20 838 -20 c 3
 654 -20 499 78 499 242 c 3xbe80
 499 307 511 330 536 355 c 0
 565 384 568 432 568 502 c 3
 568 632 495 736 371 736 c 3
 215 736 106 589 106 445 c 3
 106 260 184 70 244 70 c 1
 244 -20 l 1
 91 -20 16 260 16 445 c 3
804 1355 m 3
 662 1355 536 1283 536 1129 c 3
 536 932 726 826 937 826 c 3
 1045 826 1096 773 1096 704 c 3
 1096 650 1034 616 995 616 c 0
 956 616 936 636 884 667 c 1
 927 667 l 2
 980 667 1006 681 1006 704 c 3
 1006 726 985 736 937 736 c 3
 667 736 446 884 446 1129 c 3
 446 1326 602 1445 804 1445 c 3
 1067 1445 1244 1216 1244 946 c 3
 1244 907 1240 868 1233 827 c 1
 1195 1089 1071 1355 804 1355 c 3
EndSplineSet
Fore
SplineSet
804 1355 m 3xbf94
 662 1355 536 1283 536 1129 c 3
 536 932 726 826 937 826 c 3
 1045 826 1096 773 1096 704 c 3xbf94
 1096 674 1077 650 1053 635 c 1
 1120 560 1182 456 1182 355 c 3
 1182 154 1050 -20 838 -20 c 3
 654 -20 499 78 499 242 c 3xbf4c
 499 307 511 330 536 355 c 0
 565 384 568 432 568 502 c 3
 568 632 495 736 371 736 c 3
 215 736 106 589 106 445 c 3
 106 350 127 253 155 182 c 1
 177 207 209 222 244 222 c 3
 309 222 365 166 365 101 c 3
 365 36 309 -20 244 -20 c 3
 91 -20 16 260 16 445 c 3
 16 647 168 826 371 826 c 3
 554 826 658 675 658 502 c 3x7fa4
 658 378 643 333 598 290 c 0
 590 282 589 261 589 242 c 3
 589 136 701 70 838 70 c 3
 988 70 1092 192 1092 355 c 3xbf4c
 1092 472 1025 581 884 667 c 1
 927 667 l 2
 980 667 1006 681 1006 704 c 3
 1006 726 985 736 937 736 c 3
 667 736 446 884 446 1129 c 3
 446 1326 602 1445 804 1445 c 3
 1067 1445 1244 1216 1244 946 c 0
 1244 907 1240 868 1233 827 c 1
 1195 1089 1071 1355 804 1355 c 3xbf94
189 101 m 3
 189 71 214 46 244 46 c 3x7f04
 274 46 299 71 299 101 c 3
 299 131 274 156 244 156 c 3
 214 156 189 131 189 101 c 3
EndSplineSet
EndChar

StartChar: uni1A4D
Encoding: 6733 6733 58
Width: 1131
VWidth: 2260
Flags: W
HStem: -140 66<276.668 375.547> 74 66<406.696 637.269> 117 58<783 894.553> 134 66<276.738 375.547> 310 66<276.746 375.547> 736 90<212.115 453.055 638.945 871.261>
VStem: 11 90<315.717 611.618> 205 66<-68.3322 29.9455 257 305.083> 381 66<-68.547 30.729 205.453 304.547> 966 90<326.167 624.362>
LayerCount: 2
Back
SplineSet
271 -19 m 3x3e54
 271 -49 296 -74 326 -74 c 3
 356 -74 381 -49 381 -19 c 3
 381 11 356 36 326 36 c 3
 296 36 271 11 271 -19 c 3x3e54
326 102 m 3
 391 102 447 46 447 -19 c 3
 447 -84 391 -140 326 -140 c 3
 262 -140 205 -83 205 -19 c 3x3e4c
 205 46 261 102 326 102 c 3
1006 -107 m 1
 881 -42 691 74 460 74 c 3
 406 74 271 59 271 -19 c 9
 205 -19 l 1
 205 93 332 140 460 140 c 3
 645 140 911 -2 1006 -107 c 1
271 255 m 3x3e54
 271 225 296 200 326 200 c 3
 356 200 381 225 381 255 c 3
 381 285 356 310 326 310 c 3
 296 310 271 285 271 255 c 3x3e54
326 376 m 3
 391 376 447 320 447 255 c 3
 447 190 391 134 326 134 c 3
 262 134 205 191 205 255 c 3x3e4c
 205 320 261 376 326 376 c 3
1056 460 m 3
 1056 354 983 261 838 180 c 1
 843 177 849 175 855 175 c 3
 881 175 924 203 984 259 c 1
 939 164 879 117 805 117 c 3
 761 117 734 134 734 180 c 3
 734 192 745 214 754 217 c 0
 900 268 966 350 966 460 c 3
 966 575 886 736 772 736 c 3
 700 736 623 697 546 608 c 1
 469 697 392 736 320 736 c 3
 200 736 101 587 101 460 c 3
 101 312 202 224 326 224 c 1
 326 134 l 1
 150 134 11 263 11 460 c 3
 11 640 147 826 320 826 c 3
 409 826 484 791 546 721 c 1
 608 791 683 826 772 826 c 3
 932 826 1056 637 1056 460 c 3
EndSplineSet
Fore
SplineSet
326 376 m 3xafc0
 391 376 447 320 447 255 c 3
 447 190 391 134 326 134 c 3x9fc0
 150 134 11 263 11 460 c 3
 11 640 147 826 320 826 c 3
 409 826 484 791 546 721 c 1
 608 791 683 826 772 826 c 3
 932 826 1056 637 1056 460 c 3
 1056 354 983 261 838 180 c 1
 843 177 849 175 855 175 c 3
 881 175 924 203 984 259 c 1
 939 164 879 117 805 117 c 3
 761 117 734 134 734 180 c 3
 734 192 745 214 754 217 c 0
 900 268 966 350 966 460 c 3
 966 575 886 736 772 736 c 3
 700 736 623 697 546 608 c 1
 469 697 392 736 320 736 c 3
 200 736 101 587 101 460 c 3
 101 365 143 295 205 257 c 1
 206 321 262 376 326 376 c 3xafc0
271 255 m 3
 271 225 296 200 326 200 c 3
 356 200 381 225 381 255 c 3
 381 285 356 310 326 310 c 3
 296 310 271 285 271 255 c 3
1006 -107 m 1
 881 -42 691 74 460 74 c 3
 446 74 427 73 406 70 c 1
 431 48 447 16 447 -19 c 3
 447 -84 391 -140 326 -140 c 3
 262 -140 205 -83 205 -19 c 3
 205 93 332 140 460 140 c 3xcfc0
 645 140 911 -2 1006 -107 c 1
271 -19 m 3
 271 -49 296 -74 326 -74 c 3
 356 -74 381 -49 381 -19 c 3
 381 11 356 36 326 36 c 3
 296 36 271 11 271 -19 c 3
EndSplineSet
EndChar

StartChar: uni1A4E
Encoding: 6734 6734 59
Width: 1346
VWidth: 2260
Flags: W
HStem: -251 90<578.584 954.598> -120 66<245.668 344.547> -23 66<496.453 595.547> 94 66<375.696 606.269> 137 58<760 871.553> 154 66<253.738 352.547> 330 66<253.746 352.547> 736 90<189.115 430.055 615.945 848.261> 1294 85<839.972 1194.49> 1475 90<345.509 566.143>
VStem: -12 90<335.717 617.424> 174 66<-48.3322 49.9455 277 319.925> 350 66<-48.547 50.729 222.726 327.274> 425 66<-126.856 -28.453> 601 66<-127.753 -28.453> 943 90<346.167 625.591> 1092 90<-5.35141 998.395>
LayerCount: 2
Back
SplineSet
491 -78 m 3x3e54
 491 -108 516 -133 546 -133 c 3
 576 -133 601 -108 601 -78 c 3
 601 -48 576 -23 546 -23 c 3
 516 -23 491 -48 491 -78 c 3x3e54
546 43 m 3
 611 43 667 -13 667 -78 c 3
 667 -143 611 -199 546 -199 c 3
 482 -199 425 -142 425 -78 c 3x3e4c
 425 -13 481 43 546 43 c 3
240 1 m 3x3e54
 240 -29 265 -54 295 -54 c 3
 325 -54 350 -29 350 1 c 3
 350 31 325 56 295 56 c 3
 265 56 240 31 240 1 c 3x3e54
295 122 m 3
 360 122 416 66 416 1 c 3
 416 -64 360 -120 295 -120 c 3
 231 -120 174 -63 174 1 c 3x3e4c
 174 66 230 122 295 122 c 3
975 -87 m 1
 850 -22 660 94 429 94 c 3
 375 94 240 79 240 1 c 9
 174 1 l 1
 174 113 301 160 429 160 c 3
 614 160 880 18 975 -87 c 1
248 275 m 3x3e54
 248 245 273 220 303 220 c 3
 333 220 358 245 358 275 c 3
 358 305 333 330 303 330 c 3
 273 330 248 305 248 275 c 3x3e54
303 396 m 3
 368 396 424 340 424 275 c 3
 424 210 368 154 303 154 c 3
 239 154 182 211 182 275 c 3x3e4c
 182 340 238 396 303 396 c 3
1033 480 m 3
 1033 374 960 281 815 200 c 1
 820 197 826 195 832 195 c 3
 858 195 901 223 961 279 c 1
 916 184 856 137 782 137 c 3
 738 137 711 154 711 200 c 3
 711 212 722 234 731 237 c 0
 877 288 943 370 943 480 c 3
 943 575 863 736 749 736 c 3
 677 736 600 697 523 608 c 1
 446 697 369 736 297 736 c 3
 177 736 78 587 78 480 c 3
 78 332 179 244 303 244 c 1
 303 154 l 1
 127 154 -12 283 -12 480 c 3
 -12 640 124 826 297 826 c 3
 386 826 461 791 523 721 c 1
 585 791 660 826 749 826 c 3
 909 826 1033 637 1033 480 c 3
1092 323 m 2
 1092 873 l 2
 1092 961 1035 1034 940 1101 c 0
 761 1226 389 1336 101 1373 c 1
 156 1428 318 1565 451 1565 c 3
 484 1565 570 1534 711 1472 c 128
 852 1410 964 1379 1047 1379 c 3
 1153 1379 1222 1424 1300 1489 c 1
 1256 1336 1148 1294 1038 1294 c 3
 953 1294 834 1324 684 1385 c 128
 534 1446 443 1475 412 1475 c 3
 390 1475 344 1447 343 1439 c 1
 612 1352 866 1262 1008 1161 c 0
 1117 1084 1182 988 1182 873 c 2
 1182 323 l 2
 1182 -71 1102 -251 722 -251 c 3
 629 -251 425 -218 425 -78 c 1
 515 -78 l 1
 515 -136 650 -161 722 -161 c 3
 1019 -161 1092 -55 1092 323 c 2
EndSplineSet
Fore
SplineSet
303 396 m 3xebff80
 368 396 424 340 424 275 c 3
 424 210 368 154 303 154 c 3xe7ff80
 127 154 -12 283 -12 480 c 3
 -12 640 124 826 297 826 c 3
 386 826 461 791 523 721 c 1
 585 791 660 826 749 826 c 3
 909 826 1033 637 1033 480 c 3
 1033 374 960 281 815 200 c 1
 820 197 826 195 832 195 c 3
 858 195 901 223 961 279 c 1
 916 184 856 137 782 137 c 3
 738 137 711 154 711 200 c 3
 711 212 722 234 731 237 c 0
 877 288 943 370 943 480 c 3
 943 575 863 736 749 736 c 3
 677 736 600 697 523 608 c 1
 446 697 369 736 297 736 c 3
 177 736 78 587 78 480 c 3
 78 385 120 315 182 277 c 1
 183 341 239 396 303 396 c 3xebff80
248 275 m 0
 248 245 273 220 303 220 c 3
 333 220 358 245 358 275 c 3
 358 305 333 330 303 330 c 3
 273 330 248 305 248 275 c 0
975 -87 m 1
 850 -22 660 94 429 94 c 3
 415 94 396 93 375 90 c 1
 400 68 416 36 416 1 c 3
 416 -64 360 -120 295 -120 c 3
 231 -120 174 -63 174 1 c 3
 174 113 301 160 429 160 c 3xf3ff80
 614 160 880 18 975 -87 c 1
546 43 m 3
 611 43 667 -13 667 -78 c 3
 667 -106 657 -132 640 -153 c 1
 670 -158 699 -161 722 -161 c 3
 1019 -161 1092 -55 1092 323 c 2
 1092 873 l 2
 1092 961 1035 1034 940 1101 c 0
 761 1226 389 1336 101 1373 c 1
 156 1428 318 1565 451 1565 c 3
 484 1565 570 1534 711 1472 c 0
 852 1410 964 1379 1047 1379 c 3
 1153 1379 1222 1424 1300 1489 c 1
 1256 1336 1148 1294 1038 1294 c 3
 953 1294 834 1324 684 1385 c 0
 534 1446 443 1475 412 1475 c 3
 390 1475 344 1447 343 1439 c 1
 612 1352 866 1262 1008 1161 c 0
 1117 1084 1182 988 1182 873 c 2
 1182 323 l 2
 1182 -71 1102 -251 722 -251 c 3
 629 -251 425 -218 425 -78 c 3
 425 -13 481 43 546 43 c 3
491 -78 m 3
 491 -108 516 -133 546 -133 c 3
 576 -133 601 -108 601 -78 c 3
 601 -48 576 -23 546 -23 c 3
 516 -23 491 -48 491 -78 c 3
240 1 m 3
 240 -29 265 -54 295 -54 c 3
 325 -54 350 -29 350 1 c 3
 350 31 325 56 295 56 c 3
 265 56 240 31 240 1 c 3
EndSplineSet
EndChar

StartChar: uni1A50
Encoding: 6736 6736 60
Width: 1004
VWidth: 2260
Flags: W
HStem: -535 40<455.541 578.05> -435 62<534.636 696.198> -20 66<286.817 383.547> 156 66<284.208 383.547> 736 90<296.726 623.45>
VStem: 9 90<193.039 536.93> 250 90<-428.071 -225.382> 389 66<51.453 150.547> 430 90<-361.887 -229.884> 822 90<218.556 536.93>
LayerCount: 2
Back
SplineSet
648 -138 m 1
 546 -162 430 -240 430 -309 c 3
 430 -375 493 -435 583 -435 c 3
 643 -435 714 -408 786 -339 c 1
 738 -362 683 -373 636 -373 c 3
 571 -373 520 -352 520 -309 c 3
 520 -243 567 -198 648 -138 c 1
279 101 m 3x3e54
 279 71 304 46 334 46 c 3
 364 46 389 71 389 101 c 3
 389 131 364 156 334 156 c 3
 304 156 279 131 279 101 c 3x3e54
334 222 m 3
 399 222 455 166 455 101 c 3
 455 36 399 -20 334 -20 c 3
 270 -20 213 37 213 101 c 3x3e4c
 213 166 269 222 334 222 c 3
488 -535 m 3
 363 -535 250 -435 250 -309 c 3
 250 -207 335 -138 442 -71 c 0
 531 -16 628 36 696 108 c 0
 773 191 822 276 822 376 c 3
 822 556 656 736 460 736 c 3
 264 736 99 556 99 376 c 3
 99 201 198 70 334 70 c 1
 334 -20 l 1
 140 -20 9 158 9 376 c 3
 9 609 215 826 460 826 c 3
 705 826 912 609 912 376 c 3
 912 259 862 154 762 47 c 0
 717 -2 625 -67 488 -148 c 0
 389 -207 340 -260 340 -309 c 3
 340 -433 438 -495 569 -495 c 3
 601 -495 636 -491 674 -483 c 1
 617 -506 567 -535 488 -535 c 3
EndSplineSet
Fore
SplineSet
334 222 m 3xff40
 399 222 455 166 455 101 c 3
 455 36 399 -20 334 -20 c 3
 140 -20 9 158 9 376 c 3
 9 609 215 826 460 826 c 3
 705 826 912 609 912 376 c 3
 912 259 862 154 762 47 c 0
 717 -2 625 -67 488 -148 c 0
 389 -207 340 -260 340 -309 c 3
 340 -433 438 -495 569 -495 c 3
 601 -495 636 -491 674 -483 c 1
 617 -506 567 -535 488 -535 c 3
 363 -535 250 -435 250 -309 c 3
 250 -207 335 -138 442 -71 c 0
 531 -15 628 36 696 108 c 0
 773 191 822 276 822 376 c 3
 822 556 656 736 460 736 c 3
 264 736 99 556 99 376 c 3
 99 259 143 162 213 110 c 1
 218 171 272 222 334 222 c 3xff40
279 101 m 3
 279 71 304 46 334 46 c 3
 364 46 389 71 389 101 c 3
 389 131 364 156 334 156 c 3
 304 156 279 131 279 101 c 3
648 -138 m 1
 546 -162 430 -240 430 -309 c 3
 430 -375 493 -435 583 -435 c 3
 643 -435 714 -408 786 -339 c 1
 738 -362 683 -373 636 -373 c 3
 571 -373 520 -352 520 -309 c 3xfec0
 520 -243 567 -198 648 -138 c 1
EndSplineSet
EndChar

StartChar: uni1A4F
Encoding: 6735 6735 61
Width: 1004
VWidth: 2260
Flags: W
HStem: -535 40<455.541 578.05> -20 66<286.817 383.547> 156 66<284.208 383.547> 736 90<296.726 623.45>
VStem: 9 90<193.039 536.93> 250 90<-428.071 -225.382> 389 66<51.453 150.547> 822 90<218.556 536.93>
LayerCount: 2
Back
SplineSet
279 101 m 3x3e54
 279 71 304 46 334 46 c 3
 364 46 389 71 389 101 c 3
 389 131 364 156 334 156 c 3
 304 156 279 131 279 101 c 3x3e54
334 222 m 3
 399 222 455 166 455 101 c 3
 455 36 399 -20 334 -20 c 3
 270 -20 213 37 213 101 c 3x3e4c
 213 166 269 222 334 222 c 3
488 -535 m 3
 363 -535 250 -435 250 -309 c 3
 250 -207 335 -138 442 -71 c 0
 531 -16 628 36 696 108 c 0
 773 191 822 276 822 376 c 3
 822 556 656 736 460 736 c 3
 264 736 99 556 99 376 c 3
 99 201 198 70 334 70 c 1
 334 -20 l 1
 140 -20 9 158 9 376 c 3
 9 609 215 826 460 826 c 3
 705 826 912 609 912 376 c 3
 912 259 862 154 762 47 c 0
 717 -2 625 -67 488 -148 c 0
 389 -207 340 -260 340 -309 c 3
 340 -433 438 -495 569 -495 c 3
 601 -495 636 -491 674 -483 c 1
 617 -506 567 -535 488 -535 c 3
EndSplineSet
Fore
SplineSet
334 222 m 3
 399 222 455 166 455 101 c 3
 455 36 399 -20 334 -20 c 3
 140 -20 9 158 9 376 c 3
 9 609 215 826 460 826 c 3
 705 826 912 609 912 376 c 3
 912 259 862 154 762 47 c 0
 717 -2 625 -67 488 -148 c 0
 389 -207 340 -260 340 -309 c 3
 340 -433 438 -495 569 -495 c 3
 601 -495 636 -491 674 -483 c 1
 617 -506 567 -535 488 -535 c 3
 363 -535 250 -435 250 -309 c 3
 250 -207 335 -138 442 -71 c 0
 531 -16 628 36 696 108 c 0
 773 191 822 276 822 376 c 3
 822 556 656 736 460 736 c 3
 264 736 99 556 99 376 c 3
 99 259 143 162 213 110 c 1
 218 171 272 222 334 222 c 3
279 101 m 3
 279 71 304 46 334 46 c 3
 364 46 389 71 389 101 c 3
 389 131 364 156 334 156 c 3
 304 156 279 131 279 101 c 3
EndSplineSet
EndChar

StartChar: uni1A51
Encoding: 6737 6737 62
Width: 796
VWidth: 2260
Flags: W
HStem: -498 42<317.756 510.752> -20 90<333.646 497.205> 255 66<248.453 347.547> 736 90<193.804 494.9>
VStem: -28 90<-131.338 581.824> 177 66<150.195 249.547> 353 66<149.952 249.547> 614 90<216.258 602.844>
LayerCount: 2
Back
SplineSet
243 200 m 3x3e54
 243 170 268 145 298 145 c 3
 328 145 353 170 353 200 c 3
 353 230 328 255 298 255 c 3
 268 255 243 230 243 200 c 3x3e54
298 321 m 3
 363 321 419 265 419 200 c 3
 419 135 363 79 298 79 c 3
 234 79 177 136 177 200 c 3x3e4c
 177 265 233 321 298 321 c 3
614 416 m 3
 614 588 524 736 353 736 c 3
 130 736 62 580 62 287 c 3
 62 -198 80 -456 480 -456 c 3
 526 -456 583 -453 657 -447 c 1
 576 -474 465 -498 379 -498 c 3
 27 -498 -28 -246 -28 287 c 3
 -28 667 97 826 353 826 c 3
 579 826 704 637 704 416 c 3
 704 214 592 -20 393 -20 c 3
 263 -20 177 79 177 200 c 1
 267 200 l 1
 267 119 319 70 393 70 c 3
 538 70 614 274 614 416 c 3
EndSplineSet
Fore
SplineSet
298 321 m 3
 363 321 419 265 419 200 c 3
 419 146 381 99 331 84 c 1
 349 75 370 70 393 70 c 3
 538 70 614 274 614 416 c 3
 614 588 524 736 353 736 c 3
 130 736 62 580 62 287 c 3
 62 -198 80 -456 480 -456 c 3
 526 -456 583 -453 657 -447 c 1
 576 -474 465 -498 379 -498 c 3
 27 -498 -28 -246 -28 287 c 3
 -28 667 97 826 353 826 c 3
 579 826 704 637 704 416 c 3
 704 214 592 -20 393 -20 c 3
 263 -20 177 79 177 200 c 3
 177 265 233 321 298 321 c 3
243 200 m 3
 243 170 268 145 298 145 c 3
 328 145 353 170 353 200 c 3
 353 230 328 255 298 255 c 3
 268 255 243 230 243 200 c 3
EndSplineSet
EndChar

StartChar: uni1A52
Encoding: 6738 6738 63
Width: 1572
VWidth: 2260
Flags: W
HStem: -20 66<300.103 397.547 1189.67 1306.37> 156 66<299.162 397.547 1189.45 1295.51> 736 90<870.209 1251.43> 760 66<587.453 686.406> 1570 90<152.008 565.689>
VStem: -170 90<979.62 1348.83> 50 90<124.355 353.116> 227 66<96.8163 149.934> 235 90<535.888 670.541> 403 66<51.453 150.547> 516 66<655.836 754.547> 525 90<188.757 383.684> 1118 66<51.6678 150.547> 1323 56<-42.2551 -1> 1421 90<186.947 561.778>
LayerCount: 2
Back
SplineSet
920 560 m 7x3e54
 920 530 945 505 975 505 c 7
 1005 505 1030 530 1030 560 c 7
 1030 590 1005 615 975 615 c 7
 945 615 920 590 920 560 c 7x3e54
975 681 m 7
 1040 681 1096 625 1096 560 c 7
 1096 495 1040 439 975 439 c 7
 911 439 854 496 854 560 c 7x3e4c
 854 625 910 681 975 681 c 7
1141 826 m 7
 1301 826 1462 710 1462 511 c 7
 1462 287 1248 120 1077 69 c 5
 1079 66 1082 65 1087 65 c 7
 1121 65 1189 82 1308 135 c 5
 1254 82 1098 -20 1004 -20 c 7
 990 -20 963 -4 963 9 c 7
 963 88 1007 118 1090 157 c 4
 1275 244 1372 373 1372 511 c 7
 1372 646 1267 736 1141 736 c 7
 1023 736 944 649 944 560 c 5
 854 560 l 5
 854 698 973 826 1141 826 c 7
321 921 m 3x3e54
 321 891 346 866 376 866 c 3
 406 866 431 891 431 921 c 3
 431 951 406 976 376 976 c 3
 346 976 321 951 321 921 c 3x3e54
376 1042 m 3
 441 1042 497 986 497 921 c 3
 497 856 441 800 376 800 c 3
 312 800 255 857 255 921 c 3x3e4c
 255 986 311 1042 376 1042 c 3
1056 833 m 1
 931 898 741 1014 510 1014 c 3
 456 1014 321 999 321 921 c 9
 255 921 l 1
 255 1033 382 1080 510 1080 c 3
 695 1080 961 938 1056 833 c 1
279 101 m 3x3e54
 279 71 304 46 334 46 c 3
 364 46 389 71 389 101 c 3
 389 131 364 156 334 156 c 3
 304 156 279 131 279 101 c 3x3e54
334 222 m 3
 399 222 455 166 455 101 c 3
 455 36 399 -20 334 -20 c 3
 270 -20 213 37 213 101 c 3x3e4c
 213 166 269 222 334 222 c 3
488 -535 m 3
 363 -535 250 -435 250 -309 c 3
 250 -207 335 -138 442 -71 c 0
 531 -16 628 36 696 108 c 0
 773 191 822 276 822 376 c 3
 822 556 656 736 460 736 c 3
 264 736 99 556 99 376 c 3
 99 201 198 70 334 70 c 1
 334 -20 l 1
 140 -20 9 158 9 376 c 3
 9 609 215 826 460 826 c 3
 705 826 912 609 912 376 c 3
 912 259 862 154 762 47 c 0
 717 -2 625 -67 488 -148 c 0
 389 -207 340 -260 340 -309 c 3
 340 -433 438 -495 569 -495 c 3
 601 -495 636 -491 674 -483 c 1
 617 -506 567 -535 488 -535 c 3
1387 430 m 3
 1387 585 1278 739 1126 739 c 3
 1056 739 996 707 929 622 c 2
 788 445 l 1
 839 570 876 650 898 683 c 0
 955 770 1024 812 1107 812 c 3
 1329 812 1456 650 1456 423 c 3
 1456 179 1309 2 1069 2 c 3
 1024 2 987 17 956 48 c 1
 1101 80 l 2
 1282 119 1387 220 1387 430 c 3
1033 261 m 3
 1099 261 1156 204 1156 138 c 3
 1156 73 1099 16 1033 16 c 3
 968 16 911 73 911 138 c 3
 911 204 968 261 1033 261 c 3
1077 135 m 131
 1077 166 1062 182 1031 182 c 259
 1000 182 985 166 985 135 c 131
 985 104 1000 88 1031 88 c 259
 1062 88 1077 104 1077 135 c 131
EndSplineSet
Fore
Refer: 37 6731 N 1 0 0 1 519 0 2
Refer: 50 6768 N 1 0 0 1 0 0 2
EndChar

StartChar: uni1A42
Encoding: 6722 6722 64
Width: 985
VWidth: 2260
Flags: W
HStem: -548 90<279.701 724.724> -344 90<380.684 477.316> -156 90<381.063 476.946> -20 90<211.754 523.332> 355 66<64.453 163.547> 670 90<464.603 735.698> 736 90<231.43 515.973>
VStem: -7 66<253.757 349.547> 111 90<-391.803 -209.203> 169 66<250.996 349.547> 290 90<-253.316 -179.497> 478 90<-253.316 -183.556> 650 90<182.164 404.726> 811 90<-372.124 736>
LayerCount: 2
Back
SplineSet
290 -205 m 3
 290 -128 352 -66 429 -66 c 3
 506 -66 568 -128 568 -205 c 3
 568 -282 506 -344 429 -344 c 3
 352 -344 290 -282 290 -205 c 3
380 -205 m 3
 380 -232 402 -254 429 -254 c 3
 456 -254 478 -232 478 -205 c 3
 478 -178 456 -156 429 -156 c 3
 402 -156 380 -178 380 -205 c 3
59 300 m 3x3e54
 59 270 84 245 114 245 c 3
 144 245 169 270 169 300 c 3
 169 330 144 355 114 355 c 3
 84 355 59 330 59 300 c 3x3e54
114 421 m 3
 179 421 235 365 235 300 c 3
 235 235 179 179 114 179 c 3
 50 179 -7 236 -7 300 c 3x3e4c
 -7 365 49 421 114 421 c 3
429 -66 m 3
 559 -66 655 -124 712 -258 c 1
 712 -261 711 -262 709 -263 c 1
 699 -263 668 -245 616 -210 c 128
 584 -188 518 -156 429 -156 c 3
 298 -156 201 -202 201 -307 c 3
 201 -426 377 -458 513 -458 c 3
 736 -458 811 -396 811 -175 c 2
 811 736 l 1
 704 695 650 670 613 670 c 3
 550 670 418 736 345 736 c 3
 277 736 223 686 181 653 c 1
 188 648 261 638 396 607 c 0
 583 563 740 465 740 296 c 3
 740 116 556 -20 369 -20 c 3
 192 -20 -7 115 -7 300 c 1
 83 300 l 1
 83 163 246 70 369 70 c 3
 508 70 650 172 650 296 c 3
 650 391 568 469 388 516 c 0
 260 549 135 565 14 565 c 1
 117 739 228 826 345 826 c 3
 441 826 569 760 613 760 c 3
 640 760 777 826 804 826 c 3
 865 826 883 806 901 772 c 1
 901 -175 l 2
 901 -451 783 -548 513 -548 c 3
 310 -548 111 -485 111 -307 c 3
 111 -140 259 -66 429 -66 c 3
EndSplineSet
Fore
SplineSet
114 421 m 3xfbbc
 179 421 235 365 235 300 c 3
 235 240 187 188 129 180 c 1
 186 112 287 70 369 70 c 3
 508 70 650 172 650 296 c 3
 650 391 568 469 388 516 c 0
 260 549 135 565 14 565 c 1
 117 739 228 826 345 826 c 3xfb7c
 441 826 569 760 613 760 c 3xfd7c
 640 760 777 826 804 826 c 3
 865 826 883 806 901 772 c 1
 901 -175 l 2
 901 -451 783 -548 513 -548 c 3
 310 -548 111 -485 111 -307 c 3
 111 -140 259 -66 429 -66 c 3
 559 -66 655 -124 712 -258 c 1
 712 -261 711 -262 709 -263 c 1
 699 -263 668 -245 616 -210 c 0
 604 -202 587 -192 566 -183 c 1
 567 -190 568 -198 568 -205 c 3
 568 -282 506 -344 429 -344 c 3
 352 -344 290 -282 290 -205 c 3
 290 -196 290 -187 292 -179 c 1
 236 -202 201 -244 201 -307 c 3
 201 -426 377 -458 513 -458 c 3
 736 -458 811 -396 811 -175 c 2
 811 736 l 1xfbbc
 704 695 650 670 613 670 c 3xfdbc
 550 670 418 736 345 736 c 3
 277 736 223 686 181 653 c 1
 188 648 261 638 396 607 c 0
 583 563 740 465 740 296 c 3
 740 116 556 -20 369 -20 c 3
 192 -20 -7 115 -7 300 c 3
 -7 365 49 421 114 421 c 3xfbbc
59 300 m 3
 59 270 84 245 114 245 c 3
 144 245 169 270 169 300 c 3
 169 330 144 355 114 355 c 3
 84 355 59 330 59 300 c 3
380 -205 m 3
 380 -232 402 -254 429 -254 c 3
 456 -254 478 -232 478 -205 c 3
 478 -178 456 -156 429 -156 c 3
 402 -156 380 -178 380 -205 c 3
EndSplineSet
EndChar

StartChar: uni1A59
Encoding: 6745 6745 65
Width: 0
VWidth: 2260
Flags: W
HStem: 940 60<-642.485 -583.515> 1021 80<-380.556 -203.741> 1282 80<-849.846 -644.722>
VStem: -703 60<1000.51 1059.77> -583 60<1000.51 1059.67>
AnchorPoint: "AboveMark" -613 1419 basemark 0
AnchorPoint: "AboveBase" -613 883 mark 0
LayerCount: 2
Back
SplineSet
-643 1030 m 3xba
 -643 1013 -630 1000 -613 1000 c 3
 -596 1000 -583 1013 -583 1030 c 3
 -583 1047 -596 1060 -613 1060 c 3
 -630 1060 -643 1047 -643 1030 c 3xba
-703 1030 m 3
 -703 1080 -663 1120 -613 1120 c 3
 -563 1120 -523 1080 -523 1030 c 3xbc
 -523 980 -563 940 -613 940 c 3
 -663 940 -703 980 -703 1030 c 3
-523 1030 m 1
 -603 1030 l 1
 -603 1072 -686 1116 -732 1141 c 0
 -840 1200 -921 1219 -1006 1219 c 3
 -1019 1219 -1031 1218 -1043 1217 c 1
 -955 1322 -832 1362 -759 1362 c 3
 -696 1362 -647 1348 -589 1300 c 0
 -495 1222 -466 1194 -419 1163 c 0
 -349 1117 -290 1101 -209 1101 c 3
 -199 1101 -163 1104 -163 1104 c 1
 -229 1024 l 1
 -240 1022 -252 1021 -264 1021 c 3xdc
 -323 1021 -390 1046 -464 1097 c 0
 -483 1110 -543 1157 -640 1239 c 0
 -678 1271 -732 1282 -759 1282 c 3
 -791 1282 -813 1278 -853 1265 c 1
 -813 1263 -770 1252 -688 1207 c 0
 -585 1150 -523 1103 -523 1030 c 1
EndSplineSet
Fore
SplineSet
-643 1030 m 3
 -643 1013 -630 1000 -613 1000 c 3
 -596 1000 -583 1013 -583 1030 c 3
 -583 1047 -596 1060 -613 1060 c 3
 -630 1060 -643 1047 -643 1030 c 3
-523 1030 m 3
 -523 980 -563 940 -613 940 c 3
 -663 940 -703 980 -703 1030 c 3
 -703 1060 -688 1087 -666 1103 c 1
 -689 1118 -713 1131 -732 1141 c 0
 -840 1200 -921 1219 -1006 1219 c 3
 -1019 1219 -1031 1218 -1043 1217 c 1
 -955 1322 -832 1362 -759 1362 c 3
 -696 1362 -647 1348 -589 1300 c 0
 -495 1222 -466 1194 -419 1163 c 0
 -349 1117 -290 1101 -209 1101 c 3
 -199 1101 -163 1104 -163 1104 c 1
 -229 1024 l 1
 -240 1022 -252 1021 -264 1021 c 3
 -323 1021 -390 1046 -464 1097 c 0
 -483 1110 -543 1157 -640 1239 c 0
 -678 1271 -732 1282 -759 1282 c 3
 -791 1282 -813 1278 -853 1265 c 1
 -813 1263 -770 1252 -688 1207 c 0
 -585 1150 -523 1103 -523 1030 c 3
EndSplineSet
EndChar

StartChar: uni1A90
Encoding: 6800 6800 66
Width: 958
VWidth: 2260
Flags: W
HStem: -20 90<266.172 601.828> 736 90<266.172 601.828>
VStem: 5 90<237.908 568.092> 773 90<237.908 568.092>
LayerCount: 2
Back
SplineSet
863 409 m 3
 863 171 657 0 423 0 c 27
 192 0 5 192 5 418 c 3
 5 627 185 826 434 826 c 3
 660 826 863 663 863 409 c 3
771 375 m 3
 771 585 598 751 387 751 c 3
 229 751 87 612 87 453 c 3
 87 253 278 76 477 76 c 3
 634 76 771 217 771 375 c 3
EndSplineSet
Fore
SplineSet
95 403 m 3
 95 219 247 70 434 70 c 3
 621 70 773 219 773 403 c 3
 773 587 621 736 434 736 c 3
 247 736 95 587 95 403 c 3
5 403 m 3
 5 636 197 826 434 826 c 3
 671 826 863 636 863 403 c 3
 863 170 671 -20 434 -20 c 3
 197 -20 5 170 5 403 c 3
EndSplineSet
EndChar

StartChar: uni1A91
Encoding: 6801 6801 67
Width: 857
VWidth: 2260
Flags: W
HStem: -20 63<346.443 413.512> 162 90<165.591 279.723> 453 66<287.449 400.551> 736 90<223.04 541.215>
VStem: 11 90<320.311 611.618> 208 66<314.95 440.132> 414 66<316.062 440.132> 664 90<278.169 611.618>
LayerCount: 2
Back
SplineSet
274 378 m 3
 274 337 305 303 344 303 c 3
 383 303 414 337 414 378 c 3
 414 419 383 453 344 453 c 3
 305 453 274 419 274 378 c 3
298 378 m 3
 298 350 319 327 344 327 c 3
 369 327 390 350 390 378 c 3
 390 406 369 429 344 429 c 3
 319 429 298 406 298 378 c 3
208 378 m 3
 208 456 269 519 344 519 c 3
 419 519 480 456 480 378 c 3
 480 300 419 237 344 237 c 3
 269 237 208 300 208 378 c 3
101 459 m 3
 101 356 174 252 258 252 c 3
 319 252 390 297 390 378 c 1
 480 378 l 1
 480 254 375 162 258 162 c 3
 118 162 11 315 11 459 c 3
 11 678 179 826 382 826 c 3
 585 826 754 678 754 459 c 3
 754 224 565 12 356 -20 c 1
 314 43 l 1
 495 64 664 256 664 459 c 3
 664 626 539 736 382 736 c 3
 225 736 101 626 101 459 c 3
EndSplineSet
Fore
SplineSet
208 378 m 3
 208 456 269 519 344 519 c 3
 419 519 480 456 480 378 c 3
 480 254 375 162 258 162 c 3
 118 162 11 315 11 459 c 3
 11 678 179 826 382 826 c 3
 585 826 754 678 754 459 c 3
 754 224 565 12 356 -20 c 1
 314 43 l 1
 495 64 664 256 664 459 c 3
 664 626 539 736 382 736 c 3
 225 736 101 626 101 459 c 3
 101 356 174 252 258 252 c 3
 265 252 273 253 280 254 c 1
 237 278 208 324 208 378 c 3
274 378 m 3
 274 337 305 303 344 303 c 3
 383 303 414 337 414 378 c 3
 414 419 383 453 344 453 c 3
 305 453 274 419 274 378 c 3
EndSplineSet
EndChar

StartChar: uni1A92
Encoding: 6802 6802 68
Width: 691
VWidth: 2260
Flags: W
HStem: -20 90<182.062 293> 288 90<332.969 479.031> 1564 90<224.154 476.709>
VStem: 15 90<151.249 1432.44> 231 90<128.436 276.031> 491 90<129.116 276.031> 616 87<1217.84 1399.41>
LayerCount: 2
Back
SplineSet
321 203 m 3
 321 156 359 118 406 118 c 3
 453 118 491 156 491 203 c 3
 491 250 453 288 406 288 c 3
 359 288 321 250 321 203 c 3
302 -20 m 3
 124 -20 15 123 15 312 c 2
 15 1278 l 2
 15 1466 161 1654 344 1654 c 3
 563 1654 701 1433 703 1251 c 1
 689 1227 666 1216 646 1216 c 0
 630 1216 620 1224 616 1240 c 1
 609 1394 507.003 1564 344 1564 c 3
 213 1564 105 1415 105 1278 c 2
 105 312 l 2
 105 179 171 70 302 70 c 3
 356.009 70 491 104 491 203 c 1
 581 203 l 1
 581 46 407 -20 302 -20 c 3
581 203 m 3
 581 108 501 28 406 28 c 3
 311 28 231 108 231 203 c 3
 231 298 311 378 406 378 c 3
 501 378 581 298 581 203 c 3
EndSplineSet
Fore
SplineSet
302 -20 m 3
 124 -20 15 123 15 312 c 2
 15 1278 l 2
 15 1466 161 1654 344 1654 c 3
 563 1654 701 1433 703 1251 c 1
 689 1227 666 1216 646 1216 c 3
 630 1216 620 1224 616 1240 c 1
 609 1394 507 1564 344 1564 c 3
 213 1564 105 1415 105 1278 c 2
 105 312 l 2
 105 182 168 75 293 70 c 1
 255 102 231 150 231 203 c 3
 231 298 311 378 406 378 c 3
 501 378 581 298 581 203 c 3
 581 46 407 -20 302 -20 c 3
321 203 m 3
 321 156 359 118 406 118 c 3
 453 118 491 156 491 203 c 3
 491 250 453 288 406 288 c 3
 359 288 321 250 321 203 c 3
EndSplineSet
EndChar

StartChar: uni1A93
Encoding: 6803 6803 69
Width: 1064
VWidth: 2260
Flags: W
HStem: -20 90<122.5 242.382 440.038 703.304> 188 90<122.5 261.174> 346 66<228.668 302.749> 522 66<228.453 327.547> 820 68<642.552 894.219> 991 90<228.757 392.013>
VStem: 30 90<72.9874 185.013> 138 90<921.633 989.695> 157 66<417.668 516.547> 333 66<368.976 516.547> 830 90<216.605 539.891>
DStem2: 283 915 242 835 0.923795 -0.382889<-73.3227 569.487>
LayerCount: 2
Back
SplineSet
223 467 m 3x3e54
 223 437 248 412 278 412 c 3
 308 412 333 437 333 467 c 3
 333 497 308 522 278 522 c 3
 248 522 223 497 223 467 c 3x3e54
278 588 m 3
 343 588 399 532 399 467 c 3
 399 402 343 346 278 346 c 3
 214 346 157 403 157 467 c 3x3e4c
 157 532 213 588 278 588 c 3
177 -20 m 3
 96 -20 30 47 30 129 c 3
 30 211 96 278 177 278 c 3
 357 278 382 70 581 70 c 3
 729 70 830 246 830 374 c 3
 830 523 752 616 600 679 c 0
 436 747 312 799 242 835 c 0
 177 868 138 909 138 975 c 3
 138 1033 191 1081 248 1081 c 3
 306 1081 391 1040 512 979 c 0
 633 918 727 888 792 888 c 3
 837 888 890 905 952 940 c 1
 953 939 l 1
 926 860 868 820 779 820 c 3
 714 820 640 835 560 871 c 2
 355 964 l 2
 311 983 275 991 248 991 c 3
 240 991 228 989 228 975 c 3
 228 950 247 933 283 915 c 0
 378 867 543 800 628 765 c 0
 786 699 920 591 920 374 c 3
 920 190 780 -20 581 -20 c 3
 345 -20 299 188 177 188 c 3
 146 188 120 162 120 129 c 3
 120 96 146 70 177 70 c 3
 284 70 309 338 309 467 c 1
 399 467 l 1
 399 325 379 -20 177 -20 c 3
EndSplineSet
Fore
SplineSet
223 467 m 3xfee0
 223 437 248 412 278 412 c 3
 308 412 333 437 333 467 c 3
 333 497 308 522 278 522 c 3
 248 522 223 497 223 467 c 3xfee0
262 152 m 1
 236 173 209 188 177 188 c 3
 146 188 120 162 120 129 c 3
 120 96 146 70 177 70 c 3
 215 70 242 103 262 152 c 1
289 245 m 1
 296 279 300 315 303 349 c 1
 295 347 287 346 278 346 c 3
 214 346 157 403 157 467 c 3xfee0
 157 532 213 588 278 588 c 3
 343 588 399 532 399 467 c 3
 399 398 394 281 366 179 c 1
 421 125 478 70 581 70 c 3
 729 70 830 246 830 374 c 3
 830 523 752 616 600 679 c 0
 436 747 312 799 242 835 c 0
 177 868 138 909 138 975 c 3
 138 1033 191 1081 248 1081 c 3
 306 1081 391 1040 512 979 c 0
 633 918 727 888 792 888 c 3
 837 888 890 905 952 940 c 1
 953 939 l 1
 926 860 868 820 779 820 c 3
 714 820 640 835 560 871 c 2
 355 964 l 2
 311 983 275 991 248 991 c 3
 240 991 228 989 228 975 c 3xff60
 228 950 247 933 283 915 c 0
 378 867 543 800 628 765 c 0
 786 699 920 591 920 374 c 3
 920 190 780 -20 581 -20 c 3
 460 -20 389 35 332 88 c 1
 299 24 250 -20 177 -20 c 3
 96 -20 30 47 30 129 c 3
 30 211 96 278 177 278 c 3
 222 278 258 265 289 245 c 1
EndSplineSet
EndChar

StartChar: uni1A94
Encoding: 6804 6804 70
Width: 1117
VWidth: 2260
Flags: W
HStem: -20 90<153.783 424.883 677.249 881.298> 119 73<825.168 883.289> 302 66<825.453 924.547> 1184 67<284.275 644.962>
VStem: 3 90<131.407 397.196> 754 66<197.193 296.547> 873 86<765.709 1019.61> 930 66<198.563 296.547>
LayerCount: 2
Back
SplineSet
820 247 m 3x3e54
 820 217 845 192 875 192 c 3
 905 192 930 217 930 247 c 3
 930 277 905 302 875 302 c 3
 845 302 820 277 820 247 c 3x3e54
875 368 m 3
 940 368 996 312 996 247 c 3
 996 182 940 119 875 119 c 3
 811 119 754 183 754 247 c 3x3e4c
 754 312 810 368 875 368 c 3
3 282 m 3
 3 446 135 564 410 636 c 0
 498 659 592 679 699 701 c 0
 804 723 873 769 873 889 c 3
 873 978 825 1052 730 1110 c 0
 648 1159 560 1184 466 1184 c 3
 327 1184 201 1145 90 1067 c 0
 53 1041 8 999 -55 953 c 1
 -53 1009 15 1103 148 1166 c 0
 261 1220 382 1251 498 1251 c 3
 614 1251 726 1220 818 1146 c 0
 911 1072 959 981 959 872 c 3
 959 734 878 646 717 613 c 0
 496 567 93 502 93 282 c 3
 93 146 157 70 288 70 c 3
 402 70 502 140 530 329 c 1
 621 138 696 70 802 70 c 3
 886 70 906 151 906 247 c 1
 996 247 l 1
 996 73 928 -20 802 -20 c 3
 670 -20 603 47 541 135 c 1
 499 49 433 -20 288 -20 c 3
 105 -20 3 99 3 282 c 3
EndSplineSet
Fore
SplineSet
820 247 m 3xfd
 820 217 845 192 875 192 c 3
 905 192 930 217 930 247 c 3
 930 277 905 302 875 302 c 3
 845 302 820 277 820 247 c 3xfd
884 119 m 1
 813 119 754 177 754 247 c 3
 754 312 810 368 875 368 c 3
 940 368 996 312 996 247 c 3xfd
 996 73 928 -20 802 -20 c 3
 670 -20 603 47 541 135 c 1
 499 49 433 -20 288 -20 c 3
 105 -20 3 99 3 282 c 3
 3 446 135 564 410 636 c 0
 498 659 592 679 699 701 c 0
 804 723 873 769 873 889 c 3
 873 978 825 1052 730 1110 c 0
 648 1159 560 1184 466 1184 c 3
 327 1184 201 1145 90 1067 c 0
 53 1041 8 999 -55 953 c 1
 -53 1009 15 1103 148 1166 c 0
 261 1220 382 1251 498 1251 c 3
 614 1251 726 1220 818 1146 c 0
 911 1072 959 981 959 872 c 3xfe
 959 734 878 646 717 613 c 0
 496 567 93 502 93 282 c 3
 93 146 157 70 288 70 c 3
 402 70 502 140 530 329 c 1
 621 138 696 70 802 70 c 3
 843 70 868 89 884 119 c 1
EndSplineSet
EndChar

StartChar: uni1A95
Encoding: 6805 6805 71
Width: 1117
VWidth: 2260
Flags: W
HStem: -20 90<153.783 424.883 677.249 881.298> 119 73<825.168 883.289> 302 66<825.453 924.547> 834 90<699.094 784.664> 1184 67<284.275 644.962>
VStem: 3 90<131.407 397.196> 609 90<740.136 833.712> 754 66<197.193 296.547> 873 86<840.221 1019.61> 930 66<198.563 296.547>
LayerCount: 2
Back
SplineSet
820 247 m 3x3e54
 820 217 845 192 875 192 c 3
 905 192 930 217 930 247 c 3
 930 277 905 302 875 302 c 3
 845 302 820 277 820 247 c 3x3e54
875 368 m 3
 940 368 996 312 996 247 c 3
 996 182 940 119 875 119 c 3
 811 119 754 183 754 247 c 3x3e4c
 754 312 810 368 875 368 c 3
742 650 m 3
 669 650 609 714 609 787 c 259
 609 861 668 924 742 924 c 259
 816 924 875 861 875 787 c 3
 875 669 798 630 717 613 c 0
 496 568 93 502 93 282 c 3
 93 146 157 70 288 70 c 3
 402 70 502 140 530 329 c 1
 621 138 696 70 802 70 c 3
 886 70 906 151 906 247 c 1
 996 247 l 1
 996 73 928 -20 802 -20 c 3
 670 -20 603 47 541 135 c 1
 499 49 433 -20 288 -20 c 3
 105 -20 3 99 3 282 c 3
 3 446 135 564 410 636 c 0
 498 659 592 679 699 701 c 0
 732 708 785 714 785 787 c 3
 785 813 766 834 742 834 c 3
 718 834 699 813 699 787 c 3
 699 761 718 740 742 740 c 3
 810 740 873 806 873 889 c 3
 873 978 825 1052 730 1110 c 0
 648 1159 560 1184 466 1184 c 3
 327 1184 201 1145 90 1067 c 0
 53 1041 8 999 -55 953 c 1
 -53 1009 15 1103 148 1166 c 0
 261 1220 382 1251 498 1251 c 3
 614 1251 726 1220 818 1146 c 0
 911 1072 959 981 959 872 c 3
 959 749 852 650 742 650 c 3
EndSplineSet
Fore
SplineSet
820 247 m 3xff40
 820 217 845 192 875 192 c 3
 905 192 930 217 930 247 c 3
 930 277 905 302 875 302 c 3
 845 302 820 277 820 247 c 3xff40
840 676 m 1
 810 640 764 623 717 613 c 0
 496 567 93 502 93 282 c 3
 93 146 157 70 288 70 c 3
 402 70 502 140 530 329 c 1
 621 138 696 70 802 70 c 3
 843 70 868 89 884 119 c 1
 813 119 754 177 754 247 c 3
 754 312 810 368 875 368 c 3
 940 368 996 312 996 247 c 3xff40
 996 73 928 -20 802 -20 c 3
 670 -20 603 47 541 135 c 1
 499 49 433 -20 288 -20 c 3
 105 -20 3 99 3 282 c 3
 3 446 135 564 410 636 c 0
 484 655 562 672 649 690 c 1
 624 715 609 750 609 787 c 3
 609 861 668 924 742 924 c 3
 798 924 845 888 865 839 c 1
 870 855 873 871 873 889 c 3
 873 978 825 1052 730 1110 c 0
 648 1159 560 1184 466 1184 c 3
 327 1184 201 1145 90 1067 c 0
 53 1041 8 999 -55 953 c 1
 -53 1009 15 1103 148 1166 c 0
 261 1220 382 1251 498 1251 c 3
 614 1251 726 1220 818 1146 c 0
 911 1072 959 981 959 872 c 3xff80
 959 787 908 713 840 676 c 1
777 746 m 1
 782 757 785 770 785 787 c 3
 785 813 766 834 742 834 c 3
 718 834 699 813 699 787 c 3
 699 761 718 740 742 740 c 3
 754 740 766 742 777 746 c 1
EndSplineSet
EndChar

StartChar: uni1A96
Encoding: 6806 6806 72
Width: 955
VWidth: 2260
Flags: W
HStem: -20 90<132.037 332.073 483.927 700.436> 253 66<261.075 374.925> 461 66<262.328 374.925> 758 68<561.552 813.219> 929 90<147.757 311.013>
VStem: 5 90<106.469 375.949> 57 90<859.633 927.695> 183 66<330.348 409.517> 387 66<330.348 449.652> 749 90<119.011 477.891>
DStem2: 202 853 161 773 0.923795 -0.382889<-73.3227 569.487>
LayerCount: 2
Back
SplineSet
839 312 m 3
 839 89 754 -20 593 -20 c 3
 499 -20 437 38 408 66 c 1
 379 38 317 -20 223 -20 c 3
 101 -20 5 77 5 239 c 3
 5 426 121 527 318 527 c 1
 318 437 l 1
 191 437 95 388 95 239 c 3
 95 137 144 70 223 70 c 3
 286 70 360 119 408 205 c 1
 456 119 530 70 593 70 c 3
 708 70 749 149 749 312 c 3
 749 461 671 554 519 617 c 0
 355 685 231 737 161 773 c 0
 96 806 57 847 57 913 c 3
 57 971 110 1019 167 1019 c 3
 225 1019 310 978 431 917 c 0
 552 856 646 826 711 826 c 3
 756 826 809 843 871 878 c 1
 872 877 l 1
 845 798 787 758 698 758 c 3
 633 758 559 773 479 809 c 2
 274 902 l 2
 230 921 194 929 167 929 c 3
 159 929 147 927 147 913 c 3
 147 888 166 871 202 853 c 0
 297 805 462 738 547 703 c 0
 705 637 839 529 839 312 c 3
249 390 m 3
 249 351 280 319 318 319 c 3
 356 319 387 351 387 390 c 3
 387 429 356 461 318 461 c 3
 280 461 249 429 249 390 c 3
183 390 m 3
 183 466 243 527 318 527 c 3
 393 527 453 466 453 390 c 3
 453 314 393 253 318 253 c 3
 243 253 183 314 183 390 c 3
EndSplineSet
Fore
SplineSet
249 390 m 3xf9c0
 249 351 280 319 318 319 c 3
 356 319 387 351 387 390 c 3
 387 429 356 461 318 461 c 3
 280 461 249 429 249 390 c 3xf9c0
453 390 m 3
 453 314 393 253 318 253 c 3
 243 253 183 314 183 390 c 3
 183 397 183 403 184 410 c 1
 129 382 95 328 95 239 c 3xfdc0
 95 137 144 70 223 70 c 3
 286 70 360 119 408 205 c 1
 456 119 530 70 593 70 c 3
 708 70 749 149 749 312 c 3
 749 461 671 554 519 617 c 0
 355 685 231 737 161 773 c 0
 96 806 57 847 57 913 c 3
 57 971 110 1019 167 1019 c 3
 225 1019 310 978 431 917 c 0
 552 856 646 826 711 826 c 3
 756 826 809 843 871 878 c 1
 872 877 l 1
 845 798 787 758 698 758 c 3
 633 758 559 773 479 809 c 2
 274 902 l 2
 230 921 194 929 167 929 c 3
 159 929 147 927 147 913 c 3xfbc0
 147 888 166 871 202 853 c 0
 297 805 462 738 547 703 c 0
 705 637 839 529 839 312 c 3
 839 89 754 -20 593 -20 c 3
 499 -20 437 38 408 66 c 1
 379 38 317 -20 223 -20 c 3
 101 -20 5 77 5 239 c 3xfdc0
 5 426 121 527 318 527 c 3
 393 527 453 466 453 390 c 3
EndSplineSet
EndChar

StartChar: uni1A97
Encoding: 6807 6807 73
Width: 958
VWidth: 2260
Flags: W
HStem: -462 6<812 1017.2> -20 66<74.0749 189.134> 188 66<74.0749 189.004> 736 90<311.497 621.125>
VStem: -4 66<57.348 176.652> 246 90<199.126 472.573> 674 90<-308.826 319.404> 708 90<36.2128 646.644>
LayerCount: 2
Back
SplineSet
62 117 m 3
 62 78 93 46 131 46 c 3
 169 46 200 78 200 117 c 3
 200 156 169 188 131 188 c 3
 93 188 62 156 62 117 c 3
-4 117 m 3
 -4 193 56 254 131 254 c 3
 206 254 266 193 266 117 c 3
 266 41 206 -20 131 -20 c 3
 56 -20 -4 41 -4 117 c 3
798 464 m 3
 798 346 764 -4 764 -109 c 3
 764 -276 812 -389 1020 -456 c 1
 960 -460 923 -462 910 -462 c 3
 741 -462 674 -293 674 -109 c 3
 674 10 708 360 708 464 c 3
 708 640 635 736 474 736 c 3
 452 736 398 724 331 699 c 0
 256 671 221 653 207 645 c 1
 291 548 336 395 336 250 c 3
 336 98 250 -20 131 -20 c 1
 131 70 l 1
 193 70 246 143 246 250 c 3
 246 365 209 499 135 592 c 1
 47 622 l 2
 13 633 -7 656 -16 684 c 1
 10 681 25 680 28 680 c 0
 55 680 119 703 220 750 c 128
 321 797 396 826 474 826 c 3
 680 826 798 702 798 464 c 3
EndSplineSet
Fore
SplineSet
-4 117 m 3xfd
 -4 193 56 254 131 254 c 3
 177 254 217 231 241 196 c 1
 244 213 246 231 246 250 c 3
 246 365 209 499 135 592 c 1
 47 622 l 2
 13 633 -7 656 -16 684 c 1
 10 681 25 680 28 680 c 3
 55 680 119 703 220 750 c 0
 321 797 396 826 474 826 c 3
 680 826 798 702 798 464 c 3xfd
 798 346 764 -4 764 -109 c 3
 764 -276 812 -389 1020 -456 c 1
 960 -460 923 -462 910 -462 c 3
 741 -462 674 -293 674 -109 c 3xfe
 674 10 708 360 708 464 c 3
 708 640 635 736 474 736 c 3
 452 736 398 724 331 699 c 0
 256 671 221 653 207 645 c 1
 291 548 336 395 336 250 c 3
 336 98 250 -20 131 -20 c 3
 56 -20 -4 41 -4 117 c 3xfd
62 117 m 3
 62 78 93 46 131 46 c 3
 169 46 200 78 200 117 c 3
 200 156 169 188 131 188 c 3
 93 188 62 156 62 117 c 3
EndSplineSet
EndChar

StartChar: uni1A98
Encoding: 6808 6808 74
Width: 1200
VWidth: 2260
Flags: W
HStem: -269 90<755.794 844.206> -85 90<756.531 845> -20 66<284.698 395.925> 188 66<282.075 395.925> 477 90<169.819 414.211 549.789 793.814> 758 68<851.552 1103.22> 929 90<437.757 601.013>
VStem: 0 90<141.085 397.104> 204 66<92.5239 176.652> 347 90<859.633 927.695> 408 66<57.348 176.652> 665 90<-177.527 -86.4649> 845 90<-176.07 -83 31 425.049> 1039 90<85.6929 477.891>
DStem2: 492 853 451 773 0.923795 -0.382889<-73.3227 569.487>
LayerCount: 2
Back
SplineSet
845 -132 m 2
 845 294 l 2
 845 405 778 479 683 479 c 3
 619 479 552 448 482 375 c 1
 412 448 345 477 281 477 c 3
 185 477 90 382 90 273 c 3
 90 142 175 70 339 70 c 1
 339 -20 l 1
 115 -20 0 99 0 273 c 3
 0 427 128 567 281 567 c 3
 359 567 426 540 482 486 c 1
 538 540 605 569 683 569 c 3
 838 569 935 448 935 294 c 2
 935 -132 l 2
 935 -208 875 -269 800 -269 c 3
 725 -269 665 -208 665 -132 c 3
 665 -56 725 5 800 5 c 3
 998 5 1039 107 1039 312 c 3
 1039 461 961 554 809 617 c 0
 645 685 521 737 451 773 c 0
 386 806 347 847 347 913 c 3
 347 971 400 1019 457 1019 c 3
 515 1019 600 978 721 917 c 0
 842 856 936 826 1001 826 c 3
 1046 826 1099 843 1161 878 c 1
 1162 877 l 1
 1135 798 1077 758 988 758 c 3
 923 758 849 773 769 809 c 2
 564 902 l 2
 520 921 484 929 457 929 c 3
 449 929 437 927 437 913 c 3
 437 888 456 871 492 853 c 0
 587 805 752 738 837 703 c 0
 995 637 1129 529 1129 312 c 3
 1129 73 1072 -85 800 -85 c 3
 775 -85 755 -106 755 -132 c 3
 755 -158 775 -179 800 -179 c 3
 825 -179 845 -158 845 -132 c 2
270 117 m 3
 270 78 301 46 339 46 c 3
 377 46 408 78 408 117 c 3
 408 156 377 188 339 188 c 3
 301 188 270 156 270 117 c 3
204 117 m 3
 204 193 264 254 339 254 c 3
 414 254 474 193 474 117 c 3
 474 41 414 -20 339 -20 c 3
 264 -20 204 41 204 117 c 3
EndSplineSet
Fore
SplineSet
204 117 m 3xdfdc
 204 193 264 254 339 254 c 3
 414 254 474 193 474 117 c 3
 474 41 414 -20 339 -20 c 3xbfbc
 115 -20 0 99 0 273 c 3
 0 427 128 567 281 567 c 3
 359 567 426 540 482 486 c 1
 538 540 605 569 683 569 c 3
 838 569 935 448 935 294 c 2
 935 31 l 1
 1018 73 1039 166 1039 312 c 3
 1039 461 961 554 809 617 c 0
 645 685 521 737 451 773 c 0
 386 806 347 847 347 913 c 3
 347 971 400 1019 457 1019 c 3
 515 1019 600 978 721 917 c 0
 842 856 936 826 1001 826 c 3
 1046 826 1099 843 1161 878 c 1
 1162 877 l 1
 1135 798 1077 758 988 758 c 3
 923 758 849 773 769 809 c 2
 564 902 l 2
 520 921 484 929 457 929 c 3
 449 929 437 927 437 913 c 3
 437 888 456 871 492 853 c 0
 587 805 752 738 837 703 c 0
 995 637 1129 529 1129 312 c 3
 1129 119 1092 -21 935 -68 c 1
 935 -132 l 2
 935 -208 875 -269 800 -269 c 3
 725 -269 665 -208 665 -132 c 3
 665 -56 725 5 800 5 c 3
 816 5 831 6 845 7 c 1
 845 294 l 2
 845 405 778 479 683 479 c 3
 619 479 552 448 482 375 c 1
 412 448 345 477 281 477 c 3
 185 477 90 382 90 273 c 3
 90 184 129 122 206 92 c 1
 204 100 204 108 204 117 c 3xdfdc
270 117 m 3
 270 78 301 46 339 46 c 3
 377 46 408 78 408 117 c 3
 408 156 377 188 339 188 c 3
 301 188 270 156 270 117 c 3
845 -83 m 1
 831 -84 816 -85 800 -85 c 3xdf9c
 775 -85 755 -106 755 -132 c 3
 755 -158 775 -179 800 -179 c 3
 825 -179 845 -158 845 -132 c 2
 845 -83 l 1
EndSplineSet
EndChar

StartChar: uni1A99
Encoding: 6809 6809 75
Width: 1270
VWidth: 2260
Flags: W
HStem: -20 90<674.497 907.261> -20 66<195.343 309.925> 188 66<195.39 309.925> 644 90<193.229 431.6 736.941 926.969>
VStem: 4 90<185.924 538.109> 322 66<57.348 176.652> 1015 90<201.487 549.538>
LayerCount: 2
Back
SplineSet
184 117 m 3
 184 78 215 46 253 46 c 3
 291 46 322 78 322 117 c 3
 322 156 291 188 253 188 c 3
 215 188 184 156 184 117 c 3
118 117 m 3
 118 193 178 254 253 254 c 3
 328 254 388 193 388 117 c 3
 388 41 328 -20 253 -20 c 3
 178 -20 118 41 118 117 c 3
814 644 m 3
 803 644 767 641 756 641 c 3
 750 641 736 656 736 679 c 3
 736 714 762 734 814 734 c 3
 974 734 1105 580 1105 413 c 3
 1105 200 1000 -20 807 -20 c 3
 636 -20 567 73 529 205 c 0
 510 270 500 346 488 424 c 0
 467 569 444 644 309 644 c 3
 198 644 94 528 94 381 c 3
 94 257 148 70 253 70 c 1
 253 -20 l 1
 91 -20 4 193 4 381 c 3
 4 583 150 734 309 734 c 3
 511 734 551 610 577 437 c 0
 584 384 599 285 616 227 c 0
 647 121 692 70 807 70 c 3
 937 70 1015 243 1015 413 c 3
 1015 520 929 644 814 644 c 3
EndSplineSet
Fore
SplineSet
184 117 m 3x7e
 184 78 215 46 253 46 c 3
 291 46 322 78 322 117 c 3
 322 156 291 188 253 188 c 3
 215 188 184 156 184 117 c 3x7e
253 -20 m 3
 91 -20 4 193 4 381 c 3
 4 583 150 734 309 734 c 3
 511 734 551 610 577 437 c 0
 584 384 599 285 616 227 c 0
 647 121 692 70 807 70 c 3
 937 70 1015 243 1015 413 c 3
 1015 520 929 644 814 644 c 3
 803 644 767 641 756 641 c 3
 750 641 736 656 736 679 c 3
 736 714 762 734 814 734 c 3
 974 734 1105 580 1105 413 c 3
 1105 200 1000 -20 807 -20 c 3xbe
 636 -20 567 73 529 205 c 0
 510 270 500 346 488 424 c 0
 466 569 444 644 309 644 c 3
 198 644 94 528 94 381 c 3
 94 320 107 243 133 181 c 1
 155 225 201 254 253 254 c 3
 328 254 388 193 388 117 c 3
 388 41 328 -20 253 -20 c 3
EndSplineSet
EndChar

StartChar: uni1A57
Encoding: 6743 6743 76
Width: 289
VWidth: 2260
Flags: W
HStem: -494 80<-165.005 26.377> -494 60<-623.739 -564.515> -374 60<-623.61 -564.515> -163 80<-632.409 -413.407> 749 77<37.1914 141.999>
VStem: -759 80<-352.057 -208.282> -564 60<-433.485 -374.515> 72 80<-367 640.181>
AnchorPoint: "BelowMark" 72 -494 basemark 0
LayerCount: 2
Back
SplineSet
-624 -404 m 3
 -624 -421 -611 -434 -594 -434 c 3
 -577 -434 -564 -421 -564 -404 c 3
 -564 -387 -577 -374 -594 -374 c 3
 -611 -374 -624 -387 -624 -404 c 3
-684 -404 m 3
 -684 -354 -644 -314 -594 -314 c 3
 -544 -314 -504 -354 -504 -404 c 3
 -504 -454 -544 -494 -594 -494 c 3
 -644 -494 -684 -454 -684 -404 c 3
152 564 m 10
 152 -290 l 2
 152 -408 34 -494 -86 -494 c 3
 -296 -494 -328 -163 -508 -163 c 3
 -598 -163 -679 -212 -679 -290 c 3
 -679 -375 -637 -411 -594 -414 c 1
 -594 -494 l 1
 -703 -491 -759 -394 -759 -290 c 3
 -759 -173 -656 -83 -508 -83 c 3
 -279 -83 -232 -414 -86 -414 c 3
 -7 -414 72 -359 72 -290 c 10
 72 564 l 2
 72 591 -2 703 -54 727 c 1
 -38 792 -7 826 61 826 c 3
 129 826 176 766 228 645 c 1
 148 722 122 749 37 749 c 1
 63 722 152 615 152 564 c 10
EndSplineSet
Fore
SplineSet
-624 -404 m 3x7f
 -624 -421 -611 -434 -594 -434 c 3
 -577 -434 -564 -421 -564 -404 c 3
 -564 -387 -577 -374 -594 -374 c 3
 -611 -374 -624 -387 -624 -404 c 3x7f
-594 -494 m 3
 -704 -494 -759 -391 -759 -290 c 3
 -759 -173 -656 -83 -508 -83 c 3
 -279 -83 -232 -414 -86 -414 c 3
 -7 -414 72 -359 72 -290 c 2
 72 564 l 2
 72 591 -2 703 -54 727 c 1
 -38 792 -7 826 61 826 c 3
 129 826 176 766 228 645 c 1
 148 722 122 749 37 749 c 1
 63 722 152 615 152 564 c 2
 152 -290 l 2
 152 -408 34 -494 -86 -494 c 3xbf
 -296 -494 -328 -163 -508 -163 c 3
 -598 -163 -679 -212 -679 -290 c 3
 -679 -315 -675 -337 -669 -354 c 1
 -653 -330 -625 -314 -594 -314 c 3
 -544 -314 -504 -354 -504 -404 c 3
 -504 -454 -544 -494 -594 -494 c 3
EndSplineSet
EndChar

StartChar: uni1A64
Encoding: 6756 6756 77
Width: 307
VWidth: 2260
Flags: W
HStem: -20 21G<51.5 111> 1302 90<-247.135 40.5229>
VStem: 122 90<73.537 1228.37>
AnchorPoint: "BelowRight" 167 -42 basechar 0
AnchorPoint: "AboveBase" -73 1419 basechar 0
AnchorPoint: "BelowBase" 167 -42 basechar 0
LayerCount: 2
Fore
SplineSet
212 197 m 2
 212 102 154 -20 68 -20 c 3
 35 -20 10 -14 10 -2 c 1
 46 35 122 99 122 197 c 2
 122 1133 l 2
 122 1236 -2 1302 -113 1302 c 3
 -195 1302 -317 1255 -479 1156 c 1
 -393 1264 -240 1392 -73 1392 c 3
 103 1392 212 1255 212 1133 c 2
 212 197 l 2
EndSplineSet
EndChar

StartChar: uni1A5D
Encoding: 6749 6749 78
Width: 0
VWidth: 2260
Flags: W
HStem: -667 80<-755.252 -465.234> -147 64<-854.236 -801.918>
VStem: -919 64<-200.217 -147.918> -914 80<-516.664 -316.113> -801 64<-199.342 -147.764> -393 80<-515.969 -232.524>
AnchorPoint: "BelowMark" -393 -667 basemark 0
AnchorPoint: "BelowBase" -613 -42 mark 0
LayerCount: 2
Back
SplineSet
-865 -174 m 3x3e54
 -865 -194 -848 -211 -828 -211 c 3
 -808 -211 -791 -194 -791 -174 c 3
 -791 -154 -808 -137 -828 -137 c 3
 -848 -137 -865 -154 -865 -174 c 3x3e54
-828 -93 m 3
 -785 -93 -747 -131 -747 -174 c 3
 -747 -217 -785 -255 -828 -255 c 3
 -871 -255 -909 -217 -909 -174 c 3x3e4c
 -909 -131 -871 -93 -828 -93 c 3
-514 -125 m 0
 -514 -114 -446 -93 -433 -93 c 3
 -357 -93 -336 -160 -313 -216 c 1
 -368 -167 -403 -133 -419 -133 c 3
 -420 -133 -422 -134 -426 -135 c 1
 -373 -183 -323 -257 -323 -376 c 3
 -323 -557 -429 -657 -613 -657 c 3
 -768 -657 -904 -562 -904 -423 c 3
 -904 -314 -807 -225 -807 -174 c 1
 -747 -174 l 1
 -747 -249 -844 -337 -844 -423 c 3
 -844 -524 -738 -597 -613 -597 c 3
 -456 -597 -383 -517 -383 -376 c 3
 -383 -264 -420 -226 -479 -166 c 0
 -502 -143 -514 -128 -514 -125 c 0
EndSplineSet
Fore
SplineSet
-855 -174 m 3xec
 -855 -190 -841 -201 -828 -201 c 3
 -812 -201 -801 -187 -801 -174 c 3
 -801 -158 -815 -147 -828 -147 c 3
 -844 -147 -855 -161 -855 -174 c 3xec
-857 -260 m 1
 -894 -246 -919 -211 -919 -174 c 3xec
 -919 -123 -874 -83 -828 -83 c 3
 -777 -83 -737 -128 -737 -174 c 3
 -737 -258 -834 -345 -834 -423 c 3
 -834 -518 -733 -587 -613 -587 c 3
 -459 -587 -393 -511 -393 -376 c 3
 -393 -265 -428 -232 -486 -173 c 0
 -511 -148 -524 -137 -524 -125 c 3
 -524 -97 -441 -83 -433 -83 c 3
 -333 -83 -314 -189 -287 -252 c 1
 -380 -170 l 1
 -341 -220 -313 -287 -313 -376 c 3
 -313 -564 -426 -667 -613 -667 c 3
 -773 -667 -914 -568 -914 -423 c 3xdc
 -914 -358 -882 -303 -857 -260 c 1
EndSplineSet
EndChar

StartChar: uni1A74
Encoding: 6772 6772 79
Width: 0
VWidth: 2260
Flags: W
HStem: 940 80<-691.825 -534.175> 1162 80<-691.825 -534.175>
VStem: -783 80<1032.29 1149.71> -523 80<1032.29 1149.71>
AnchorPoint: "AboveMark" -613 1299 basemark 0
AnchorPoint: "AboveBase" -613 883 mark 0
LayerCount: 2
Fore
SplineSet
-703 1091 m 3
 -703 1052 -663 1020 -613 1020 c 3
 -563 1020 -523 1052 -523 1091 c 3
 -523 1130 -563 1162 -613 1162 c 3
 -663 1162 -703 1130 -703 1091 c 3
-783 1091 m 3
 -783 1174 -707 1242 -613 1242 c 3
 -519 1242 -443 1174 -443 1091 c 3
 -443 1008 -519 940 -613 940 c 3
 -707 940 -783 1008 -783 1091 c 3
EndSplineSet
EndChar

StartChar: uni1A6B
Encoding: 6763 6763 80
Width: 0
VWidth: 2260
Flags: W
HStem: 940 65<-840.621 -741.379> 1187 80<-731.317 -398.153>
VStem: -917 69<1010.57 1118.8> -734 69<1010.57 1119.6>
AnchorPoint: "AboveMark" -613 1419 basemark 0
AnchorPoint: "AboveBase" -613 883 mark 0
LayerCount: 2
Back
SplineSet
-837 1065 m 1
 -917 1065 l 1
 -917 1200 -815 1267 -613 1267 c 3
 -405 1267 -182 1155 -126 1009 c 1
 -299 1128 -469 1187 -613 1187 c 3
 -753 1187 -837 1159 -837 1065 c 1
-613 1187 m 3
 -473 1187 -292 1123 -126 1009 c 1
 -183 1153 -400 1267 -613 1267 c 3
 -826 1267 -1043 1153 -1100 1009 c 1
 -934 1123 -753 1187 -613 1187 c 3
-613 1187 m 3
 -473 1187 -292 1123 -126 1009 c 1
 -183 1153 -400 1267 -613 1267 c 3
 -826 1267 -1043 1153 -1100 1009 c 1
 -934 1123 -753 1187 -613 1187 c 3
-917 1065 m 0
 -917 1134 -861 1190 -791 1190 c 0
 -721 1190 -665 1134 -665 1065 c 0
 -665 996 -721 940 -791 940 c 0
 -861 940 -917 996 -917 1065 c 0
-848 1065 m 0
 -848 1032 -822 1005 -791 1005 c 0
 -760 1005 -734 1032 -734 1065 c 0
 -734 1098 -760 1125 -791 1125 c 0
 -822 1125 -848 1098 -848 1065 c 0
EndSplineSet
Fore
SplineSet
-848 1065 m 3
 -848 1032 -822 1005 -791 1005 c 3
 -760 1005 -734 1032 -734 1065 c 3
 -734 1098 -760 1125 -791 1125 c 3
 -822 1125 -848 1098 -848 1065 c 3
-733 1176 m 1
 -692 1155 -665 1113 -665 1065 c 3
 -665 996 -721 940 -791 940 c 3
 -861 940 -917 996 -917 1065 c 3
 -917 1200 -815 1267 -613 1267 c 3
 -405 1267 -182 1155 -126 1009 c 1
 -299 1128 -469 1187 -613 1187 c 3
 -660 1187 -700 1184 -733 1176 c 1
EndSplineSet
EndChar

StartChar: uni1A46
Encoding: 6726 6726 81
Width: 1098
VWidth: 2260
Flags: W
HStem: -20 66<324.261 422.547 743 870.578> 156 66<323.529 422.547> 736 90<310.001 711.675>
VStem: 12 90<183.603 541.305> 252 66<91.3619 150.484> 428 66<51.453 150.547> 918 90<231.372 544.963>
AnchorPoint: "BelowRight" 848 -42 basechar 0
AnchorPoint: "AboveBase" 520 883 basechar 0
AnchorPoint: "BelowBase" 520 -42 basechar 0
LayerCount: 2
Back
SplineSet
373 70 m 9
 373 -20 l 1
 110 -20 12 172 12 374 c 3
 12 653 236 826 520 826 c 3
 788 826 1008 629 1008 388 c 3
 1008 244 940 125 801 46 c 1
 806 41 819 39 825 39 c 3
 854 39 898 67 958 122 c 1
 911 27 848 -20 768 -20 c 3
 718 -20 694 -1 694 47 c 3
 694 59 705 81 715 85 c 0
 825 128 918 260 918 388 c 3
 918 587 726 736 520 736 c 3
 286 736 102 598 102 374 c 3
 102 203 176 70 373 70 c 9
318 101 m 3x3e54
 318 71 343 46 373 46 c 3
 403 46 428 71 428 101 c 3
 428 131 403 156 373 156 c 3
 343 156 318 131 318 101 c 3x3e54
373 222 m 3
 438 222 494 166 494 101 c 3
 494 36 438 -20 373 -20 c 3
 309 -20 252 37 252 101 c 3x3e4c
 252 166 308 222 373 222 c 3
337 497 m 0
 398 516 472 538 556 570 c 0
 643 603 729 657 814 732 c 0
 846 760 909 836 1004 958 c 0
 1019 978 1035 1000 1042 1000 c 3
 1043 1000 1044 1000 1044 999 c 3
 1044 975 1009 912 940 809 c 0
 823 636 745 545 563 486 c 0
 538 478 410 441 393 441 c 3
 373 441 325 468 325 486 c 3
 325 491 330 495 337 497 c 0
EndSplineSet
Fore
SplineSet
337 497 m 0
 398 516 472 538 556 570 c 0
 619 594 681 629 743 675 c 1
 678 714 600 736 520 736 c 3
 286 736 102 598 102 374 c 3
 102 244 144 135 252 91 c 1
 252 163 302 222 373 222 c 3
 438 222 494 166 494 101 c 3
 494 36 438 -20 373 -20 c 3
 110 -20 12 172 12 374 c 3
 12 653 236 826 520 826 c 3
 631 826 735 792 817 735 c 1
 850 765 912 840 1004 958 c 0
 1019 978 1035 1000 1042 1000 c 0
 1043 1000 1044 1000 1044 999 c 0
 1044 975 1009 912 940 809 c 0
 912 768 887 732 862 700 c 1
 952 620 1008 510 1008 388 c 3
 1008 244 940 125 801 46 c 1
 806 41 819 39 825 39 c 3
 854 39 898 67 958 122 c 1
 911 27 848 -20 768 -20 c 3
 718 -20 694 -1 694 47 c 3
 694 59 705 81 715 85 c 0
 825 129 918 260 918 388 c 3
 918 485 873 569 803 631 c 1
 739 565 669 520 563 486 c 0
 538 478 410 441 393 441 c 0
 373 441 325 468 325 486 c 0
 325 491 330 495 337 497 c 0
318 101 m 3
 318 71 343 46 373 46 c 3
 403 46 428 71 428 101 c 3
 428 131 403 156 373 156 c 3
 343 156 318 131 318 101 c 3
EndSplineSet
EndChar

StartChar: uni1A47
Encoding: 6727 6727 82
Width: 1067
VWidth: 2260
Flags: W
HStem: -20 90<350.318 676.949> -20 66<51.6678 141.398> 161 66<54.0201 146.32 527.668 626.547> 337 66<527.453 626.36> 584 66<66.6678 146.559> 760 66<66.453 165.547 645.5 741.458>
VStem: -20 66<51.6678 150.547> -5 66<655.668 754.547> 147 90<217 588> 171 66<654.917 754.011> 456 66<232.668 331.547> 632 66<232.453 297.344> 797 90<317.812 541.182>
AnchorPoint: "BelowRight" 817 -42 basechar 0
AnchorPoint: "AboveBase" 524 883 basechar 0
AnchorPoint: "BelowBase" 524 -42 basechar 0
LayerCount: 2
Back
SplineSet
577 403 m 17
 692 403 821 316 966 167 c 0
 1031 100 1064 56 1064 36 c 0
 1064 33 1062 31 1059 31 c 0
 1054 31 998 75 893 162 c 0
 732.78 295.267 628 337 577 337 c 9
 577 403 l 17
522 282 m 3x3e54
 522 252 547 227 577 227 c 3
 607 227 632 252 632 282 c 3
 632 312 607 337 577 337 c 3
 547 337 522 312 522 282 c 3x3e54
577 403 m 3
 642 403 698 347 698 282 c 3
 698 217 642 161 577 161 c 3
 513 161 456 218 456 282 c 3x3e4c
 456 347 512 403 577 403 c 3
61 705 m 3x3e54
 61 675 86 650 116 650 c 3
 146 650 171 675 171 705 c 3
 171 735 146 760 116 760 c 3
 86 760 61 735 61 705 c 3x3e54
116 826 m 3
 181 826 237 770 237 705 c 3
 237 640 181 584 116 584 c 3
 52 584 -5 641 -5 705 c 3x3e4c
 -5 770 51 826 116 826 c 3
101 -20 m 3
 37 -20 -20 37 -20 101 c 3x3e4c
 -20 166 36 222 101 222 c 3
 149 222 184 208 215 191 c 0
 309 138 404 70 524 70 c 3
 673 70 797 176 797 349 c 3
 797 521 711 653 544 770 c 1
 587 807 627 826 664 826 c 3
 683 826 727 804 796 762 c 128
 865 720 905 690 915 673 c 1
 898 673 863 687 808 714 c 128
 753 741 715 754 693 754 c 3
 692 754 689 753 684 752 c 1
 819 653 887 527 887 349 c 3
 887 141 736 -20 524 -20 c 3
 369 -20 278 53 177 125 c 0
 153 142 127 156 101 156 c 3
 71 156 46 131 46 101 c 3x3e54
 46 71 71 46 101 46 c 3
 131 46 147 72 147 112 c 2
 147 705 l 1
 237 705 l 1
 237 142 l 2
 237 33 165 -20 101 -20 c 3
EndSplineSet
Fore
SplineSet
61 705 m 3x3d78
 61 675 86 650 116 650 c 3
 146 650 171 675 171 705 c 3
 171 735 146 760 116 760 c 3
 86 760 61 735 61 705 c 3x3d78
522 282 m 3
 522 252 547 227 577 227 c 3
 607 227 632 252 632 282 c 3
 632 312 607 337 577 337 c 3
 547 337 522 312 522 282 c 3
147 143 m 1x7eb8
 132 151 116 156 101 156 c 3
 71 156 46 131 46 101 c 3
 46 71 71 46 101 46 c 3
 131 46 147 72 147 112 c 2
 147 143 l 1x7eb8
876 253 m 1
 924 211 1064 72 1064 36 c 3
 1064 33 1062 31 1059 31 c 3
 1054 31 998 75 893 162 c 1
 855 192 l 1
 800 65 678 -20 524 -20 c 3xbd78
 396 -20 312 29 230 87 c 1
 211 15 153 -20 101 -20 c 3
 37 -20 -20 37 -20 101 c 3
 -20 166 36 222 101 222 c 3
 118 222 133 220 147 217 c 1
 147 588 l 1x7eb8
 137 585 127 584 116 584 c 3
 52 584 -5 641 -5 705 c 3
 -5 770 51 826 116 826 c 3
 181 826 237 770 237 705 c 2
 237 178 l 1
 324 127 413 70 524 70 c 3xbd78
 641 70 743 135 781 247 c 1
 750 268 722 285 697 298 c 1
 698 293 698 287 698 282 c 3
 698 217 642 161 577 161 c 3
 513 161 456 218 456 282 c 3
 456 347 512 403 577 403 c 3
 645 403 718 372 796 317 c 1
 797 327 797 338 797 349 c 3
 797 521 711 653 544 770 c 1
 587 807 627 826 664 826 c 0
 683 826 727 804 796 762 c 0
 865 720 905 690 915 673 c 1
 898 673 863 687 808 714 c 0
 753 741 715 754 693 754 c 0
 692 754 689 753 684 752 c 1
 819 653 887 527 887 349 c 3
 887 316 883 283 876 253 c 1
EndSplineSet
EndChar

StartChar: uni1A20.sub
Encoding: 65536 -1 83
Width: 0
VWidth: 2260
Flags: W
HStem: -667 89<-481.39 -395.524> -667 64<-764.682 -713.31> -550 64<-765.632 -713.457> -163 80<-861.448 -678.151 -546.3 -372.016>
VStem: -1015 80<-511.875 -244.205> -713 64<-602.543 -550.764> -313 80<-485.912 -230.426>
AnchorPoint: "BelowMark" -313 -667 basemark 0
AnchorPoint: "BelowBase" -613 -42 mark 0
LayerCount: 2
Back
SplineSet
-739 -597 m 9
 -739 -657 l 1
 -908 -657 -1005 -528 -1005 -375 c 3
 -1005 -240 -906 -93 -779 -93 c 3
 -716 -93 -658 -120 -613 -173 c 1
 -563 -119 -516 -93 -445 -93 c 3
 -325 -93 -243 -232 -243 -375 c 3
 -243 -462 -296 -554 -401 -613 c 1
 -396 -616 -391 -618 -385 -618 c 3
 -366 -618 -336 -609 -295 -582 c 1
 -326 -635 -368 -657 -422 -657 c 3
 -455 -657 -472 -645 -472 -613 c 3
 -472 -606 -468 -590 -458 -587 c 0
 -377 -558 -303 -456 -303 -375 c 3
 -303 -260 -369 -153 -445 -153 c 3
 -507 -153 -562 -193 -613 -251 c 1
 -669 -186 -723 -153 -779 -153 c 3
 -869 -153 -945 -271 -945 -375 c 3
 -945 -504 -867 -597 -739 -597 c 9
-776 -577 m 3x3e54
 -776 -597 -759 -613 -739 -613 c 3
 -719 -613 -703 -597 -703 -577 c 3
 -703 -557 -719 -540 -739 -540 c 3
 -759 -540 -776 -557 -776 -577 c 3x3e54
-739 -496 m 3
 -696 -496 -659 -534 -659 -577 c 3
 -659 -620 -696 -657 -739 -657 c 3
 -782 -657 -820 -620 -820 -577 c 3x3e4c
 -820 -534 -782 -496 -739 -496 c 3
EndSplineSet
Fore
SplineSet
-613 -266 m 1xbe
 -669 -200 -725 -163 -779 -163 c 3
 -862 -163 -935 -276 -935 -375 c 3
 -935 -468 -894 -537 -830 -568 c 1
 -825 -521 -783 -486 -739 -486 c 3
 -688 -486 -649 -531 -649 -577 c 3
 -649 -628 -693 -667 -739 -667 c 3x7e
 -916 -667 -1015 -530 -1015 -375 c 3
 -1015 -234 -912 -83 -779 -83 c 3
 -714 -83 -657 -110 -613 -158 c 1
 -562 -106 -514 -83 -445 -83 c 3
 -315 -83 -233 -232 -233 -375 c 3
 -233 -461 -282 -547 -371 -606 c 1
 -342 -600 -294 -570 -265 -550 c 1
 -303 -617 -346 -667 -422 -667 c 3
 -460 -667 -482 -649 -482 -613 c 3
 -482 -601 -475 -583 -463 -578 c 0
 -382 -549 -313 -449 -313 -375 c 3
 -313 -259 -380 -163 -445 -163 c 3
 -508 -163 -563 -209 -613 -266 c 1xbe
-766 -577 m 3
 -766 -593 -752 -603 -739 -603 c 3
 -723 -603 -713 -590 -713 -577 c 3
 -713 -561 -726 -550 -739 -550 c 3
 -755 -550 -766 -564 -766 -577 c 3
EndSplineSet
LCarets2: 1 0 
Ligature2: "Subjoined consonants lookup" uni1A60 uni1A20
EndChar

StartChar: uni1A21.sub
Encoding: 65537 -1 84
Width: 0
VWidth: 2260
Flags: W
HStem: -666 80<-770.508 -450.705> -457 80<-764.48 -465.098> -394 64<-831.082 -778.764> -162 80<-754.44 -459.561>
VStem: -896 64<-329.876 -277.311> -864 80<-559.239 -483.346> -778 64<-329.543 -277.783> -362 80<-458.454 -253.25>
AnchorPoint: "BelowMark" -362 -667 basemark 0
AnchorPoint: "BelowBase" -613 -42 mark 0
LayerCount: 2
Back
SplineSet
-314 -595 m 3
 -314 -618 -319 -638 -329 -653 c 1
 -396 -530 -457 -447 -612 -447 c 3
 -699 -447 -794 -475 -794 -527 c 3xfb
 -794 -572 -681 -596 -612 -596 c 3
 -475 -596 -352 -537 -352 -378 c 3
 -352 -231 -469 -152 -612 -152 c 3
 -722 -152 -826 -212 -826 -304 c 9
 -886 -304 l 1xfd80
 -886 -169 -743 -92 -612 -92 c 3
 -435 -92 -292 -201 -292 -378 c 3
 -292 -584 -460 -656 -612 -656 c 3
 -721 -656 -854 -614 -854 -528 c 3xfb80
 -854 -435 -741 -387 -612 -387 c 3
 -441 -387 -314 -499 -314 -595 c 3
-842 -304 m 3x3e54
 -842 -324 -825 -340 -805 -340 c 3
 -785 -340 -768 -324 -768 -304 c 3
 -768 -284 -785 -267 -805 -267 c 3
 -825 -267 -842 -284 -842 -304 c 3x3e54
-805 -223 m 3
 -762 -223 -724 -261 -724 -304 c 3
 -724 -347 -762 -384 -805 -384 c 3
 -848 -384 -886 -347 -886 -304 c 3x3e4c
 -886 -261 -848 -223 -805 -223 c 3
EndSplineSet
Fore
SplineSet
-832 -304 m 3xbb
 -832 -320 -818 -330 -805 -330 c 3
 -789 -330 -778 -317 -778 -304 c 3
 -778 -288 -792 -277 -805 -277 c 3
 -821 -277 -832 -291 -832 -304 c 3xbb
-776 -218 m 1
 -738 -232 -714 -267 -714 -304 c 3
 -714 -355 -759 -394 -805 -394 c 3
 -856 -394 -896 -351 -896 -304 c 3xbb
 -896 -159 -743 -82 -612 -82 c 3
 -429 -82 -282 -196 -282 -378 c 3
 -282 -441 -297 -491 -320 -529 c 1
 -308 -554 -304 -574 -304 -595 c 3
 -304 -631 -316 -651 -330 -672 c 1
 -345 -644 -362 -614 -376 -592 c 1
 -443 -646 -531 -666 -612 -666 c 3
 -723 -666 -864 -624 -864 -528 c 3
 -864 -423 -739 -377 -612 -377 c 3xd7
 -513 -377 -430 -413 -377 -460 c 1
 -367 -434 -362 -408 -362 -378 c 3
 -362 -236 -474 -162 -612 -162 c 3
 -678 -162 -740 -185 -776 -218 c 1
-425 -529 m 1
 -471 -482 -526 -457 -612 -457 c 3
 -704 -457 -784 -488 -784 -527 c 3xd7
 -784 -559 -682 -586 -612 -586 c 3
 -536 -586 -470 -567 -425 -529 c 1
EndSplineSet
LCarets2: 1 0 
Ligature2: "Subjoined consonants lookup" uni1A60 uni1A21
EndChar

StartChar: uni1A23.sub
Encoding: 65539 -1 85
Width: 0
VWidth: 2260
Flags: W
HStem: -667 89<-506.284 -422.898> -667 64<-737.049 -685.31> -550 64<-737.335 -685.457> -163 80<-771.1 -472.187>
VStem: -962 80<-531.536 -270.321> -685 64<-602.543 -550.764> -358 80<-500.509 -267.636>
AnchorPoint: "BelowMark" -358 -667 basemark 0
AnchorPoint: "BelowBase" -613 -42 mark 0
LayerCount: 2
Back
SplineSet
-711 -597 m 9xbf
 -711 -657 l 1xbf
 -886 -657 -952 -530 -952 -395 c 3
 -952 -209 -802 -93 -613 -93 c 3
 -434 -93 -288 -224 -288 -385 c 3
 -288 -481 -333 -560 -426 -613 c 1
 -423 -616 -414 -618 -410 -618 c 3x7f
 -391 -618 -361 -610 -321 -583 c 1
 -352 -636 -395 -657 -448 -657 c 3
 -481 -657 -497 -645 -497 -613 c 3
 -497 -605 -490 -590 -483 -587 c 0
 -410 -558 -348 -470 -348 -385 c 3
 -348 -252 -476 -153 -613 -153 c 3
 -769 -153 -892 -246 -892 -395 c 3
 -892 -509 -842 -597 -711 -597 c 9xbf
-748 -577 m 3
 -748 -597 -731 -613 -711 -613 c 3
 -691 -613 -675 -597 -675 -577 c 3
 -675 -557 -691 -540 -711 -540 c 3
 -731 -540 -748 -557 -748 -577 c 3
-711 -496 m 3
 -668 -496 -631 -534 -631 -577 c 3
 -631 -620 -668 -657 -711 -657 c 3
 -754 -657 -792 -620 -792 -577 c 3
 -792 -534 -754 -496 -711 -496 c 3
EndSplineSet
Fore
SplineSet
-711 -486 m 3xbe
 -660 -486 -621 -531 -621 -577 c 3
 -621 -628 -665 -667 -711 -667 c 3x7e
 -895 -667 -962 -531 -962 -395 c 3
 -962 -201 -804 -83 -613 -83 c 3
 -427 -83 -278 -219 -278 -385 c 3
 -278 -478 -319 -554 -397 -607 c 1
 -368 -602 -319 -569 -290 -550 c 1
 -329 -617 -371 -667 -448 -667 c 3
 -487 -667 -507 -648 -507 -613 c 3
 -507 -599 -498 -583 -487 -578 c 0
 -416 -550 -358 -464 -358 -385 c 3
 -358 -257 -482 -163 -613 -163 c 3
 -767 -163 -882 -254 -882 -395 c 3
 -882 -477 -856 -538 -801 -568 c 1
 -795 -521 -754 -486 -711 -486 c 3xbe
-738 -577 m 3
 -738 -593 -724 -603 -711 -603 c 3
 -695 -603 -685 -590 -685 -577 c 3
 -685 -561 -698 -550 -711 -550 c 3
 -727 -550 -738 -564 -738 -577 c 3
EndSplineSet
LCarets2: 1 0 
Ligature2: "Subjoined consonants lookup" uni1A60 uni1A23
EndChar

StartChar: uni1A25.sub
Encoding: 65541 -1 86
Width: 287
VWidth: 2260
Flags: W
HStem: -667 80<-823.762 -716.305 -523.04 -371.343 -173.122 13.4269> -593 80<-688.695 -552.96> -352 60<-862.485 -803.515> -217 80<-752.541 -653.346> -163 80<-820.243 -752.541 -654.153 -544.645 -333.606 -330.257 -282 -223.016> 750 94<-25.6064 1.8166>
VStem: -923 60<-291.485 -232.55> -905 80<-586.07 -457.208> -803 60<-291.485 -232.672> -541 80<-287.91 -164.747> -275 80<-475.366 -220.406> 69 80<-525.758 670.75>
DStem2: -803 -375 -736 -432 0.935896 0.352276<-63.4432 293.15>
AnchorPoint: "BelowMark" 69 -667 basemark 0
LayerCount: 2
Back
SplineSet
-869 -252 m 3xe2bc
 -869 -272 -853 -289 -833 -289 c 3
 -813 -289 -796 -272 -796 -252 c 3
 -796 -232 -813 -215 -833 -215 c 3
 -853 -215 -869 -232 -869 -252 c 3xe2bc
-297 -93 m 3xee7c
 -253 -93 -183 -172 -183 -217 c 1
 -183 -217 -203 -197 -229 -178 c 0
 -260 -155 -273 -146 -282 -146 c 3
 -291 -146 -295 -148 -295 -153 c 3
 -295 -158 -284 -171 -262 -191 c 0
 -233 -217 -205 -299 -205 -351 c 3
 -205 -364 -217 -426 -217 -439 c 3
 -217 -509 -186 -597 -86 -597 c 3
 30 -597 79 -493 79 -394 c 2
 79 533 l 18
 79 632 25 729 -57 756 c 1
 -41 808 -18 834 11 834 c 3
 57 834 125 752 125 710 c 1
 125 710 103 731 78 749 c 0
 47 772 30 781 25 781 c 3
 16 781 13 779 13 774 c 3
 13 769 23 756 45 736 c 0
 98 685 139 625 139 533 c 2
 139 -394 l 18
 139 -506 82 -657 -86 -657 c 3
 -185 -657 -225 -616 -264 -527 c 1
 -326 -614 -374 -657 -457 -657 c 3
 -529 -657 -577 -583 -619 -583 c 3
 -664 -583 -711 -657 -786 -657 c 3
 -849 -657 -895 -603 -895 -535 c 3
 -895 -474 -854 -405 -799 -384 c 2
 -621 -317 l 2
 -551 -291 -531 -268 -531 -221 c 3
 -531 -192 -556 -153 -591 -153 c 3xee7c
 -640 -153 -649 -207 -701 -207 c 3xf27c
 -752 -207 -780 -153 -807 -153 c 3
 -837 -153 -853 -213 -853 -252 c 9
 -913 -252 l 1
 -913 -156 -864 -93 -807 -93 c 3xe73c
 -750 -93 -726 -147 -701 -147 c 3xf33c
 -675 -147 -670 -93 -591 -93 c 3
 -524 -93 -471 -156 -471 -221 c 3
 -471 -277 -513 -345 -565 -363 c 2
 -739 -423 l 2
 -809 -447 -835 -487 -835 -535 c 3
 -835 -566 -820 -597 -786 -597 c 3
 -741 -597 -694 -523 -619 -523 c 3
 -547 -523 -499 -597 -457 -597 c 3
 -352 -597 -265 -436 -265 -351 c 3
 -265 -288 -283 -198 -365 -171 c 1
 -349 -119 -326 -93 -297 -93 c 3xee7c
-833 -171 m 3
 -790 -171 -752 -209 -752 -252 c 3
 -752 -295 -790 -333 -833 -333 c 3
 -876 -333 -913 -295 -913 -252 c 3xeb3c
 -913 -209 -876 -171 -833 -171 c 3
EndSplineSet
Fore
SplineSet
-863 -262 m 3x26f0
 -863 -279 -850 -292 -833 -292 c 3
 -816 -292 -803 -279 -803 -262 c 3
 -803 -245 -816 -232 -833 -232 c 3
 -850 -232 -863 -245 -863 -262 c 3x26f0
-821 -173 m 1
 -777 -179 -743 -216 -743 -262 c 3
 -743 -312 -783 -352 -833 -352 c 3
 -883 -352 -923 -312 -923 -262 c 3
 -923 -156 -876 -83 -807 -83 c 3x2ef0
 -742 -83 -714 -137 -701 -137 c 3x36f0
 -690 -137 -671 -83 -591 -83 c 3
 -515 -83 -461 -153 -461 -221 c 3
 -461 -283 -507 -353 -562 -372 c 2
 -736 -432 l 2
 -805 -456 -825 -493 -825 -535 c 3
 -825 -566 -811 -587 -786 -587 c 3xadf0
 -750 -587 -698 -513 -619 -513 c 3x65f0
 -539 -513 -489 -587 -457 -587 c 3
 -360 -587 -275 -431 -275 -351 c 3
 -275 -280 -298 -203 -377 -177 c 1
 -360 -120 -336 -83 -297 -83 c 3
 -229 -83 -173 -177 -173 -241 c 1
 -194 -220 -193 -217 -235 -186 c 0
 -270 -161 -279 -156 -282 -156 c 1
 -282 -156 -262 -178 -255 -184 c 0
 -221 -214 -195 -299 -195 -351 c 3
 -195 -368 -207 -430 -207 -439 c 3
 -207 -509 -176 -587 -86 -587 c 3
 24 -587 69 -489 69 -394 c 2
 69 533 l 2
 69 638 12 723 -69 750 c 1
 -52 807 -28 844 11 844 c 3
 81 844 135 748 135 687 c 1
 114 707 112 712 72 741 c 0
 44 762 31 769 26 771 c 1
 31 764 41 753 52 743 c 0
 107 690 149 627 149 533 c 2
 149 -394 l 2
 149 -510 88 -667 -86 -667 c 3
 -185 -667 -229 -625 -266 -547 c 1
 -326 -628 -376 -667 -457 -667 c 3xadf0
 -537 -667 -587 -593 -619 -593 c 3x65f0
 -655 -593 -707 -667 -786 -667 c 3
 -857 -667 -905 -605 -905 -535 c 3
 -905 -468 -861 -397 -803 -375 c 2
 -625 -308 l 2
 -554 -281 -541 -262 -541 -221 c 3
 -541 -194 -565 -163 -591 -163 c 3xadf0
 -632 -163 -642 -217 -701 -217 c 3x35f0
 -761 -217 -791 -163 -807 -163 c 3x2df0
 -812 -163 -817 -167 -821 -173 c 1
EndSplineSet
LCarets2: 1 0 
Ligature2: "Subjoined consonants lookup" uni1A60 uni1A25
EndChar

StartChar: uni1A26.sub
Encoding: 65542 -1 87
Width: 0
VWidth: 2260
Flags: W
HStem: -459 63<-337.789 -150.661> -448 80<-897.445 -703.57> -263 60<-848.867 -789.515> -143 60<-848.937 -789.515>
VStem: -1000 80<-344.441 -210.164> -789 60<-202.485 -143.515>
AnchorPoint: "BelowMark" -613 -468 basemark 0
AnchorPoint: "BelowBase" -613 -42 mark 0
LayerCount: 2
Back
SplineSet
-849 -173 m 3x2e
 -849 -190 -836 -203 -819 -203 c 3
 -802 -203 -789 -190 -789 -173 c 3
 -789 -156 -802 -143 -819 -143 c 3
 -836 -143 -849 -156 -849 -173 c 3x2e
-909 -173 m 3
 -909 -123 -869 -83 -819 -83 c 3x36
 -769 -83 -729 -123 -729 -173 c 3
 -729 -223 -769 -263 -819 -263 c 3
 -869 -263 -909 -223 -909 -173 c 3
-819 -163 m 17
 -888 -163 -920 -224 -920 -263 c 3
 -920 -329 -870 -368 -803 -368 c 3x76
 -721 -368 -662 -302 -613 -203 c 1
 -537 -275 -337 -396 -189 -396 c 3
 -166 -396 -146 -392 -127 -385 c 1
 -116 -403 l 1
 -164 -440 -199 -459 -220 -459 c 3xa6
 -362 -459 -466 -401 -591 -325 c 1
 -643 -392 -704 -448 -803 -448 c 3x66
 -913 -448 -1000 -376 -1000 -263 c 3
 -1000 -169 -929 -83 -819 -83 c 1
 -819 -163 l 17
EndSplineSet
Fore
SplineSet
-849 -173 m 3x3c
 -849 -190 -836 -203 -819 -203 c 3
 -802 -203 -789 -190 -789 -173 c 3
 -789 -156 -802 -143 -819 -143 c 3
 -836 -143 -849 -156 -849 -173 c 3x3c
-902 -208 m 1
 -914 -226 -920 -246 -920 -263 c 3
 -920 -329 -870 -368 -803 -368 c 3x7c
 -721 -368 -662 -302 -613 -203 c 1
 -537 -275 -337 -396 -189 -396 c 3
 -166 -396 -146 -392 -127 -385 c 1
 -116 -403 l 1
 -164 -440 -199 -459 -220 -459 c 3xbc
 -362 -459 -466 -401 -591 -325 c 1
 -643 -392 -704 -448 -803 -448 c 3x7c
 -913 -448 -1000 -376 -1000 -263 c 3
 -1000 -169 -929 -83 -819 -83 c 3
 -769 -83 -729 -123 -729 -173 c 3
 -729 -223 -769 -263 -819 -263 c 3
 -856 -263 -888 -241 -902 -208 c 1
EndSplineSet
LCarets2: 1 0 
Ligature2: "Subjoined consonants lookup" uni1A60 uni1A26
EndChar

StartChar: uni1A27.sub
Encoding: 65543 -1 88
Width: 0
VWidth: 2249
Flags: W
HStem: -532 80<-759.155 -475.463> -162 80<-923.542 -820.058>
VStem: -819 80<-278.655 -163.525> -347 80<-327.856 -108.909>
AnchorPoint: "BelowMark" -347 -532 basemark 0
AnchorPoint: "BelowBase" -613 -42 mark 0
LayerCount: 2
Back
SplineSet
-903 -131 m 0
 -891 -126 -876 -122 -859 -122 c 3
 -820 -122 -779 -143 -779 -214 c 3
 -779 -287 -843 -317 -893 -353 c 1
 -831 -415 -756 -492 -613 -492 c 3
 -428 -492 -307 -333 -307 -214 c 3
 -307 -173 -309 -143 -321 -118 c 0
-315 -375 m 3
 -315 -531 -448 -657 -613 -657 c 3
 -750 -657 -861 -564 -898 -501 c 1
 -826 -449 -784 -418 -784 -383 c 3
 -784 -348 -839 -343 -918 -342 c 1
 -887 -201 -788 -93 -613 -93 c 3
 -448 -93 -315 -219 -315 -375 c 3
-811 -512 m 1
 -776 -545 -712 -597 -613 -597 c 3
 -482 -597 -375 -498 -375 -375 c 3
 -375 -252 -482 -153 -613 -153 c 3
 -712 -153 -791 -196 -836 -287 c 1
 -755 -295 -724 -337 -724 -383 c 3
 -724 -433 -752 -464 -811 -512 c 1
EndSplineSet
Fore
SplineSet
-368 -70 m 1
 -286 -108 -267 -148 -267 -214 c 3
 -267 -354 -402 -532 -613 -532 c 3
 -795 -532 -877 -424 -955 -348 c 1
 -901 -311 -819 -266 -819 -214 c 3
 -819 -166 -837 -162 -859 -162 c 3
 -882 -162 -906 -166 -940 -186 c 1
 -932 -112 -908 -82 -859 -82 c 3
 -800 -82 -739 -124 -739 -214 c 3
 -739 -291 -793 -333 -830 -359 c 1
 -775 -411 -715 -452 -613 -452 c 3
 -449 -452 -347 -309 -347 -214 c 3
 -347 -171 -350 -102 -368 -70 c 1
EndSplineSet
LCarets2: 1 0 
Ligature2: "Subjoined consonants lookup" uni1A60 uni1A27
EndChar

StartChar: uni1A28.sub
Encoding: 65544 -1 89
Width: 0
VWidth: 2260
Flags: W
HStem: -667 80<-694.56 -475.586> -667 64<-842.86 -788.223> -557 64<-842.027 -787.594> -485 60<-825.485 -770.309> -365 60<-825.485 -767.099> -163 80<-770.628 -488.973> -87 19<-705.424 -698.674>
VStem: -907 64<-602.027 -557.14> -886 60<-424.485 -365.515> -766 76<-500.436 -481 -462.713 -365.212> -394 80<-497.049 -257.03>
AnchorPoint: "BelowMark" -394 -667 basemark 0
AnchorPoint: "BelowBase" -613 -42 mark 0
LayerCount: 2
Back
SplineSet
-833 -395 m 3x3e58
 -833 -415 -816 -432 -796 -432 c 3
 -776 -432 -759 -415 -759 -395 c 3
 -759 -375 -776 -359 -796 -359 c 3
 -816 -359 -833 -375 -833 -395 c 3x3e58
-796 -315 m 3
 -753 -315 -715 -352 -715 -395 c 3
 -715 -438 -753 -476 -796 -476 c 3
 -839 -476 -877 -438 -877 -395 c 3
 -877 -352 -839 -315 -796 -315 c 3
-820 -547 m 3
 -839 -547 -853 -561 -853 -580 c 3
 -853 -599 -839 -613 -820 -613 c 3
 -771 -613 -760 -507 -760 -475 c 3
 -760 -436 -768 -401 -779 -384 c 1
 -729 -352 l 17
 -709 -381 -700 -424 -700 -475 c 3
 -700 -541 -739 -657 -820 -657 c 3
 -863 -657 -897 -623 -897 -580 c 3x7ea8
 -897 -537 -863 -503 -820 -503 c 3
 -723 -503 -702 -597 -573 -597 c 3
 -467 -597 -384 -476 -384 -375 c 3
 -384 -257 -488 -153 -613 -153 c 3
 -648 -153 -707 -170 -782 -199 c 0
 -857 -228 -902 -243 -915 -243 c 3
 -923 -243 -927 -237 -927 -227 c 3xbf08
 -927 -189 -902 -158 -853 -135 c 0xbe88
 -835 -126 -814 -114 -750 -97 c 1
 -824 -140 l 2
 -862 -162 -863 -180 -863 -187 c 3
 -863 -190 -860 -189 -855 -189 c 3
 -846 -189 -824 -177 -789 -152 c 0
 -722 -103 -704 -93 -613 -93 c 3
 -456 -93 -324 -221 -324 -375 c 3
 -324 -520 -442 -657 -573 -657 c 3xbf08
 -737 -657 -753 -547 -820 -547 c 3
EndSplineSet
Fore
SplineSet
-787 -569 m 1x7960
 -799 -561 -809 -557 -820 -557 c 3
 -835 -557 -843 -568 -843 -580 c 3
 -843 -595 -832 -603 -820 -603 c 3
 -806 -603 -795 -590 -787 -569 c 1x7960
-690 -475 m 3
 -690 -497 -694 -521 -700 -544 c 1
 -666 -567 -631 -587 -573 -587 c 3
 -473 -587 -394 -470 -394 -375 c 3
 -394 -261 -495 -163 -613 -163 c 3xbce0
 -646 -163 -706 -180 -778 -208 c 0
 -856 -238 -898 -253 -915 -253 c 3
 -933 -253 -937 -236 -937 -227 c 3
 -937 -182 -906 -149 -857 -126 c 0
 -839 -117 -815 -103 -753 -87 c 2
 -681 -68 l 1x3ae0
 -819 -149 l 2
 -844 -163 -849 -173 -851 -178 c 1
 -841 -174 -820 -162 -795 -144 c 0
 -727 -95 -703 -83 -613 -83 c 3
 -449 -83 -314 -217 -314 -375 c 3
 -314 -527 -437 -667 -573 -667 c 3xbce0
 -654 -667 -701 -641 -733 -615 c 1
 -755 -646 -784 -667 -820 -667 c 3
 -871 -667 -907 -626 -907 -580 c 3x7960
 -907 -529 -866 -493 -820 -493 c 3
 -800 -493 -785 -496 -772 -501 c 1
 -771 -492 -770 -486 -770 -481 c 1
 -778 -483 -787 -485 -796 -485 c 3
 -846 -485 -886 -445 -886 -395 c 3x78e0
 -886 -345 -846 -305 -796 -305 c 3
 -715 -305 -690 -393 -690 -475 c 3
-826 -395 m 3
 -826 -412 -813 -425 -796 -425 c 3
 -779 -425 -766 -412 -766 -395 c 3
 -766 -378 -779 -365 -796 -365 c 3
 -813 -365 -826 -378 -826 -395 c 3
EndSplineSet
LCarets2: 1 0 
Ligature2: "Subjoined consonants lookup" uni1A60 uni1A28
EndChar

StartChar: uni1A29.sub
Encoding: 65545 -1 90
Width: 0
VWidth: 2260
Flags: W
HStem: -667 80<-794.59 -677.454 -558.284 -433.919> -610 80<-686.546 -553.716> -475 64<-426.082 -374.549> -358 64<-426.264 -389.044> -163 80<-749.773 -459.526>
VStem: -875 80<-585.683 -518.381> -491 64<-410.876 -358.842> -374 115<-410.993 -358.194> -288 29<-508.465 -463.346>
AnchorPoint: "BelowMark" -374 -667 basemark 0
AnchorPoint: "BelowBase" -613 -42 mark 0
LayerCount: 2
Back
SplineSet
-364 -374 m 3xbf80
 -364 -363 -367 -344 -370 -328 c 0
 -392 -212 -476 -153 -613 -153 c 3
 -758 -153 -809 -227 -839 -347 c 1
 -757 -372 -721 -396 -721 -442 c 3
 -721 -495 -805 -525 -805 -548 c 3
 -805 -583 -792 -597 -745 -597 c 3xbf80
 -719 -597 -669 -540 -619 -540 c 3x7f80
 -569 -540 -519 -597 -493 -597 c 3
 -476 -597 -429 -562 -423 -553 c 1
 -414 -563 -409 -580 -409 -591 c 3
 -409 -624 -458 -657 -493 -657 c 3xbf80
 -543 -657 -593 -600 -619 -600 c 3x7f80
 -645 -600 -695 -657 -745 -657 c 3
 -822 -657 -865 -621 -865 -548 c 3
 -865 -486 -781 -455 -781 -442 c 3
 -781 -429 -831 -411 -905 -389 c 1
 -886 -196 -789 -93 -613 -93 c 3
 -452 -93 -313 -195 -313 -334 c 3
 -313 -404 -336 -465 -400 -465 c 3
 -443 -465 -481 -428 -481 -385 c 3
 -481 -342 -445 -304 -400 -304 c 3
 -355 -304 -324 -329 -314 -338 c 0
 -289 -361 -269 -386 -269 -441 c 3xbf80
 -269 -466 -273 -486 -282 -504 c 1xbf40
 -285 -477 -291 -456 -297 -443 c 0
 -304 -428 -312 -411 -325 -391 c 0
 -342 -364 -368 -348 -400 -348 c 3
 -420 -348 -437 -365 -437 -385 c 3
 -437 -405 -420 -421 -400 -421 c 3
 -375 -421 -364 -405 -364 -374 c 3xbf80
EndSplineSet
Fore
SplineSet
-916 -396 m 1xbe80
 -896 -193 -797 -83 -613 -83 c 3
 -446 -83 -303 -190 -303 -335 c 1
 -278 -359 -259 -388 -259 -441 c 3
 -259 -486 -274 -510 -288 -539 c 1
 -294 -487 -303 -452 -319 -421 c 1
 -334 -454 -362 -475 -400 -475 c 3
 -451 -475 -491 -432 -491 -385 c 3
 -491 -327 -445 -294 -389 -294 c 1
 -420 -206 -496 -163 -613 -163 c 3
 -751 -163 -798 -230 -827 -340 c 1
 -749 -365 -711 -392 -711 -442 c 3
 -711 -502 -795 -541 -795 -548 c 3
 -795 -580 -787 -587 -745 -587 c 3xbe80
 -728 -587 -672 -530 -619 -530 c 3x7e80
 -561 -530 -509 -587 -493 -587 c 3
 -473 -587 -430 -546 -424 -537 c 1
 -411 -552 -399 -573 -399 -591 c 3
 -399 -635 -457 -667 -493 -667 c 3xbe80
 -551 -667 -603 -610 -619 -610 c 3x7e80
 -636 -610 -692 -667 -745 -667 c 3
 -828 -667 -875 -625 -875 -548 c 3
 -875 -486 -806 -453 -793 -442 c 1
 -806 -432 -862 -412 -916 -396 c 1xbe80
-374 -374 m 3x3f
 -374 -369 -375 -366 -375 -362 c 1
 -384 -359 -393 -358 -400 -358 c 3
 -416 -358 -427 -372 -427 -385 c 3
 -427 -401 -413 -411 -400 -411 c 3
 -381 -411 -374 -401 -374 -374 c 3x3f
EndSplineSet
LCarets2: 1 0 
Ligature2: "Subjoined consonants lookup" uni1A60 uni1A29
EndChar

StartChar: uni1A2B.sub
Encoding: 65547 -1 91
Width: 180
VWidth: 2260
Flags: W
HStem: -821 80<-192.854 -115.979 -66.4337 8.7305> -667 80<-542.59 -425.454> -610 80<-434.546 -301.7> -475 64<-173.543 -122.48> -358 64<-171.815 -137.009> -163 80<-497.191 -207.033> 900 64<-90 6.43823>
VStem: -623 80<-585.506 -518.944> -273 80<-740.989 -655.072> -238 64<-410.69 -358.842> -122 116<-410.993 -358.194> -35 29<-506.41 -466.744> 11 80<-738.944 766.89>
AnchorPoint: "BelowMark" -513 -687 basemark 0
LayerCount: 2
Back
SplineSet
-112 -374 m 3xdfb4
 -112 -363 -115 -344 -118 -328 c 0
 -140 -212 -223 -153 -360 -153 c 3
 -505 -153 -557 -227 -587 -347 c 1
 -505 -372 -468 -396 -468 -442 c 3
 -468 -495 -553 -525 -553 -548 c 3
 -553 -583 -540 -597 -493 -597 c 3xdfb4
 -467 -597 -417 -540 -367 -540 c 3xbfb4
 -317 -540 -267 -597 -241 -597 c 3
 -224 -597 -176 -562 -170 -553 c 1
 -161 -563 -157 -580 -157 -591 c 3
 -157 -624 -206 -657 -241 -657 c 3xdfb4
 -291 -657 -341 -600 -367 -600 c 3xbfb4
 -393 -600 -443 -657 -493 -657 c 3
 -570 -657 -613 -621 -613 -548 c 3
 -613 -486 -528 -455 -528 -442 c 3
 -528 -429 -578 -411 -652 -389 c 1
 -633 -196 -536 -93 -360 -93 c 3
 -199 -93 -60 -195 -60 -334 c 3
 -60 -404 -84 -465 -148 -465 c 3
 -191 -465 -228 -428 -228 -385 c 3
 -228 -342 -193 -304 -148 -304 c 3
 -103 -304 -72 -329 -62 -338 c 0
 -37 -361 -16 -386 -16 -441 c 3xdfb4
 -16 -466 -21 -486 -30 -504 c 1xdf8c
 -37 -447 -47 -430 -73 -391 c 0
 -90 -364 -116 -348 -148 -348 c 3
 -168 -348 -184 -365 -184 -385 c 3
 -184 -405 -168 -421 -148 -421 c 3
 -123 -421 -112 -405 -112 -374 c 3xdfb4
-166 -811 m 3
 -220 -811 -263 -784 -263 -727 c 3
 -263 -683 -222 -583 -183 -583 c 0
 -180 -583 -157 -584 -157 -591 c 3
 -157 -634 -203 -690 -203 -727 c 3x9fd4
 -203 -744 -193 -751 -166 -751 c 3
 -142 -751 -123 -705 -92 -705 c 3
 -61 -705 -48 -751 -18 -751 c 3
 8 -751 21 -724 21 -685 c 2
 21 675 l 2
 21 715 5 749 -26 779 c 0
 -33 786 -62 808 -112 843 c 0
 -143 864 -158 884 -158 903 c 0
 -158 936 -137 954 -94 954 c 0
 -21 954 52 905 124 798 c 1
 75 842 42 861 27 872 c 0
 -18 905 -54 910 -84 910 c 0
 -95 910 -103 907 -110 902 c 1
 -36 851 l 2
 11 818 40 795 54 768 c 0
 67 742 81 703 81 650 c 2
 81 -685 l 2
 81 -764 40 -811 -18 -811 c 3
 -49 -811 -71 -792 -92 -773 c 1
 -112 -792 -135 -811 -166 -811 c 3
EndSplineSet
Fore
SplineSet
-166 -821 m 3xdf88
 -225 -821 -273 -789 -273 -727 c 3
 -273 -711 -268 -688 -260 -665 c 1
 -310 -655 -353 -610 -367 -610 c 3xbf88
 -384 -610 -440 -667 -493 -667 c 3
 -576 -667 -623 -624 -623 -548 c 3
 -623 -487 -554 -454 -540 -442 c 1
 -553 -432 -609 -412 -663 -396 c 1
 -643 -193 -544 -83 -360 -83 c 3
 -194 -83 -50 -190 -50 -335 c 1
 -24 -359 -6 -388 -6 -441 c 3
 -6 -485 -22 -509 -35 -539 c 1
 -42 -488 -52 -451 -66 -421 c 1
 -81 -454 -110 -475 -148 -475 c 3
 -199 -475 -238 -431 -238 -385 c 3
 -238 -327 -193 -294 -137 -294 c 1
 -168 -207 -243 -163 -360 -163 c 3
 -499 -163 -546 -231 -575 -340 c 1
 -497 -364 -458 -392 -458 -442 c 3
 -458 -504 -543 -541 -543 -548 c 3
 -543 -580 -535 -587 -493 -587 c 3xdf58
 -476 -587 -420 -530 -367 -530 c 3xbf58
 -309 -530 -257 -587 -241 -587 c 3
 -221 -587 -177 -546 -171 -537 c 1
 -158 -552 -147 -573 -147 -591 c 3
 -147 -642 -193 -698 -193 -727 c 3
 -193 -737 -190 -741 -166 -741 c 3
 -153 -741 -130 -695 -92 -695 c 3
 -49 -695 -37 -741 -18 -741 c 3
 -1 -741 11 -721 11 -685 c 2
 11 675 l 2
 11 714 -4 745 -33 772 c 0
 -39 778 -70 801 -117 834 c 0
 -151 857 -168 879 -168 903 c 3
 -168 945 -137 964 -94 964 c 3
 24 964 104 846 177 737 c 1
 139 771 39 850 21 864 c 0
 -26 899 -57 900 -90 900 c 1
 -31 859 l 2
 18 825 48 802 63 773 c 0
 78 745 91 702 91 650 c 2
 91 -685 l 2
 91 -770 45 -821 -18 -821 c 3
 -52 -821 -74 -802 -92 -786 c 1
 -113 -805 -136 -821 -166 -821 c 3xdf88
-122 -362 m 1x9f68
 -131 -359 -141 -358 -148 -358 c 3
 -164 -358 -174 -372 -174 -385 c 0
 -174 -401 -161 -411 -148 -411 c 3
 -129 -411 -122 -401 -122 -374 c 2
 -122 -362 l 1x9f68
EndSplineSet
LCarets2: 1 0 
Ligature2: "Subjoined consonants lookup" uni1A60 uni1A2B
EndChar

StartChar: uni1A2C.sub
Encoding: 65548 -1 92
Width: 200
VWidth: 2260
Flags: W
HStem: -891 80<-512.394 -68.1556> -522 80<-184.713 -4.20481> -373 64<-616.082 -564.31> -163 80<-553.49 -290.321> 768 58<-3.43504 84.859>
VStem: -692 80<-736.861 -610.767 -308.876 -257.835> -564 64<-308.543 -256.613> -224 80<-391.269 -225.815> 37 80<-397.969 685.831>
AnchorPoint: "BelowMark" -462 -622 basemark 0
LayerCount: 2
Back
SplineSet
107 -312 m 18xfbc0
 107 -429 19 -512 -224 -512 c 3
 -291 -512 -367 -526 -430 -538 c 0
 -542 -559 -622 -615 -622 -680 c 3
 -622 -760 -454 -821 -301 -821 c 3
 -178 -821 4 -779 90 -741 c 1
 -4 -834 -134 -881 -301 -881 c 3
 -495 -881 -682 -795 -682 -680 c 3xfdc0
 -682 -602 -611 -511 -450 -480 c 0
 -321 -455 -214 -413 -214 -294 c 3
 -214 -246 -292 -153 -423 -153 c 3
 -518 -153 -611 -194 -611 -283 c 1
 -671 -283 l 1
 -671 -164 -567 -93 -423 -93 c 3
 -276 -93 -154 -194 -154 -294 c 3
 -154 -298 -162 -381 -176 -405 c 2
 -176 -405 -196 -433 -196 -438 c 0
 -196 -447 -180 -452 -150 -452 c 3
 -52 -452 47 -419 47 -312 c 2
 47 583 l 18
 47 681 -19 724 -68 724 c 3
 -75 724 -81 724 -88 723 c 1
 -76 762 -38 816 5 816 c 3
 61 816 90 774 116 740 c 1
 76 770 34 778 -2 778 c 3
 -10 778 -19 765 -19 765 c 1
 44 722 107 678 107 583 c 2
 107 -312 l 18xfbc0
-627 -283 m 3xfbc0
 -627 -303 -610 -319 -590 -319 c 3
 -570 -319 -554 -303 -554 -283 c 3
 -554 -263 -570 -246 -590 -246 c 3
 -610 -246 -627 -263 -627 -283 c 3xfbc0
-590 -202 m 3
 -547 -202 -510 -240 -510 -283 c 3
 -510 -326 -547 -363 -590 -363 c 3
 -633 -363 -671 -326 -671 -283 c 3
 -671 -240 -633 -202 -590 -202 c 3
EndSplineSet
Fore
SplineSet
-617 -283 m 3
 -617 -299 -603 -309 -590 -309 c 0
 -574 -309 -564 -296 -564 -283 c 3
 -564 -267 -577 -256 -590 -256 c 3
 -606 -256 -617 -270 -617 -283 c 3
-102 711 m 1
 -87 759 -52 826 5 826 c 3
 99 826 131 737 168 689 c 1
 123 723 61 768 -2 768 c 3
 -3 768 -4 767 -4 767 c 1
 58 724 117 677 117 583 c 2
 117 -312 l 2
 117 -438 18 -522 -224 -522 c 3
 -291 -522 -367 -536 -428 -548 c 0
 -542 -569 -612 -625 -612 -680 c 3
 -612 -749 -453 -811 -301 -811 c 3
 -145 -811 34 -755 136 -710 c 1
 24 -819 -78 -891 -301 -891 c 3
 -498 -891 -692 -805 -692 -680 c 3
 -692 -594 -613 -501 -452 -470 c 0
 -320 -444 -224 -403 -224 -294 c 3
 -224 -252 -298 -163 -423 -163 c 3
 -476 -163 -523 -176 -556 -199 c 1
 -521 -214 -500 -248 -500 -283 c 3
 -500 -334 -544 -373 -590 -373 c 3
 -641 -373 -681 -330 -681 -283 c 3
 -681 -155 -568 -83 -423 -83 c 3
 -270 -83 -144 -188 -144 -294 c 3
 -144 -300 -151 -387 -168 -411 c 1
 -168 -411 -182 -432 -185 -437 c 1
 -179 -440 -165 -442 -150 -442 c 3
 -51 -442 37 -409 37 -312 c 2
 37 583 l 2
 37 678 -26 714 -68 714 c 3
 -84 714 -90 713 -102 711 c 1
EndSplineSet
LCarets2: 1 0 
Ligature2: "Subjoined consonants lookup" uni1A60 uni1A2C
EndChar

StartChar: uni1A2D.sub
Encoding: 65549 -1 93
Width: 0
VWidth: 2260
Flags: W
HStem: -667 80<-844.89 -747.981 -561.032 -427.954> -571 80<-688.557 -623.375> -265 64<-791.366 -739.764> -147 64<-790.323 -739.918 -500.202 -389.109>
VStem: -935 80<-579.023 -437.358 -289.528 -209.05> -872 80<-425.467 -302.544> -739 64<-200.082 -147.764> -361 80<-521.951 -282.688>
AnchorPoint: "BelowMark" -361 -667 basemark 0
AnchorPoint: "BelowBase" -613 -42 mark 0
LayerCount: 2
Back
SplineSet
-579 -165 m 3xf7c0
 -579 -126 -529 -93 -487 -93 c 3
 -464 -93 -428 -106 -378 -131 c 0
 -310 -165 -306 -176 -296 -198 c 1
 -298 -198 -322 -187 -373 -164 c 0
 -423 -141 -460 -131 -482 -131 c 3xefc0
 -503 -131 -512 -136 -512 -147 c 3
 -512 -149 -512 -151 -510 -152 c 0
 -365 -190 -291 -270 -291 -407 c 3
 -291 -549 -405 -657 -524 -657 c 3
 -602 -657 -625 -561 -655 -561 c 3
 -686 -561 -708 -657 -792 -657 c 3
 -871 -657 -925 -583 -925 -505 c 3
 -925 -435 -862 -398 -862 -364 c 3
 -862 -321 -925 -298 -925 -234 c 3
 -925 -157 -862 -93 -766 -93 c 1
 -766 -153 l 1
 -820 -153 -865 -183 -865 -234 c 3
 -865 -268 -802 -291 -802 -364 c 3
 -802 -425 -865 -462 -865 -505 c 3
 -865 -554 -832 -597 -792 -597 c 3
 -745 -597 -728 -501 -655 -501 c 3
 -582 -501 -565 -597 -524 -597 c 3
 -455 -597 -351 -531 -351 -407 c 3
 -351 -285 -424 -209 -571 -177 c 0
 -576 -176 -579 -171 -579 -165 c 3xf7c0
-802 -174 m 3
 -802 -194 -786 -211 -766 -211 c 3
 -746 -211 -729 -194 -729 -174 c 3
 -729 -154 -746 -137 -766 -137 c 3
 -786 -137 -802 -154 -802 -174 c 3
-766 -93 m 3xf7c0
 -723 -93 -685 -131 -685 -174 c 3
 -685 -217 -723 -255 -766 -255 c 3
 -809 -255 -846 -217 -846 -174 c 3
 -846 -131 -809 -93 -766 -93 c 3xf7c0
EndSplineSet
Fore
SplineSet
-792 -174 m 3xf7
 -792 -190 -779 -201 -766 -201 c 3
 -750 -201 -739 -187 -739 -174 c 3
 -739 -158 -753 -147 -766 -147 c 3
 -782 -147 -792 -161 -792 -174 c 3xf7
-766 -83 m 3
 -715 -83 -675 -128 -675 -174 c 3
 -675 -225 -720 -265 -766 -265 c 3
 -806 -265 -836 -238 -849 -207 c 1
 -853 -217 -855 -225 -855 -234 c 3xfb
 -855 -256 -792 -288 -792 -364 c 3xf7
 -792 -434 -855 -472 -855 -505 c 3xfb
 -855 -552 -823 -587 -792 -587 c 3
 -758 -587 -735 -491 -655 -491 c 3
 -571 -491 -551 -587 -524 -587 c 3
 -458 -587 -361 -523 -361 -407 c 3
 -361 -289 -431 -218 -573 -187 c 0
 -587 -184 -589 -170 -589 -165 c 3
 -589 -116 -530 -83 -487 -83 c 3
 -459 -83 -422 -98 -374 -122 c 0
 -294 -162 -297 -170 -280 -208 c 1
 -296 -208 l 2
 -305 -208 -329 -195 -377 -173 c 0
 -429 -150 -463 -141 -482 -141 c 3
 -496 -141 -500 -143 -501 -144 c 1
 -355 -184 -281 -269 -281 -407 c 3
 -281 -556 -401 -667 -524 -667 c 3
 -611 -667 -640 -571 -655 -571 c 3
 -670 -571 -704 -667 -792 -667 c 3xf7
 -880 -667 -935 -585 -935 -505 c 3xfb
 -935 -427 -872 -387 -872 -364 c 3xf7
 -872 -331 -935 -303 -935 -234 c 3xfb
 -935 -149 -865 -83 -766 -83 c 3
EndSplineSet
LCarets2: 1 0 
Ligature2: "Subjoined consonants lookup" uni1A60 uni1A2D
EndChar

